{"glyphs":{"0":{"ha":893,"x_min":85,"x_max":808,"o":"m 447 -11 q 371 -11 447 -11 q 190 133 294 -11 q 85 501 85 278 q 188 863 85 725 q 447 1000 292 1000 q 706 863 603 1000 q 808 501 808 725 q 704 133 808 276 q 447 -11 600 -11 m 711 521 q 622 824 706 719 q 437 929 538 929 q 258 804 336 929 q 181 503 181 679 q 268 170 181 279 q 457 61 356 61 q 635 184 558 61 q 713 483 713 307 q 711 521 713 501 z "},"1":{"ha":471,"x_min":33,"x_max":335,"o":"m 303 882 l 303 71 q 335 29 303 40 q 276 -11 314 -11 q 214 68 214 -11 l 214 869 q 164 919 214 919 q 50 881 114 919 q 33 903 33 885 q 86 966 33 932 q 193 1000 139 1000 q 275 969 247 1000 q 303 882 303 938 z "},"2":{"ha":799,"x_min":81,"x_max":731,"o":"m 704 122 q 731 74 731 106 q 695 22 731 43 q 601 0 660 0 l 158 0 q 106 17 125 0 q 85 58 88 33 q 456 433 339 276 q 574 717 574 590 q 515 878 574 821 q 374 935 457 935 q 231 890 292 935 q 171 774 171 846 q 200 692 171 725 q 149 681 175 681 q 102 708 124 681 q 81 776 81 735 q 165 936 81 872 q 376 1000 249 1000 q 584 919 503 1000 q 665 707 665 839 q 607 508 665 601 q 543 413 574 454 q 449 306 513 371 q 207 71 369 224 l 574 83 q 704 122 661 83 z "},"3":{"ha":763,"x_min":68,"x_max":678,"o":"m 399 1000 q 450 1000 399 1000 q 567 944 500 1000 q 635 801 635 888 q 565 646 635 714 q 396 547 496 578 q 597 460 517 539 q 678 260 678 382 q 585 64 678 139 q 343 -11 493 -11 q 154 42 240 -11 q 68 167 68 96 q 114 226 68 215 q 219 104 151 150 q 378 58 286 58 q 538 114 471 58 q 604 249 604 169 q 517 413 604 354 q 319 472 431 472 q 235 461 279 472 q 219 492 219 469 q 253 535 219 514 q 334 578 286 557 q 430 626 382 600 q 511 694 478 653 q 544 791 544 735 q 498 883 544 847 q 379 919 451 919 q 147 838 244 919 q 126 863 126 847 q 213 948 126 896 q 399 1000 299 1000 z "},"4":{"ha":789,"x_min":76,"x_max":765,"o":"m 185 299 l 504 299 l 504 854 q 488 876 504 876 q 377 772 460 876 q 221 532 294 667 q 147 329 147 397 q 185 299 147 299 m 592 299 l 656 299 q 753 324 725 299 q 765 286 765 308 q 642 229 765 229 l 592 229 l 592 71 q 625 29 592 40 q 567 -11 606 -11 q 504 68 504 -11 l 504 229 l 190 229 q 76 321 76 229 q 162 576 76 413 q 359 869 247 739 q 539 1000 471 1000 q 592 933 592 1000 l 592 299 z "},"5":{"ha":754,"x_min":110,"x_max":660,"o":"m 365 601 q 578 519 497 601 q 660 311 660 438 q 572 87 660 185 q 353 -11 485 -11 q 186 37 263 -11 q 110 157 110 85 q 126 194 110 176 q 163 211 143 211 q 246 103 189 140 q 387 65 303 65 q 528 131 471 65 q 585 286 585 196 q 507 469 585 403 q 318 535 429 535 q 175 511 254 535 q 129 565 129 514 q 190 882 129 615 q 241 965 203 942 q 354 989 279 989 l 503 989 q 607 1015 572 989 q 629 972 629 997 q 493 904 629 904 l 275 904 l 207 579 q 365 601 279 601 z "},"6":{"ha":821,"x_min":89,"x_max":740,"o":"m 89 413 q 135 644 89 533 q 257 832 182 756 q 429 954 332 908 q 625 1000 526 1000 q 679 969 679 1000 q 678 960 679 963 q 338 806 482 940 q 224 639 267 739 q 182 433 182 539 q 208 248 182 326 q 299 115 235 169 q 451 60 363 60 q 594 116 539 60 q 650 290 650 172 q 563 475 650 407 q 385 529 492 529 q 335 526 361 529 q 365 583 335 565 q 439 600 396 600 q 653 517 567 600 q 740 296 740 433 q 651 74 740 158 q 433 -11 561 -11 q 179 107 269 -11 q 89 413 89 225 z "},"7":{"ha":651,"x_min":35,"x_max":590,"o":"m 153 989 l 579 989 q 590 938 590 971 q 538 809 590 904 q 424 610 486 714 q 310 368 363 507 q 258 118 258 229 q 300 40 258 50 q 239 -11 290 -11 q 178 21 201 -11 q 154 110 154 53 q 265 469 154 244 q 524 914 376 693 q 379 900 471 900 l 175 900 q 68 854 107 900 q 35 904 35 865 q 66 966 35 943 q 153 989 97 989 z "},"8":{"ha":769,"x_min":83,"x_max":686,"o":"m 174 267 q 240 117 174 183 q 417 51 306 51 q 548 97 492 51 q 604 217 604 142 q 532 361 604 303 q 394 453 471 411 q 289 511 317 494 q 174 267 174 413 m 576 721 q 522 873 576 806 q 383 940 467 940 q 244 894 299 940 q 189 774 189 847 q 256 633 189 689 q 317 588 293 603 q 483 494 347 568 q 576 721 576 588 m 667 732 q 624 581 667 649 q 517 476 581 514 q 642 373 597 428 q 686 233 686 318 q 610 69 686 149 q 409 -11 533 -11 q 184 63 285 -11 q 83 254 83 136 q 133 417 83 342 q 256 531 182 493 q 142 629 182 576 q 101 762 101 682 q 181 921 101 842 q 375 1000 260 1000 q 578 925 490 1000 q 667 732 667 850 z "},"9":{"ha":742,"x_min":39,"x_max":689,"o":"m 689 564 q 622 285 689 418 q 440 71 554 153 q 196 -11 325 -11 q 142 19 142 -11 q 143 29 142 26 q 468 193 335 47 q 601 544 601 339 q 540 789 601 667 q 451 887 510 849 q 313 925 393 925 q 177 873 233 925 q 121 729 121 821 q 222 517 121 589 q 411 458 304 458 q 465 463 438 458 q 435 406 465 424 q 361 389 404 389 q 132 483 225 389 q 39 708 39 576 q 123 919 39 839 q 332 1000 207 1000 q 593 878 497 1000 q 689 564 689 757 z "},"\u0000":{"ha":0,"x_min":0,"x_max":0,"o":""},"\r":{"ha":0,"x_min":0,"x_max":0,"o":""}," ":{"ha":375,"x_min":0,"x_max":0,"o":""},"!":{"ha":439,"x_min":153,"x_max":296,"o":"m 249 361 q 264 267 249 299 q 229 244 250 244 q 181 326 185 244 l 171 997 q 217 1086 171 1086 q 267 997 267 1086 l 249 382 q 249 361 249 371 m 233 132 q 248 132 233 132 q 279 115 263 132 q 296 69 296 99 q 271 15 296 40 q 216 -11 246 -11 q 169 6 186 -11 q 153 52 153 22 q 178 107 153 82 q 233 132 204 132 z "},"\"":{"ha":365,"x_min":44,"x_max":321,"o":"m 131 1171 q 120 935 131 1044 q 88 826 110 826 q 56 938 67 826 q 44 1172 44 1049 q 86 1246 44 1246 q 131 1171 131 1246 m 321 1171 q 310 935 321 1044 q 278 826 300 826 q 246 938 257 826 q 235 1172 235 1049 q 276 1246 235 1246 q 321 1171 321 1246 z "},"#":{"ha":1022,"x_min":74,"x_max":949,"o":"m 594 322 l 690 664 l 413 664 l 317 322 l 594 322 m 831 322 l 833 304 q 742 244 833 244 l 657 244 l 607 68 q 529 -11 586 -11 q 485 29 490 -11 q 525 71 515 40 l 574 244 l 294 244 l 244 68 q 168 -11 225 -11 q 138 0 150 -11 q 122 29 125 11 q 163 71 156 40 l 211 244 l 78 244 q 74 264 74 257 q 165 322 74 322 l 233 322 l 331 664 l 194 664 q 190 683 190 669 q 281 742 190 742 l 353 742 l 403 921 q 482 1000 422 1000 q 526 960 517 1000 q 485 917 493 950 l 435 742 l 711 742 l 761 921 q 843 1000 789 1000 q 888 960 878 1000 q 844 917 854 950 l 796 742 l 946 742 q 949 724 949 736 q 858 664 949 664 l 774 664 l 678 322 l 831 322 z "},"$":{"ha":799,"x_min":90,"x_max":778,"o":"m 494 1111 l 494 1004 q 675 938 608 992 q 742 814 742 883 q 724 758 742 778 q 675 738 706 738 q 653 740 667 738 q 638 743 640 743 q 642 782 642 765 q 585 885 642 836 q 428 933 529 933 q 269 890 328 933 q 210 773 210 846 q 268 648 210 700 q 410 560 326 596 q 578 489 494 525 q 719 399 661 453 q 778 274 778 344 q 684 81 778 161 q 456 -10 590 0 l 456 -111 q 488 -153 456 -140 q 428 -193 465 -193 q 367 -114 367 -193 l 367 -8 q 167 71 244 6 q 90 229 90 136 q 112 296 90 269 q 170 322 133 322 q 222 293 207 322 q 190 219 190 264 q 251 108 190 153 q 419 64 313 64 q 606 122 525 64 q 688 258 688 179 q 645 347 688 307 q 540 414 603 388 q 403 474 478 440 q 267 540 329 507 q 162 628 204 572 q 119 756 119 685 q 206 927 119 857 q 407 1006 293 997 l 407 1106 q 375 1149 407 1138 q 433 1189 394 1189 q 494 1111 494 1189 z "},"%":{"ha":1143,"x_min":119,"x_max":1022,"o":"m 507 744 q 507 690 507 744 q 447 547 507 635 q 300 460 386 460 q 167 533 214 460 q 119 715 119 606 q 176 913 119 825 q 322 1000 233 1000 q 458 927 410 1000 q 507 744 507 854 m 444 738 q 444 779 444 738 q 411 874 444 819 q 319 928 378 928 q 222 867 260 928 q 183 723 183 806 q 219 587 183 640 q 312 533 254 533 q 407 595 369 533 q 444 738 444 657 m 863 967 q 915 1000 892 1000 q 957 981 939 1000 q 928 947 951 978 l 281 24 q 231 -11 257 -11 q 188 8 204 -11 q 215 42 200 18 l 863 967 m 1022 273 q 1022 218 1022 273 q 963 76 1022 164 q 816 -11 903 -11 q 683 62 729 -11 q 636 244 636 135 q 693 441 636 353 q 838 529 750 529 q 974 456 925 529 q 1022 273 1022 382 m 960 265 q 960 306 960 265 q 926 401 960 347 q 835 456 893 456 q 738 394 776 456 q 699 251 699 333 q 735 115 699 169 q 828 61 771 61 q 923 122 886 61 q 960 265 960 183 z "},"&":{"ha":992,"x_min":104,"x_max":983,"o":"m 953 694 q 983 619 983 672 q 932 525 983 565 q 776 483 881 485 q 818 311 818 415 q 717 83 818 176 q 457 -11 617 -11 q 201 72 297 -11 q 104 285 104 156 q 260 542 104 447 q 174 616 204 565 q 143 736 143 667 q 222 926 143 854 q 410 999 300 999 q 538 965 492 999 q 585 874 585 932 q 561 833 585 844 q 532 826 547 826 q 501 831 517 826 q 465 916 496 890 q 374 942 435 942 q 271 891 313 942 q 229 765 229 840 q 428 586 229 586 q 435 565 435 576 q 417 538 435 553 q 371 522 400 522 q 317 525 342 522 q 229 428 263 490 q 196 297 196 365 q 267 126 196 186 q 461 65 339 65 q 669 133 583 65 q 756 306 756 200 q 613 485 756 485 q 608 511 608 497 q 690 543 608 543 q 847 581 810 543 q 872 651 872 607 q 868 690 872 669 q 917 704 896 704 q 953 694 938 704 z "},"'":{"ha":175,"x_min":42,"x_max":133,"o":"m 133 1094 q 122 912 133 997 q 88 826 110 826 q 54 914 67 826 q 42 1096 42 1001 q 86 1169 42 1169 q 133 1094 133 1169 z "},"(":{"ha":599,"x_min":161,"x_max":564,"o":"m 564 992 q 244 315 244 706 q 564 -360 244 -76 q 536 -379 556 -379 q 441 -326 501 -379 q 317 -185 381 -272 q 207 38 253 -97 q 161 311 161 174 q 206 582 161 449 q 314 806 251 715 q 438 952 376 896 q 536 1008 500 1008 q 564 992 556 1008 z "},")":{"ha":599,"x_min":32,"x_max":435,"o":"m 282 806 q 313 760 282 806 q 390 582 344 715 q 435 311 435 449 q 389 38 435 174 q 279 -185 343 -97 q 155 -326 215 -272 q 60 -379 94 -379 q 32 -360 40 -379 q 353 315 353 -72 q 32 992 353 701 q 60 1008 40 1008 q 158 952 96 1008 q 282 806 219 896 z "},"*":{"ha":725,"x_min":78,"x_max":647,"o":"m 78 1111 q 94 1144 78 1133 q 138 1154 111 1154 q 224 1130 165 1154 q 332 1076 283 1106 q 313 1245 313 1160 q 361 1331 313 1331 q 415 1251 415 1331 q 396 1078 415 1172 q 592 1158 532 1158 q 631 1146 615 1158 q 647 1111 647 1133 q 576 1047 647 1069 q 419 1019 504 1024 q 411 1018 418 1019 q 510 920 464 975 q 556 829 556 865 q 544 799 556 811 q 511 786 532 786 q 433 847 475 786 q 361 978 390 907 q 292 847 335 908 q 214 785 250 785 q 182 799 193 785 q 171 838 171 813 q 216 919 171 864 q 313 1018 261 975 l 306 1018 q 78 1111 78 1036 z "},"+":{"ha":915,"x_min":103,"x_max":813,"o":"m 474 896 q 493 890 482 896 l 489 590 l 808 594 q 813 576 813 590 q 731 521 813 521 q 489 526 561 526 l 493 279 q 440 199 493 199 q 419 201 425 199 l 425 526 l 108 521 q 103 543 103 532 q 185 594 103 594 l 426 590 q 421 814 424 743 q 474 896 421 896 z "},",":{"ha":332,"x_min":83,"x_max":260,"o":"m 110 -183 q 181 -35 181 -135 q 154 49 181 11 q 86 93 128 86 q 105 142 83 121 q 157 163 126 163 q 233 117 207 163 q 260 -3 260 71 q 223 -143 260 -78 q 140 -208 186 -208 q 110 -183 114 -208 z "},"-":{"ha":668,"x_min":83,"x_max":585,"o":"m 163 513 l 582 513 q 585 493 585 504 q 506 439 585 439 l 89 439 q 83 460 83 450 q 163 513 83 513 z "},".":{"ha":479,"x_min":160,"x_max":317,"o":"m 249 158 q 265 158 249 158 q 299 140 281 158 q 317 90 317 121 q 289 30 317 58 q 228 1 261 1 q 178 20 196 1 q 160 70 160 39 q 188 130 160 101 q 249 158 217 158 z "},"/":{"ha":756,"x_min":56,"x_max":656,"o":"m 610 1292 q 656 1276 629 1292 q 625 1221 643 1268 l 164 -99 q 143 -144 160 -122 q 101 -165 126 -165 q 56 -149 76 -165 q 85 -93 72 -133 l 546 1224 q 610 1292 568 1292 z "},":":{"ha":411,"x_min":133,"x_max":290,"o":"m 222 690 q 238 690 222 690 q 272 672 254 690 q 290 621 290 653 q 263 561 290 589 q 203 533 235 533 q 152 552 171 533 q 133 602 133 571 q 162 662 133 633 q 222 690 190 690 m 222 164 q 238 164 222 164 q 272 145 254 164 q 290 94 290 126 q 263 35 290 63 q 203 8 235 8 q 152 26 171 8 q 133 76 133 44 q 162 135 133 107 q 222 164 190 164 z "},";":{"ha":411,"x_min":133,"x_max":311,"o":"m 222 690 q 238 690 222 690 q 272 672 254 690 q 290 621 290 653 q 263 561 290 589 q 203 533 235 533 q 152 552 171 533 q 133 602 133 571 q 162 662 133 633 q 222 690 190 690 m 232 -39 q 206 45 232 8 q 136 89 179 82 q 157 138 135 117 q 210 158 179 158 q 284 113 257 158 q 311 -8 311 67 q 274 -146 311 -83 q 193 -208 238 -208 q 161 -183 165 -208 q 232 -39 232 -136 z "},"<":{"ha":883,"x_min":38,"x_max":703,"o":"m 138 554 q 339 435 138 525 q 703 314 540 346 q 629 247 703 247 q 435 301 578 247 q 165 427 293 354 q 38 544 38 500 q 176 673 38 593 q 465 810 315 753 q 654 868 615 868 q 693 836 693 868 q 340 694 543 790 q 138 554 138 597 z "},"=":{"ha":957,"x_min":126,"x_max":829,"o":"m 206 747 l 828 747 q 829 731 829 743 q 750 675 829 675 l 131 675 q 126 694 126 688 q 206 747 126 747 m 206 429 l 828 429 q 829 413 829 424 q 750 356 829 356 l 131 356 q 126 375 126 372 q 206 429 126 429 z "},">":{"ha":888,"x_min":186,"x_max":851,"o":"m 258 247 q 186 314 186 247 q 550 435 349 346 q 751 554 751 525 q 549 694 751 597 q 196 836 346 790 q 235 868 196 868 q 424 810 274 868 q 713 673 574 753 q 851 544 851 593 q 724 427 851 500 q 453 301 596 354 q 258 247 310 247 z "},"?":{"ha":643,"x_min":74,"x_max":560,"o":"m 418 572 q 402 556 418 572 q 363 502 386 540 q 340 424 340 464 q 359 362 340 385 q 411 338 378 339 q 392 297 410 313 q 341 281 375 281 q 275 312 307 281 q 243 393 243 343 q 266 490 243 443 q 322 574 289 538 q 389 647 356 611 q 468 832 468 733 q 425 944 468 893 q 314 994 382 994 q 202 960 246 994 q 158 867 158 926 q 251 735 158 771 q 193 707 246 707 q 107 746 140 707 q 74 849 74 785 q 147 990 74 932 q 326 1047 221 1047 q 495 987 431 1047 q 560 851 560 926 q 537 724 560 776 q 482 638 514 672 q 418 572 450 603 m 328 136 q 343 136 328 136 q 376 119 358 136 q 393 72 393 103 q 367 15 393 42 q 310 -11 340 -11 q 262 7 279 -11 q 244 55 244 25 q 272 110 244 85 q 328 136 299 136 z "},"@":{"ha":1176,"x_min":103,"x_max":1076,"o":"m 428 258 q 534 179 428 179 q 714 265 640 179 l 724 411 q 503 364 576 404 q 428 258 428 322 m 793 215 q 835 174 793 174 q 955 251 897 174 q 1012 485 1013 329 q 897 743 1011 642 q 622 846 783 844 q 294 713 421 846 q 167 346 167 581 q 200 160 167 239 q 288 39 233 81 q 525 -40 393 -40 q 758 24 657 -40 q 768 2 768 15 q 746 -32 768 -11 q 503 -97 669 -96 q 239 -1 361 -97 q 140 137 178 47 q 103 346 103 226 q 254 752 103 603 q 629 901 406 901 q 945 784 814 901 q 1076 471 1076 667 q 994 210 1076 310 q 822 111 911 111 q 745 137 775 111 q 713 208 715 163 q 508 114 635 114 q 388 151 433 114 q 342 249 342 189 q 439 395 342 342 q 726 456 536 449 l 729 514 q 729 528 729 521 q 703 632 729 596 q 609 668 676 668 q 507 644 542 668 q 471 579 471 618 q 485 544 471 558 q 439 533 463 533 q 399 547 415 533 q 383 582 383 560 q 450 674 383 636 q 612 711 517 711 q 759 664 707 711 q 811 542 811 617 q 811 533 811 538 l 793 224 q 793 215 793 219 z "},"A":{"ha":849,"x_min":25,"x_max":825,"o":"m 246 317 l 611 317 l 440 840 l 246 317 m 825 13 q 776 -11 808 -11 q 727 5 744 -11 q 697 61 710 21 l 635 246 l 218 246 l 153 79 q 115 10 133 32 q 69 -11 97 -11 q 25 29 42 -11 q 69 83 53 40 l 407 931 q 376 982 394 964 q 429 1000 406 1000 q 492 933 469 1000 l 783 69 q 825 13 797 26 z "},"B":{"ha":936,"x_min":118,"x_max":864,"o":"m 800 732 q 639 513 800 571 q 803 423 743 485 q 864 264 864 361 q 758 63 864 136 q 467 -11 651 -11 q 208 33 283 -11 q 132 160 132 76 l 135 899 q 118 957 135 939 q 422 1000 242 1000 q 701 926 603 1000 q 800 732 800 851 m 453 536 q 638 588 574 536 q 701 730 701 639 q 632 874 701 821 q 442 926 563 926 q 226 903 321 926 l 224 536 l 453 536 m 453 58 q 685 113 604 58 q 765 262 765 167 q 684 412 765 357 q 450 467 603 467 l 224 467 l 222 165 q 453 58 222 58 z "},"C":{"ha":918,"x_min":92,"x_max":817,"o":"m 817 843 q 800 799 817 815 q 759 782 783 782 q 724 786 735 782 q 725 799 725 793 q 676 881 725 844 q 531 918 628 918 q 294 808 396 918 q 192 496 192 697 q 281 183 192 294 q 528 71 369 71 q 680 103 610 71 q 794 179 750 135 q 817 146 817 176 q 724 45 817 101 q 503 -11 631 -11 q 210 122 328 -11 q 92 481 92 254 q 227 853 92 707 q 556 1000 363 1000 q 742 953 668 1000 q 817 843 817 907 z "},"D":{"ha":972,"x_min":118,"x_max":922,"o":"m 118 957 q 403 1000 242 1000 q 692 925 564 1000 q 892 686 836 842 q 922 493 922 599 q 892 301 922 388 q 810 158 861 215 q 692 63 760 101 q 403 -11 563 -11 q 178 33 231 -11 q 141 81 150 57 q 132 142 132 106 l 135 899 q 118 957 135 939 m 230 96 q 234 88 230 96 q 277 69 238 81 q 401 58 317 58 q 558 84 485 58 q 691 160 631 110 q 788 296 751 210 q 824 492 824 382 q 788 688 824 603 q 692 824 751 774 q 403 925 568 925 q 226 904 301 925 l 222 146 q 230 96 222 111 z "},"E":{"ha":861,"x_min":117,"x_max":778,"o":"m 340 71 l 636 71 q 738 129 710 71 q 766 110 754 125 q 778 81 778 96 q 631 0 778 0 l 343 0 q 196 39 243 0 q 149 167 149 78 l 149 897 q 117 942 149 929 q 224 989 146 989 l 656 989 q 778 928 778 989 q 738 879 778 889 q 636 917 707 917 l 238 917 l 238 543 l 558 543 q 653 534 625 543 q 682 495 682 525 q 650 450 682 465 q 549 471 619 471 l 238 471 l 238 164 q 261 92 238 114 q 340 71 285 71 z "},"F":{"ha":821,"x_min":117,"x_max":778,"o":"m 224 989 l 653 989 q 778 926 778 989 q 738 878 778 888 q 636 915 706 915 l 238 915 l 238 546 l 558 546 q 653 536 625 546 q 682 495 682 526 q 650 449 682 464 q 549 469 619 469 l 238 469 l 238 71 q 269 29 238 39 q 210 -11 247 -11 q 149 68 149 -11 l 149 897 q 117 942 149 929 q 224 989 146 989 z "},"G":{"ha":965,"x_min":92,"x_max":888,"o":"m 828 -135 q 765 -57 765 -135 l 767 117 q 650 28 722 67 q 494 -11 578 -11 q 205 112 318 -11 q 92 439 92 235 q 235 844 92 689 q 597 1000 378 1000 q 799 950 725 1000 q 872 833 872 900 q 856 790 872 807 q 817 774 839 774 q 779 779 794 774 q 779 790 779 785 q 728 880 779 842 q 575 918 678 918 q 295 799 399 918 q 192 477 192 681 q 274 172 192 274 q 500 71 356 71 q 641 102 578 71 q 769 199 704 133 l 772 444 l 679 444 q 500 436 583 444 q 486 467 486 450 q 535 507 486 494 q 696 519 585 519 q 833 504 807 519 q 860 446 860 489 l 856 -53 q 888 -94 856 -83 q 828 -135 868 -135 z "},"H":{"ha":1000,"x_min":96,"x_max":897,"o":"m 865 921 l 865 71 q 897 29 865 40 q 839 -11 875 -11 q 778 68 778 -11 l 778 457 l 217 457 l 217 71 q 249 29 217 40 q 189 -11 226 -11 q 128 68 128 -11 l 128 917 q 96 960 128 949 q 154 1000 117 1000 q 217 921 217 1000 l 217 528 l 778 528 l 778 917 q 746 960 778 949 q 803 1000 764 1000 q 865 921 865 1000 z "},"I":{"ha":351,"x_min":96,"x_max":249,"o":"m 217 921 l 217 71 q 249 29 217 40 q 189 -11 226 -11 q 128 68 128 -11 l 128 917 q 96 960 128 949 q 154 1000 117 1000 q 217 921 217 1000 z "},"J":{"ha":524,"x_min":42,"x_max":404,"o":"m 404 921 l 404 186 q 351 42 404 93 q 215 -10 299 -10 q 86 15 131 -10 q 42 67 42 39 q 53 107 42 94 q 187 67 115 67 q 287 95 258 67 q 315 185 315 124 l 315 917 q 283 960 315 950 q 343 1000 306 1000 q 404 921 404 1000 z "},"K":{"ha":847,"x_min":96,"x_max":797,"o":"m 674 8 q 597 76 647 26 l 217 460 l 217 71 q 249 29 217 40 q 189 -11 226 -11 q 128 68 128 -11 l 128 917 q 96 960 128 949 q 154 1000 117 1000 q 217 921 217 1000 l 217 522 l 611 933 q 672 986 649 972 q 719 999 694 1000 q 779 957 744 999 q 675 875 736 936 l 304 499 l 714 85 q 797 28 751 43 q 784 15 793 25 q 769 3 775 6 q 674 8 724 -26 z "},"L":{"ha":796,"x_min":107,"x_max":725,"o":"m 139 168 l 139 917 q 107 960 139 949 q 167 1000 128 1000 q 228 921 228 1000 l 228 165 q 251 94 228 115 q 331 72 275 72 l 581 72 q 683 131 651 72 q 713 111 701 126 q 725 79 725 96 q 578 0 725 0 l 335 0 q 187 40 235 0 q 139 168 139 79 z "},"M":{"ha":1322,"x_min":124,"x_max":1203,"o":"m 1203 11 q 1150 -11 1178 -11 q 1109 8 1122 -11 q 1089 71 1096 26 l 1033 836 l 699 46 q 656 17 689 17 q 613 46 622 17 l 290 838 l 236 75 q 217 9 232 29 q 176 -11 203 -11 q 124 11 149 -11 q 144 75 139 22 l 207 917 q 189 978 208 958 q 240 1000 218 1000 q 343 918 308 1000 l 657 151 l 983 918 q 1082 1000 1021 1000 q 1140 978 1106 1000 q 1119 926 1119 963 q 1119 918 1119 922 l 1183 75 q 1203 11 1186 25 z "},"N":{"ha":1035,"x_min":118,"x_max":917,"o":"m 150 68 l 150 917 q 118 960 150 949 q 176 1000 140 1000 q 238 980 213 1000 q 293 914 263 960 l 794 131 l 794 917 q 763 960 794 949 q 822 1000 783 1000 q 883 921 883 1000 l 883 71 q 891 44 883 53 q 917 31 899 36 q 856 -11 894 -11 q 742 78 803 -11 l 238 849 l 238 71 q 269 29 238 40 q 211 -11 250 -11 q 150 68 150 -11 z "},"O":{"ha":1057,"x_min":103,"x_max":954,"o":"m 192 465 q 313 163 210 264 q 559 61 415 61 q 794 189 703 61 q 869 456 869 294 q 867 521 869 486 q 748 826 851 724 q 499 929 644 929 q 264 800 354 929 q 189 536 189 694 q 192 465 189 501 m 530 1000 q 624 1000 530 1000 q 836 865 718 1000 q 954 498 954 731 q 835 127 954 265 q 529 -11 717 -11 q 222 125 342 -11 q 103 494 103 261 q 222 863 103 726 q 530 1000 342 1000 z "},"P":{"ha":860,"x_min":122,"x_max":788,"o":"m 447 911 l 242 911 l 242 458 l 447 458 q 631 521 568 458 q 693 684 693 583 q 631 848 693 785 q 447 911 568 911 m 229 989 l 443 989 q 694 905 601 989 q 788 685 788 821 q 694 466 788 550 q 443 382 601 382 l 243 382 l 243 71 q 275 29 243 39 q 215 -11 253 -11 q 154 68 154 -11 l 154 897 q 122 942 154 929 q 229 989 151 989 z "},"Q":{"ha":1050,"x_min":125,"x_max":986,"o":"m 967 557 q 926 319 967 425 q 813 144 885 214 q 467 -35 672 10 q 636 -167 535 -118 q 825 -217 738 -217 q 975 -157 913 -217 q 986 -193 986 -174 q 977 -231 986 -212 q 949 -268 968 -250 q 815 -308 906 -308 q 622 -255 724 -308 q 456 -131 521 -201 q 392 -12 392 -61 q 414 19 392 6 q 500 47 436 32 q 761 210 658 85 q 864 549 864 335 q 770 829 864 729 q 524 929 676 929 q 310 825 396 929 q 225 560 225 721 q 293 312 225 400 q 485 222 361 224 q 399 158 472 158 q 206 265 288 158 q 125 519 125 371 q 247 863 125 725 q 549 1000 369 1000 q 847 876 728 1000 q 967 557 967 751 z "},"R":{"ha":858,"x_min":122,"x_max":822,"o":"m 242 490 l 447 490 q 631 546 569 490 q 693 701 693 601 q 631 857 693 800 q 447 914 569 914 l 242 914 l 242 490 m 814 56 q 822 56 818 56 q 740 -10 794 -10 q 688 8 708 -10 q 628 76 667 25 l 381 417 l 243 417 l 243 71 q 275 29 243 39 q 215 -11 253 -11 q 154 68 154 -11 l 154 897 q 122 942 154 929 q 229 989 151 989 l 446 989 q 699 913 607 989 q 790 708 790 838 q 713 505 790 579 q 496 418 635 431 l 744 92 q 814 56 772 56 z "},"S":{"ha":872,"x_min":90,"x_max":778,"o":"m 742 814 q 724 758 742 778 q 675 738 706 738 q 653 740 667 738 q 638 743 640 743 q 642 782 642 765 q 585 885 642 836 q 428 933 529 933 q 269 890 328 933 q 210 773 210 846 q 268 648 210 700 q 410 560 326 596 q 578 489 494 525 q 719 399 661 453 q 778 274 778 344 q 673 71 778 153 q 423 -11 568 -11 q 184 57 278 -11 q 90 229 90 125 q 112 296 90 269 q 170 322 133 322 q 222 293 207 322 q 190 219 190 264 q 251 108 190 153 q 419 64 313 64 q 606 122 525 64 q 688 258 688 179 q 645 347 688 307 q 540 414 603 388 q 403 474 478 440 q 267 540 329 507 q 162 628 204 572 q 119 756 119 685 q 215 935 119 864 q 441 1007 311 1007 q 656 950 571 1007 q 742 814 742 893 z "},"T":{"ha":726,"x_min":15,"x_max":711,"o":"m 107 989 l 649 989 q 711 939 711 989 q 693 896 711 914 q 619 914 665 914 l 406 914 l 406 71 q 438 29 406 40 q 381 -11 417 -11 q 317 68 317 -11 l 317 914 l 76 914 q 15 964 15 914 q 33 1006 15 990 q 107 989 64 989 z "},"U":{"ha":958,"x_min":111,"x_max":847,"o":"m 143 356 l 143 917 q 111 960 143 949 q 169 1000 133 1000 q 231 921 231 1000 l 231 346 q 292 140 231 210 q 494 71 354 71 q 697 139 633 71 q 760 346 760 207 l 760 917 q 728 960 760 949 q 786 1000 747 1000 q 847 921 847 1000 l 847 356 q 762 88 847 185 q 497 -10 676 -10 q 231 88 318 -10 q 143 356 143 186 z "},"V":{"ha":861,"x_min":8,"x_max":856,"o":"m 760 907 q 772 960 772 938 q 761 997 772 982 q 805 1004 785 1004 q 840 990 825 1004 q 856 953 856 976 q 847 911 856 929 l 510 47 q 483 1 497 14 q 444 -11 469 -11 q 378 47 399 -11 l 54 896 q 8 964 33 949 q 74 1000 35 1000 q 110 983 96 1000 q 140 932 125 967 l 450 83 l 760 907 z "},"W":{"ha":1324,"x_min":36,"x_max":1290,"o":"m 1203 918 q 1174 974 1203 958 q 1228 1000 1197 1000 q 1274 983 1258 1000 q 1290 940 1290 965 q 1282 886 1290 914 l 1049 47 q 976 -10 1029 -10 q 910 47 922 -10 l 686 879 l 464 47 q 393 -10 449 -10 q 349 3 365 -10 q 324 47 333 15 l 88 888 q 36 949 74 936 q 103 1000 53 1000 q 172 915 150 1000 l 397 86 l 621 944 q 692 1000 638 1000 q 760 944 746 1000 l 985 85 l 1197 879 q 1203 918 1203 901 z "},"X":{"ha":858,"x_min":35,"x_max":822,"o":"m 822 38 q 797 3 815 18 q 755 -11 779 -11 q 713 3 731 -11 q 672 49 694 17 l 435 406 l 181 53 q 90 -11 135 -11 q 55 4 69 -11 q 40 33 40 19 q 42 51 40 46 q 108 93 78 51 l 392 472 l 107 901 q 35 946 82 942 q 63 985 42 969 q 106 1000 83 1000 q 190 940 151 1000 l 446 554 l 706 911 q 724 957 722 935 q 714 989 726 979 q 764 1003 739 1003 q 802 989 789 1003 q 815 953 815 975 q 799 906 815 932 l 492 486 l 756 88 q 822 38 785 44 z "},"Y":{"ha":806,"x_min":25,"x_max":765,"o":"m 419 -11 q 358 75 358 -11 l 360 440 l 107 892 q 25 943 74 942 q 52 985 32 969 q 96 1000 72 1000 q 179 944 149 1000 l 410 522 l 653 913 q 671 958 671 940 q 660 988 671 976 q 719 1000 681 1000 q 765 953 765 1000 q 750 903 765 936 l 449 444 l 447 71 q 472 11 447 32 q 419 -11 450 -11 z "},"Z":{"ha":822,"x_min":78,"x_max":746,"o":"m 746 65 q 582 0 746 0 l 144 0 q 95 17 113 0 q 78 53 78 33 q 114 128 78 74 l 657 926 q 262 908 426 908 q 97 972 97 908 q 118 1008 97 994 q 254 989 165 989 l 681 989 q 729 972 713 989 q 746 934 746 956 q 710 858 746 913 l 169 63 l 589 78 q 724 110 681 81 q 746 65 746 90 z "},"[":{"ha":522,"x_min":121,"x_max":431,"o":"m 210 -218 l 364 -218 q 431 -265 431 -218 q 428 -281 431 -275 l 211 -281 q 121 -192 121 -281 l 121 1097 l 364 1097 q 431 1049 431 1097 q 428 1031 431 1036 l 210 1031 l 210 -218 z "},"\\":{"ha":756,"x_min":74,"x_max":672,"o":"m 118 1313 q 182 1249 157 1313 q 383 677 190 1233 q 644 -71 575 121 q 672 -126 656 -110 q 629 -143 654 -143 q 564 -75 581 -143 q 385 436 514 67 q 103 1242 257 806 q 74 1297 89 1288 q 118 1313 94 1313 z "},"]":{"ha":522,"x_min":121,"x_max":431,"o":"m 342 1033 l 188 1033 q 121 1081 121 1033 q 124 1097 121 1089 l 340 1097 q 422 1058 404 1097 q 431 1006 431 1038 l 431 -281 l 188 -281 q 121 -233 121 -281 q 124 -217 121 -222 l 342 -217 l 342 1033 z "},"^":{"ha":732,"x_min":61,"x_max":671,"o":"m 633 335 q 572 385 597 335 l 353 793 l 113 331 q 76 346 90 331 q 61 394 61 361 q 86 474 61 428 l 304 869 q 351 903 324 903 q 390 876 379 903 l 671 351 q 633 335 654 335 z "},"_":{"ha":786,"x_min":-3,"x_max":786,"o":"m 785 -125 l 786 -143 q 707 -199 786 -199 l 0 -199 q -3 -179 -3 -187 q 75 -125 -3 -125 l 785 -125 z "},"`":{"ha":310,"x_min":17,"x_max":293,"o":"m 293 974 q 261 976 282 976 q 217 953 240 976 l 79 811 q 40 788 54 788 q 17 806 24 788 l 147 999 q 222 1056 185 1056 q 293 983 293 1056 q 293 974 293 979 z "},"a":{"ha":717,"x_min":81,"x_max":647,"o":"m 175 174 q 294 67 175 67 q 493 172 414 67 l 493 346 q 253 290 332 338 q 175 174 175 243 m 582 494 l 582 111 q 647 36 582 39 q 585 -11 629 -11 q 493 107 493 -11 q 274 -11 413 -11 q 135 36 190 -11 q 81 165 81 83 q 182 331 81 268 q 493 400 283 393 l 493 471 q 460 613 493 568 q 351 658 426 658 q 240 629 276 658 q 204 565 204 600 q 222 511 204 529 q 172 496 199 496 q 127 513 146 496 q 108 560 108 529 q 178 667 108 622 q 353 711 247 711 q 520 652 458 711 q 582 494 582 593 z "},"b":{"ha":789,"x_min":94,"x_max":728,"o":"m 394 74 q 571 151 507 74 q 635 358 635 228 q 572 558 635 488 q 415 629 508 629 q 214 496 279 629 l 213 228 q 260 113 213 153 q 394 74 307 74 m 214 601 q 419 711 290 711 q 638 622 547 711 q 728 365 728 532 q 631 94 728 199 q 397 -10 532 -10 q 193 55 263 -10 q 124 228 124 119 l 126 964 q 119 992 126 983 q 94 1008 113 1001 q 154 1047 117 1047 q 215 969 215 1047 l 214 601 z "},"c":{"ha":669,"x_min":69,"x_max":601,"o":"m 601 588 q 585 542 601 558 q 547 525 568 525 q 514 529 526 525 q 518 558 518 539 q 403 644 518 644 q 236 567 310 644 q 163 349 163 489 q 228 140 163 210 q 386 71 293 71 q 578 140 504 71 q 592 106 592 126 q 525 28 592 68 q 375 -11 458 -11 q 162 76 254 -11 q 69 329 69 164 q 173 603 69 494 q 421 711 276 711 q 553 674 506 711 q 601 588 601 638 z "},"d":{"ha":785,"x_min":72,"x_max":689,"o":"m 568 569 q 399 635 496 635 q 235 556 303 635 q 168 340 168 476 q 227 135 168 203 q 371 67 286 67 q 503 114 456 67 q 568 263 550 161 l 568 569 m 657 969 l 657 71 q 689 29 657 40 q 631 -11 667 -11 q 568 68 568 -11 l 568 133 q 357 -11 506 -11 q 159 82 246 -11 q 72 340 72 175 q 165 608 72 506 q 372 711 257 711 q 568 651 488 711 l 568 964 q 536 1008 568 996 q 594 1047 556 1047 q 657 969 657 1047 z "},"e":{"ha":663,"x_min":69,"x_max":611,"o":"m 458 419 q 517 488 517 424 q 478 597 517 553 q 378 640 439 640 q 238 576 296 640 q 168 399 179 511 l 458 419 m 165 347 q 227 135 164 204 q 402 65 290 65 q 588 135 514 65 q 604 103 604 125 q 541 26 604 63 q 390 -11 478 -11 q 160 78 251 -11 q 69 331 69 168 q 168 602 69 493 q 390 711 267 711 q 550 642 489 711 q 611 485 611 574 q 576 392 611 424 q 463 360 540 361 l 165 350 l 165 347 z "},"f":{"ha":463,"x_min":53,"x_max":540,"o":"m 175 639 l 175 831 q 231 992 175 938 q 367 1047 288 1047 q 494 1015 447 1047 q 540 939 540 982 q 524 907 540 918 q 383 976 464 976 q 297 942 329 976 q 264 840 264 908 l 264 639 l 496 639 q 503 615 503 631 q 283 561 503 561 l 264 561 l 264 -190 q 234 -300 264 -262 q 152 -337 204 -337 q 69 -281 100 -337 q 151 -254 128 -281 q 175 -167 175 -228 l 175 563 q 53 611 53 568 q 67 646 53 629 q 160 639 94 639 l 175 639 z "},"g":{"ha":772,"x_min":54,"x_max":722,"o":"m 248 281 q 275 251 248 281 q 372 221 301 221 q 490 278 443 221 q 538 418 538 336 q 480 588 538 525 q 351 651 422 651 q 233 595 279 651 q 186 464 186 539 q 188 438 186 451 q 248 281 194 340 m 488 -28 l 322 -28 q 113 106 113 -28 q 203 217 113 183 q 100 429 100 296 q 180 637 100 563 q 363 711 260 711 q 489 678 428 711 q 541 779 499 739 q 628 819 583 819 q 698 800 674 819 q 722 751 722 781 q 696 703 722 721 q 629 726 665 726 q 569 703 593 726 q 536 643 544 679 q 625 438 625 565 q 545 237 625 311 q 363 163 465 163 q 267 181 311 163 q 196 117 196 167 q 333 54 196 54 l 485 54 q 641 11 586 54 q 696 -107 696 -32 q 597 -269 696 -203 q 362 -336 497 -336 q 141 -281 226 -336 q 55 -148 56 -225 q 121 -54 54 -71 q 382 -253 129 -253 q 556 -213 493 -253 q 619 -111 619 -174 q 488 -28 619 -28 z "},"h":{"ha":810,"x_min":101,"x_max":715,"o":"m 682 475 l 682 71 q 715 29 682 39 q 656 -11 693 -11 q 594 68 594 -11 l 594 474 q 457 631 594 631 q 315 570 382 631 q 221 413 247 510 l 221 71 q 253 29 221 40 q 194 -11 231 -11 q 133 68 133 -11 l 133 964 q 101 1008 133 994 q 158 1047 118 1047 q 221 969 221 1047 l 221 536 q 324 661 257 611 q 481 711 390 711 q 626 652 571 711 q 682 475 682 593 z "},"i":{"ha":353,"x_min":93,"x_max":253,"o":"m 179 994 q 194 994 179 994 q 229 977 210 994 q 249 929 249 960 q 223 875 249 899 q 165 851 197 851 q 113 870 133 851 q 93 920 93 889 q 121 973 93 951 q 179 994 149 994 m 221 632 l 221 71 q 253 29 221 40 q 194 -11 231 -11 q 133 68 133 -11 l 133 628 q 101 671 133 660 q 158 711 121 711 q 221 632 221 711 z "},"j":{"ha":354,"x_min":25,"x_max":249,"o":"m 221 632 l 221 -190 q 191 -299 221 -261 q 109 -337 161 -337 q 25 -281 57 -337 q 109 -254 85 -281 q 133 -167 133 -228 l 133 628 q 101 671 133 660 q 158 711 121 711 q 221 632 221 711 m 179 994 q 194 994 179 994 q 229 977 210 994 q 249 929 249 960 q 223 875 249 899 q 165 851 197 851 q 113 870 133 851 q 93 920 93 889 q 121 973 93 951 q 179 994 149 994 z "},"k":{"ha":710,"x_min":101,"x_max":667,"o":"m 221 969 l 221 397 q 457 547 378 465 q 536 711 536 629 q 591 692 571 711 q 611 636 611 672 q 524 497 611 568 q 303 382 436 426 q 483 171 413 240 q 587 87 553 101 q 667 72 621 72 q 649 14 667 39 q 599 -11 632 -11 q 478 51 538 -11 q 221 368 418 114 l 221 71 q 253 29 221 40 q 194 -11 231 -11 q 133 68 133 -11 l 133 964 q 101 1008 133 994 q 158 1047 118 1047 q 221 969 221 1047 z "},"l":{"ha":353,"x_min":101,"x_max":253,"o":"m 221 969 l 221 71 q 253 29 221 40 q 194 -11 231 -11 q 133 68 133 -11 l 133 964 q 101 1008 133 994 q 158 1047 118 1047 q 221 969 221 1047 z "},"m":{"ha":1275,"x_min":101,"x_max":1176,"o":"m 1144 475 l 1144 71 q 1176 29 1144 40 q 1118 -11 1156 -11 q 1056 68 1056 -11 l 1056 474 q 918 631 1056 631 q 775 569 843 631 q 682 408 707 508 l 682 71 q 715 29 682 39 q 656 -11 693 -11 q 594 68 594 -11 l 594 474 q 457 631 594 631 q 315 570 382 631 q 221 413 247 510 l 221 71 q 253 29 221 40 q 194 -11 231 -11 q 133 68 133 -11 l 133 628 q 101 671 133 660 q 158 711 121 711 q 221 632 221 711 l 221 536 q 324 661 257 611 q 475 711 390 711 q 614 665 560 711 q 679 525 668 618 q 780 657 711 603 q 940 711 849 711 q 1088 652 1032 711 q 1144 475 1144 593 z "},"n":{"ha":810,"x_min":101,"x_max":715,"o":"m 682 475 l 682 71 q 715 29 682 39 q 656 -11 693 -11 q 594 68 594 -11 l 594 474 q 457 631 594 631 q 315 570 382 631 q 221 413 247 510 l 221 71 q 253 29 221 40 q 194 -11 231 -11 q 133 68 133 -11 l 133 628 q 101 671 133 660 q 158 711 121 711 q 221 632 221 711 l 221 536 q 324 661 257 611 q 481 711 390 711 q 626 652 571 711 q 682 475 682 593 z "},"o":{"ha":785,"x_min":69,"x_max":717,"o":"m 556 566 q 522 603 556 566 q 384 640 488 640 q 221 572 281 640 q 161 374 161 504 q 231 134 161 210 q 405 58 301 58 q 567 128 508 58 q 625 326 625 197 q 556 566 625 492 m 166 617 q 214 664 166 617 q 394 711 263 711 q 622 615 526 711 q 717 349 717 519 q 622 84 717 179 q 394 -11 526 -11 q 166 84 263 -11 q 69 351 69 179 q 166 617 69 522 z "},"p":{"ha":794,"x_min":101,"x_max":728,"o":"m 415 74 q 572 148 508 74 q 635 351 635 222 q 572 554 635 479 q 415 629 508 629 q 221 510 286 629 l 221 181 q 304 97 258 121 q 415 74 350 74 m 221 632 l 221 611 q 419 711 294 711 q 636 617 544 711 q 728 351 728 522 q 635 85 728 179 q 419 -10 543 -10 q 221 79 294 -10 l 221 -254 q 253 -297 221 -286 q 194 -337 231 -337 q 133 -257 133 -337 l 133 628 q 101 671 133 660 q 158 711 121 711 q 221 632 221 711 z "},"q":{"ha":779,"x_min":72,"x_max":689,"o":"m 568 444 q 523 583 568 532 q 404 635 478 635 q 236 556 304 635 q 168 340 168 476 q 236 134 168 204 q 394 64 304 64 q 492 86 453 64 q 568 157 532 108 l 568 444 m 657 711 l 657 -254 q 689 -297 657 -286 q 631 -337 667 -337 q 568 -257 568 -337 l 568 69 q 376 -11 492 -11 q 172 75 267 -11 q 100 185 128 117 q 72 339 72 254 q 165 609 72 507 q 385 711 257 711 q 568 600 513 711 l 568 628 q 585 690 568 668 q 632 711 603 711 l 657 711 z "},"r":{"ha":558,"x_min":101,"x_max":551,"o":"m 221 632 l 221 561 q 300 672 249 633 q 417 711 351 711 q 517 680 483 711 q 551 610 551 649 q 532 553 551 572 q 492 535 513 535 q 454 540 471 535 q 457 578 457 554 q 388 646 457 646 q 290 597 339 646 q 221 443 240 547 l 221 71 q 253 29 221 40 q 194 -11 231 -11 q 133 68 133 -11 l 133 628 q 101 671 133 660 q 158 711 121 711 q 221 632 221 711 z "},"s":{"ha":689,"x_min":83,"x_max":603,"o":"m 596 576 q 574 531 596 547 q 526 514 553 514 q 482 525 500 514 q 490 567 490 539 q 456 620 490 594 q 350 646 421 646 q 238 615 279 646 q 197 542 197 583 q 239 469 197 501 q 340 411 281 438 q 460 355 400 385 q 561 281 519 325 q 603 182 603 236 q 529 47 603 106 q 340 -11 456 -11 q 154 33 225 -11 q 83 150 83 78 q 105 214 83 192 q 153 236 126 236 q 196 219 179 236 q 178 161 178 190 q 218 83 178 113 q 337 54 258 54 q 463 88 415 54 q 510 172 510 122 q 469 255 510 221 q 369 314 428 289 q 251 365 310 339 q 151 431 192 390 q 110 524 110 471 q 178 658 110 606 q 347 711 246 711 q 522 674 447 711 q 596 576 596 638 z "},"t":{"ha":539,"x_min":15,"x_max":499,"o":"m 221 622 l 221 165 q 242 90 221 113 q 311 68 263 68 q 481 142 401 68 q 499 107 499 128 q 440 26 499 63 q 293 -11 382 -11 q 132 167 132 -11 l 132 622 q 15 672 15 626 q 29 706 15 693 q 106 699 74 699 l 132 699 l 132 829 q 100 874 132 860 q 158 913 121 913 q 221 833 221 913 l 221 699 l 460 699 q 465 676 465 689 q 242 622 465 622 l 221 622 z "},"u":{"ha":810,"x_min":101,"x_max":715,"o":"m 682 632 l 682 71 q 715 29 682 39 q 656 -11 693 -11 q 594 68 594 -11 l 594 125 q 361 -11 515 -11 q 133 224 133 -11 l 133 628 q 101 671 133 660 q 158 711 121 711 q 221 632 221 711 l 221 228 q 256 110 221 151 q 369 69 290 69 q 506 113 447 69 q 594 235 564 157 l 594 628 q 563 671 594 660 q 622 711 586 711 q 682 632 682 711 z "},"v":{"ha":683,"x_min":15,"x_max":654,"o":"m 558 585 q 569 640 569 611 q 551 688 569 669 q 601 711 578 711 q 639 694 624 711 q 654 652 654 678 q 640 592 654 626 l 428 67 q 393 6 410 24 q 347 -11 376 -11 q 299 8 317 -11 q 265 67 281 26 l 74 611 q 21 650 57 650 q 17 650 19 650 q 33 694 15 678 q 78 711 51 711 q 161 629 133 711 l 350 56 l 558 585 z "},"w":{"ha":993,"x_min":14,"x_max":971,"o":"m 882 597 q 889 649 889 622 q 868 694 889 676 q 918 711 894 711 q 971 650 971 711 q 961 588 971 625 l 822 67 q 741 -11 801 -11 q 658 67 681 -11 l 514 592 l 378 67 q 294 -11 357 -11 q 215 67 232 -11 l 72 613 q 25 650 64 650 q 17 650 21 650 q 33 694 14 676 q 78 711 51 711 q 161 631 139 711 l 301 56 l 454 639 q 525 711 474 711 q 567 694 551 711 q 594 639 583 678 l 746 43 l 882 597 z "},"x":{"ha":674,"x_min":35,"x_max":653,"o":"m 568 -11 q 525 3 544 -11 q 478 58 506 18 l 328 274 l 175 61 q 88 -11 126 -11 q 51 4 67 -11 q 35 44 35 19 q 103 94 71 53 l 285 335 l 124 567 q 35 658 69 647 q 53 697 38 682 q 89 711 68 711 q 172 651 132 711 l 340 407 l 521 651 q 597 711 564 711 q 636 696 619 711 q 653 657 653 681 q 582 604 607 642 l 385 343 l 549 106 q 606 47 574 67 q 640 28 618 40 q 568 -11 611 -11 z "},"y":{"ha":713,"x_min":53,"x_max":697,"o":"m 590 600 q 599 647 599 622 q 579 692 599 671 q 638 711 606 711 q 688 681 669 711 q 697 644 697 665 q 688 594 697 622 l 392 -167 q 215 -337 324 -337 q 156 -319 176 -337 q 136 -269 136 -300 q 157 -222 136 -239 q 215 -249 178 -249 q 272 -229 253 -249 q 311 -156 292 -210 l 364 -11 q 360 -11 361 -11 q 299 38 315 -11 l 92 628 q 53 681 79 669 q 110 711 68 711 q 179 639 156 711 l 385 44 l 590 600 z "},"z":{"ha":707,"x_min":94,"x_max":632,"o":"m 632 60 q 460 0 632 0 l 167 0 q 116 18 135 0 q 97 65 97 36 q 135 138 97 94 l 550 639 q 267 617 375 617 q 94 682 94 617 q 117 721 94 704 q 258 699 165 699 l 561 699 q 612 681 593 699 q 631 634 631 664 q 592 560 631 604 l 183 64 l 469 74 q 608 111 561 75 q 632 60 632 92 z "},"{":{"ha":458,"x_min":75,"x_max":388,"o":"m 251 246 l 231 -121 q 274 -247 231 -201 q 388 -297 318 -292 q 321 -325 363 -325 q 200 -263 256 -325 q 144 -76 144 -201 q 154 69 144 -43 q 164 231 164 182 q 150 313 164 279 q 119 360 136 347 q 89 386 103 374 q 75 407 75 399 q 89 427 75 415 q 119 452 103 439 q 150 499 136 465 q 164 581 164 532 q 154 735 164 629 q 144 868 144 840 q 200 1056 144 994 q 321 1118 256 1118 q 388 1090 360 1118 q 274 1040 318 1086 q 231 913 231 993 l 251 568 q 142 406 251 461 q 251 246 251 346 z "},"|":{"ha":351,"x_min":96,"x_max":249,"o":"m 217 1126 l 217 -137 q 249 -179 217 -168 q 189 -219 226 -219 q 128 -140 128 -219 l 128 1122 q 96 1165 128 1153 q 154 1204 115 1204 q 217 1126 217 1204 z "},"}":{"ha":458,"x_min":75,"x_max":388,"o":"m 211 568 l 231 913 q 187 1040 231 993 q 75 1090 143 1086 q 142 1118 103 1118 q 262 1056 207 1118 q 317 868 317 994 q 308 735 317 840 q 299 581 299 629 q 313 499 299 532 q 343 452 326 465 q 374 427 360 439 q 388 407 388 415 q 374 386 388 399 q 343 360 360 374 q 313 313 326 347 q 299 231 299 279 q 308 69 299 182 q 317 -76 317 -43 q 262 -263 317 -201 q 142 -325 207 -325 q 75 -297 100 -325 q 187 -246 143 -292 q 231 -121 231 -200 l 211 246 q 304 397 211 339 q 321 406 310 400 q 211 568 211 461 z "},"~":{"ha":950,"x_min":156,"x_max":747,"o":"m 628 565 q 718 640 711 565 q 747 587 747 626 q 713 518 747 547 q 630 489 679 489 q 444 525 581 489 q 275 561 307 561 q 185 488 192 561 q 156 538 156 496 q 190 608 156 579 q 277 638 224 638 q 467 601 331 638 q 628 565 604 565 z "},"¡":{"ha":449,"x_min":151,"x_max":294,"o":"m 215 -337 q 169 -249 169 -337 l 179 422 q 228 504 183 504 q 263 483 249 504 q 247 388 247 451 q 247 367 247 378 l 265 -249 q 215 -337 265 -337 m 215 618 q 201 618 215 618 q 169 635 186 618 q 151 681 151 651 q 177 736 151 711 q 233 761 203 761 q 278 744 263 761 q 294 697 294 728 q 269 642 294 667 q 215 618 244 618 z "},"¢":{"ha":669,"x_min":69,"x_max":601,"o":"m 407 711 l 421 711 q 553 674 506 711 q 601 588 601 638 q 585 542 601 558 q 547 525 568 525 q 514 529 526 525 q 518 558 518 539 q 403 644 518 644 q 236 567 310 644 q 163 349 163 489 q 228 140 163 210 q 386 71 293 71 q 578 140 504 71 q 592 106 592 126 q 528 31 592 69 q 385 -11 465 -8 l 385 -111 q 417 -153 385 -139 q 358 -193 397 -193 q 296 -114 296 -193 l 296 0 q 134 108 199 26 q 69 326 69 190 q 140 561 69 461 q 319 696 210 661 l 319 810 q 288 853 319 842 q 346 893 311 893 q 407 813 407 893 l 407 711 z "},"£":{"ha":817,"x_min":63,"x_max":801,"o":"m 149 544 l 281 544 q 274 721 274 663 q 348 923 274 846 q 506 1000 422 1000 q 644 951 590 1000 q 697 846 697 903 q 646 775 697 789 q 595 885 632 836 q 494 933 558 933 q 394 886 429 933 q 358 751 358 839 q 365 544 358 722 l 624 544 q 626 525 626 533 q 539 464 626 464 l 368 464 l 368 410 q 344 219 368 300 q 288 118 321 138 q 465 91 338 114 q 663 68 593 68 q 793 118 732 68 q 801 92 801 113 q 760 22 801 54 q 648 -11 718 -11 q 433 12 578 -11 q 217 35 289 35 q 90 -10 146 35 q 82 24 82 0 q 113 78 82 49 q 199 117 143 108 q 241 157 225 136 q 271 233 257 178 q 285 367 285 288 q 282 464 285 447 l 68 464 q 63 485 63 481 q 149 544 63 544 z "},"¤":{"ha":843,"x_min":103,"x_max":740,"o":"m 297 367 q 326 339 297 367 q 438 310 356 310 q 564 358 519 310 q 608 494 608 407 q 607 526 608 510 q 542 689 597 636 q 406 742 488 742 q 281 693 325 742 q 238 558 238 644 q 297 367 238 425 m 740 256 q 698 222 728 222 q 632 258 668 222 l 583 303 q 423 251 515 251 q 258 304 331 251 l 211 258 q 150 224 175 224 q 108 243 125 224 l 103 256 l 207 357 q 157 520 157 428 q 196 679 157 613 l 103 774 l 108 788 q 150 807 125 807 q 213 769 175 807 l 244 736 q 422 800 317 800 q 599 736 526 800 l 629 769 q 692 807 667 807 q 735 788 718 807 q 740 774 739 774 l 646 679 q 685 521 685 617 q 636 357 685 425 l 740 256 z "},"¥":{"ha":822,"x_min":25,"x_max":765,"o":"m 653 913 q 671 958 671 940 q 660 988 671 976 q 719 1000 681 1000 q 765 953 765 1000 q 750 903 765 936 l 504 529 l 711 529 q 715 508 715 513 q 618 450 715 450 l 453 450 l 449 444 l 449 340 l 711 340 q 715 319 715 324 q 688 275 715 290 q 618 260 661 260 l 449 260 l 447 71 q 472 11 447 32 q 419 -11 450 -11 q 358 75 358 -11 l 360 260 l 96 260 q 92 281 92 272 q 189 340 92 340 l 360 340 l 360 440 l 354 450 l 96 450 q 92 469 92 458 q 189 529 92 529 l 310 529 l 107 892 q 25 943 74 942 q 52 985 32 969 q 96 1000 72 1000 q 179 944 149 1000 l 410 522 l 653 913 z "},"¦":{"ha":351,"x_min":100,"x_max":251,"o":"m 219 354 l 219 -4 q 251 -46 219 -35 q 193 -86 229 -86 q 132 -7 132 -86 l 132 350 q 100 393 132 382 q 158 433 119 433 q 219 354 219 433 m 219 1064 l 219 707 q 251 664 219 676 q 193 625 229 625 q 132 703 132 625 l 132 1061 q 100 1103 132 1092 q 158 1143 119 1143 q 219 1064 219 1143 z "},"§":{"ha":872,"x_min":121,"x_max":746,"o":"m 340 414 q 260 363 290 401 q 231 263 231 324 q 283 151 231 203 q 412 65 336 100 q 564 -8 488 29 q 693 -99 640 -44 q 746 -224 746 -153 q 651 -426 746 -343 q 424 -508 556 -508 q 207 -440 293 -508 q 121 -267 121 -372 q 140 -202 121 -228 q 192 -176 160 -176 q 238 -204 224 -176 q 210 -276 210 -242 q 265 -387 210 -343 q 418 -432 321 -432 q 590 -376 515 -432 q 664 -239 664 -319 q 611 -135 664 -181 q 483 -56 558 -89 q 331 15 407 -22 q 201 115 254 53 q 149 255 149 176 q 189 381 149 333 q 283 429 229 429 q 340 414 314 429 m 441 1000 q 500 1000 441 1000 q 635 942 558 1000 q 711 808 711 885 q 651 732 711 732 q 621 738 633 732 q 625 775 625 758 q 573 878 625 831 q 430 926 521 926 q 285 883 339 926 q 231 770 231 839 q 269 654 231 701 q 364 577 307 607 q 488 513 421 547 q 613 447 556 479 q 708 363 669 415 q 746 249 746 311 q 701 130 746 186 q 600 74 656 74 q 528 90 561 74 q 626 147 588 100 q 664 247 664 193 q 626 340 664 300 q 531 406 588 381 q 406 465 474 432 q 282 532 339 499 q 187 622 225 565 q 149 749 149 678 q 236 928 149 857 q 441 1000 324 1000 z "},"¨":{"ha":351,"x_min":17,"x_max":335,"o":"m 88 951 q 101 951 88 951 q 128 936 114 951 q 143 895 143 921 q 121 847 143 869 q 73 824 99 824 q 32 839 47 824 q 17 881 17 854 q 40 929 17 907 q 88 951 63 951 m 280 951 q 293 951 280 951 q 320 936 306 951 q 335 895 335 921 q 313 847 335 869 q 265 824 290 824 q 224 839 239 824 q 208 881 208 854 q 231 929 208 907 q 280 951 254 951 z "},"©":{"ha":1207,"x_min":100,"x_max":1107,"o":"m 735 651 l 738 667 q 706 739 738 710 q 615 768 674 768 q 461 688 515 768 q 407 488 407 607 q 467 303 407 368 q 626 238 526 238 q 797 333 725 238 q 815 303 815 326 q 749 215 815 263 q 596 167 683 167 q 403 255 482 167 q 324 481 324 343 q 413 726 324 619 q 629 833 503 833 q 764 794 711 833 q 817 700 817 754 q 801 663 817 678 q 772 649 786 649 q 735 651 757 649 m 291 808 q 232 743 291 808 q 174 490 174 678 q 290 176 174 303 q 602 49 407 49 q 915 176 797 49 q 1033 492 1033 304 q 916 809 1033 679 q 603 939 799 939 q 291 808 408 939 m 603 999 q 711 999 603 999 q 963 853 819 999 q 1107 490 1107 708 q 964 130 1107 271 q 603 -11 821 -11 q 243 131 386 -11 q 100 490 100 272 q 244 853 100 708 q 603 999 388 999 z "},"ª":{"ha":717,"x_min":81,"x_max":647,"o":"m 175 174 q 294 67 175 67 q 493 172 414 67 l 493 346 q 253 290 332 338 q 175 174 175 243 m 582 494 l 582 111 q 647 36 582 39 q 585 -11 629 -11 q 493 107 493 -11 q 274 -11 413 -11 q 135 36 190 -11 q 81 165 81 83 q 182 331 81 268 q 493 400 283 393 l 493 471 q 460 613 493 568 q 351 658 426 658 q 240 629 276 658 q 204 565 204 600 q 222 511 204 529 q 172 496 199 496 q 127 513 146 496 q 108 560 108 529 q 178 667 108 622 q 353 711 247 711 q 520 652 458 711 q 582 494 582 593 z "},"«":{"ha":861,"x_min":124,"x_max":738,"o":"m 253 561 q 432 243 253 431 q 394 214 419 214 q 304 278 369 214 q 181 427 239 342 q 124 562 124 513 q 181 697 124 611 q 304 847 239 782 q 394 911 369 911 q 432 882 419 911 q 297 708 340 783 q 253 561 253 633 m 558 561 q 738 243 558 433 q 700 214 725 214 q 610 278 675 214 q 487 427 544 342 q 429 562 429 513 q 487 697 429 611 q 610 847 544 782 q 700 911 675 911 q 738 882 725 911 q 602 708 646 783 q 558 561 558 632 z "},"¬":{"ha":983,"x_min":85,"x_max":896,"o":"m 864 569 l 864 410 q 896 367 864 379 q 838 328 876 328 q 776 406 776 328 l 776 549 q 749 571 776 571 l 90 571 q 85 590 85 582 q 169 639 85 639 l 794 639 q 847 622 831 639 q 864 569 864 606 z "},"®":{"ha":933,"x_min":101,"x_max":832,"o":"m 392 956 l 392 776 l 458 776 q 569 866 569 776 q 458 956 569 956 l 392 956 m 650 551 q 653 551 651 551 q 606 522 640 522 q 542 563 571 522 l 422 726 l 392 726 l 392 563 q 408 540 392 544 q 367 522 394 522 q 329 561 329 522 l 329 961 q 317 982 329 974 q 367 1004 331 1004 l 457 1004 q 590 965 542 1004 q 638 869 638 926 q 600 775 638 813 q 494 729 563 738 l 615 571 q 650 551 628 551 m 239 522 q 282 474 239 522 q 467 426 325 426 q 694 522 608 426 q 781 757 781 618 q 695 990 781 896 q 468 1085 610 1085 q 240 990 326 1085 q 153 756 153 894 q 239 522 153 617 m 205 1025 q 257 1077 205 1025 q 467 1129 308 1129 q 728 1025 625 1129 q 832 756 832 921 q 728 487 832 590 q 467 383 625 383 q 205 487 308 383 q 101 756 101 590 q 205 1025 101 921 z "},"¯":{"ha":474,"x_min":17,"x_max":457,"o":"m 79 904 l 451 904 q 457 886 457 899 q 393 839 457 839 l 22 839 q 17 857 17 844 q 79 904 17 904 z "},"°":{"ha":486,"x_min":81,"x_max":471,"o":"m 81 947 q 81 988 81 947 q 138 1083 81 1029 q 278 1138 194 1138 q 417 1085 363 1138 q 471 950 471 1033 q 415 813 471 867 q 275 758 360 758 q 135 811 190 758 q 81 947 81 864 m 146 951 q 146 923 146 951 q 184 855 146 894 q 278 815 222 815 q 370 852 335 815 q 406 947 406 889 q 369 1042 406 1004 q 275 1081 332 1081 q 182 1044 218 1081 q 146 951 146 1008 z "},"±":{"ha":989,"x_min":139,"x_max":849,"o":"m 526 613 l 531 414 q 476 333 531 333 q 457 338 474 333 l 463 613 l 144 608 q 139 628 139 614 q 221 682 139 682 q 463 676 333 676 q 457 846 458 804 q 511 926 457 926 q 531 922 518 926 l 526 676 l 844 682 q 849 661 849 674 q 768 608 849 608 q 526 613 583 611 m 150 153 l 144 172 q 224 226 144 226 l 843 226 q 847 208 847 218 q 768 153 847 153 l 150 153 z "},"²":{"ha":500,"x_min":49,"x_max":461,"o":"m 351 425 l 107 425 q 67 438 83 425 q 51 468 51 451 q 283 693 218 608 q 349 840 349 778 q 319 929 349 903 q 239 956 290 956 q 157 934 188 956 q 126 878 126 913 q 150 825 126 844 q 106 810 129 810 q 65 828 82 810 q 49 875 49 847 q 101 967 49 926 q 235 1007 154 1007 q 372 961 317 1007 q 426 853 426 915 q 394 737 426 790 q 314 636 363 683 q 144 478 244 565 q 349 485 238 485 q 461 442 461 485 q 442 414 461 424 q 351 425 408 425 z "},"³":{"ha":550,"x_min":69,"x_max":482,"o":"m 294 1000 q 326 1000 294 1000 q 403 968 358 1000 q 449 887 449 936 q 399 799 449 838 q 279 743 350 760 q 424 694 367 739 q 482 580 482 650 q 421 467 482 510 q 276 425 360 425 q 131 455 193 425 q 69 526 69 485 q 104 558 69 550 q 289 474 154 474 q 365 498 335 474 q 394 568 394 522 q 348 672 394 638 q 225 706 301 706 q 164 697 203 706 q 153 713 153 701 q 264 779 153 746 q 342 815 307 792 q 376 871 376 838 q 346 922 376 904 q 261 940 315 940 q 138 897 207 940 q 119 921 119 897 q 175 970 119 940 q 294 1000 231 1000 z "},"´":{"ha":332,"x_min":17,"x_max":318,"o":"m 318 808 q 295 789 313 789 q 253 806 278 789 l 99 928 q 51 944 75 944 l 21 938 q 17 967 17 951 q 29 1001 17 983 q 82 1026 44 1026 q 163 983 119 1026 l 318 808 z "},"µ":{"ha":817,"x_min":101,"x_max":715,"o":"m 682 632 l 682 71 q 715 29 682 39 q 656 -11 693 -11 q 594 68 594 -11 l 594 125 q 499 27 560 65 q 354 -11 439 -11 q 221 36 269 -11 l 221 -147 q 253 -192 221 -179 q 194 -232 231 -232 q 133 -153 133 -232 l 133 628 q 101 671 133 660 q 158 711 121 711 q 221 632 221 711 l 221 228 q 256 110 221 151 q 369 69 290 69 q 506 113 447 69 q 594 235 564 157 l 594 628 q 563 671 594 660 q 622 711 586 711 q 682 632 682 711 z "},"¶":{"ha":889,"x_min":85,"x_max":685,"o":"m 351 989 l 685 989 q 678 871 678 942 l 678 0 q 650 -3 661 -3 q 590 65 590 -3 l 590 833 q 594 903 590 875 l 517 903 q 478 892 489 903 q 468 854 468 881 l 468 0 q 439 -3 449 -3 q 381 65 381 -3 l 381 383 l 351 383 q 157 467 229 383 q 85 687 85 551 q 157 906 85 822 q 351 989 229 989 z "},"·":{"ha":606,"x_min":224,"x_max":381,"o":"m 313 638 q 328 638 313 638 q 363 619 344 638 q 381 568 381 600 q 353 508 381 536 q 292 481 325 481 q 242 499 260 481 q 224 549 224 518 q 252 609 224 581 q 313 638 281 638 z "},"¸":{"ha":429,"x_min":24,"x_max":414,"o":"m 268 -96 q 371 -124 328 -96 q 414 -205 414 -153 q 360 -297 414 -257 q 222 -337 307 -337 q 80 -304 136 -337 q 24 -232 24 -271 q 38 -201 24 -215 q 206 -269 108 -269 q 322 -200 322 -269 q 235 -147 322 -147 l 208 -147 q 175 -121 175 -147 q 181 -94 175 -110 l 231 46 l 296 46 l 246 -97 q 268 -96 253 -96 z "},"¹":{"ha":225,"x_min":15,"x_max":211,"o":"m 192 932 l 192 461 q 211 436 192 443 q 172 414 196 414 q 135 460 135 414 l 135 925 q 101 953 135 953 q 25 932 67 953 q 15 947 15 932 q 49 981 15 961 q 119 1000 83 1000 q 173 981 154 1000 q 192 932 192 963 z "},"º":{"ha":557,"x_min":68,"x_max":488,"o":"m 372 904 q 350 925 372 904 q 267 946 328 946 q 174 910 207 946 q 142 811 142 875 q 143 790 142 801 q 190 675 150 713 q 291 638 231 638 q 384 672 351 638 q 417 769 417 707 q 372 904 417 863 m 68 791 q 68 841 68 791 q 131 945 68 890 q 280 1000 194 1000 q 426 945 365 1000 q 488 791 488 890 q 426 637 488 692 q 280 582 365 582 q 131 637 194 582 q 68 791 68 692 z "},"»":{"ha":861,"x_min":124,"x_max":738,"o":"m 557 847 q 590 814 557 847 q 680 697 622 782 q 738 562 738 611 q 680 427 738 513 q 557 278 622 342 q 467 214 492 214 q 443 224 454 214 q 429 243 432 233 q 607 561 607 429 q 563 709 607 633 q 429 882 519 785 q 443 901 432 892 q 467 911 454 911 q 557 847 492 911 m 251 847 q 284 814 251 847 q 374 697 317 782 q 432 562 432 611 q 374 427 432 513 q 251 278 317 342 q 161 214 186 214 q 138 224 149 214 q 124 243 126 233 q 301 561 301 429 q 258 709 301 633 q 124 882 214 785 q 138 901 126 892 q 161 911 149 911 q 251 847 186 911 z "},"¼":{"ha":911,"x_min":51,"x_max":875,"o":"m 161 454 l 161 919 q 125 951 161 951 q 64 928 104 951 q 51 947 51 933 q 80 980 51 960 q 149 1000 108 1000 q 222 929 222 1000 l 222 456 q 246 431 222 439 q 206 407 233 407 q 161 454 161 407 m 654 964 q 701 1000 681 1000 q 735 978 722 1000 q 710 942 729 974 l 192 26 q 148 -11 171 -11 q 111 10 125 -11 q 136 47 115 14 l 654 964 m 538 182 l 722 182 l 722 489 q 713 503 722 503 q 648 445 696 503 q 558 313 600 388 q 515 201 515 239 q 538 182 515 182 m 785 182 l 806 182 q 863 197 846 182 q 875 169 875 185 q 859 144 875 154 q 818 133 843 133 l 785 133 l 785 43 q 808 17 785 25 q 765 -7 789 -7 q 722 40 722 -7 l 722 133 l 531 133 q 453 189 453 133 q 508 345 453 247 q 633 517 563 443 q 744 590 703 590 q 785 553 785 590 l 785 182 z "},"½":{"ha":993,"x_min":40,"x_max":932,"o":"m 150 454 l 150 919 q 114 951 150 951 q 51 928 92 951 q 40 946 40 932 q 69 980 40 960 q 136 1000 99 1000 q 193 981 174 1000 q 213 929 213 963 l 213 456 q 235 431 213 439 q 194 407 222 407 q 150 454 150 407 m 625 964 q 672 1000 651 1000 q 706 978 692 1000 q 681 942 700 974 l 163 26 q 118 -11 139 -11 q 82 10 97 -11 q 107 47 86 14 l 625 964 m 821 0 l 579 0 q 538 13 554 0 q 522 43 522 26 q 754 267 689 183 q 819 413 819 351 q 789 505 819 475 q 709 535 758 535 q 628 510 660 535 q 597 453 597 486 q 621 400 597 419 q 576 385 600 385 q 536 403 553 385 q 519 449 519 421 q 572 541 519 500 q 707 582 625 582 q 843 536 789 582 q 897 418 897 490 q 818 246 897 332 q 731 159 774 197 q 606 51 689 121 q 828 60 725 60 q 932 15 932 60 q 913 -11 932 -4 q 821 0 871 0 z "},"¾":{"ha":1061,"x_min":69,"x_max":1024,"o":"m 279 743 q 424 694 367 739 q 482 580 482 650 q 421 467 482 510 q 276 425 360 425 q 131 455 193 425 q 69 526 69 485 q 104 558 69 550 q 289 468 157 468 q 364 495 333 468 q 394 568 394 522 q 348 672 394 638 q 225 706 301 706 q 164 697 203 706 q 153 713 153 701 q 208 747 153 729 q 320 793 264 764 q 376 863 376 822 q 346 924 376 904 q 261 944 315 944 q 138 901 207 944 q 119 922 119 904 q 175 970 119 940 q 294 1000 231 1000 q 403 968 358 1000 q 449 887 449 936 q 399 799 449 838 q 279 743 350 760 m 825 964 q 869 1000 849 1000 q 904 979 889 1000 q 881 942 900 976 l 354 26 q 326 -8 335 -6 q 311 -11 318 -11 q 275 10 289 -11 q 288 28 278 14 q 300 47 297 43 l 825 964 m 686 182 l 871 182 l 871 489 q 861 503 871 503 q 749 382 833 503 q 664 201 664 261 q 686 182 664 182 m 935 182 l 954 182 q 1013 197 996 182 q 1024 171 1024 186 q 1008 144 1024 156 q 968 133 993 133 l 935 133 l 935 43 q 957 17 935 25 q 915 -7 940 -7 q 871 40 871 -7 l 871 133 l 679 133 q 603 189 603 133 q 659 338 603 240 q 785 513 715 436 q 895 590 856 590 q 935 553 935 590 l 935 182 z "},"¿":{"ha":664,"x_min":99,"x_max":568,"o":"m 263 140 q 281 156 263 140 q 326 210 300 172 q 353 288 353 249 q 334 349 353 328 q 282 372 315 371 q 301 415 283 399 q 352 431 318 431 q 418 399 386 431 q 450 318 450 368 q 424 221 450 268 q 360 138 397 174 q 283 64 322 101 q 193 -121 193 -24 q 235 -234 193 -183 q 344 -285 276 -285 q 449 -251 413 -285 q 485 -156 485 -218 q 390 -22 485 -61 q 449 6 396 6 q 535 -34 501 6 q 568 -148 568 -74 q 502 -280 568 -222 q 332 -337 436 -337 q 163 -276 228 -337 q 99 -141 99 -215 q 125 -14 99 -67 q 188 74 151 39 q 263 140 225 108 m 324 574 q 309 574 324 574 q 277 591 294 574 q 260 639 260 608 q 286 696 260 669 q 342 722 313 722 q 390 704 372 722 q 407 656 407 686 q 380 600 407 626 q 324 574 353 574 z "},"À":{"ha":849,"x_min":25,"x_max":825,"o":"m 406 1096 l 536 1289 q 611 1346 574 1346 q 682 1274 682 1346 q 682 1264 682 1269 q 650 1267 671 1267 q 606 1243 629 1267 l 468 1101 q 428 1078 443 1078 q 406 1096 413 1078 m 246 317 l 611 317 l 440 840 l 246 317 m 783 69 q 825 13 797 26 q 776 -11 808 -11 q 727 5 744 -11 q 697 61 710 21 l 635 246 l 218 246 l 153 79 q 115 10 133 32 q 69 -11 97 -11 q 25 29 42 -11 q 69 83 53 40 l 407 931 q 376 982 394 964 q 429 1000 406 1000 q 492 933 469 1000 l 783 69 z "},"Á":{"ha":849,"x_min":25,"x_max":825,"o":"m 522 1099 q 499 1078 517 1078 q 457 1096 482 1078 l 303 1218 q 256 1235 279 1235 l 225 1228 q 221 1258 221 1242 q 233 1292 221 1274 q 286 1317 249 1317 q 367 1274 324 1317 l 522 1099 m 246 317 l 611 317 l 440 840 l 246 317 m 783 69 q 825 13 797 26 q 776 -11 808 -11 q 727 5 744 -11 q 697 61 710 21 l 635 246 l 218 246 l 153 79 q 115 10 133 32 q 69 -11 97 -11 q 25 29 42 -11 q 69 83 53 40 l 407 931 q 376 982 394 964 q 429 1000 406 1000 q 492 933 469 1000 l 783 69 z "},"Â":{"ha":849,"x_min":25,"x_max":825,"o":"m 339 1101 q 294 1079 317 1079 q 269 1096 272 1079 l 360 1238 q 398 1283 379 1269 q 443 1297 417 1297 q 525 1238 488 1297 l 615 1096 q 590 1079 613 1079 q 546 1101 568 1079 l 443 1213 l 339 1101 m 246 317 l 611 317 l 440 840 l 246 317 m 825 13 q 776 -11 808 -11 q 727 5 744 -11 q 697 61 710 21 l 635 246 l 218 246 l 153 79 q 115 10 133 32 q 69 -11 97 -11 q 25 29 42 -11 q 69 83 53 40 l 407 931 q 376 982 394 964 q 429 1000 406 1000 q 492 933 469 1000 l 783 69 q 825 13 797 26 z "},"Ã":{"ha":849,"x_min":25,"x_max":825,"o":"m 288 1103 q 258 1153 258 1114 q 292 1224 258 1193 q 372 1256 325 1256 q 474 1219 418 1256 q 557 1182 529 1182 q 603 1201 585 1182 q 626 1256 622 1221 q 654 1203 654 1242 q 621 1133 654 1164 q 544 1101 588 1101 q 444 1139 500 1101 q 360 1176 389 1176 q 311 1156 332 1176 q 288 1103 290 1136 m 246 317 l 611 317 l 440 840 l 246 317 m 825 13 q 776 -11 808 -11 q 727 5 744 -11 q 697 61 710 21 l 635 246 l 218 246 l 153 79 q 115 10 133 32 q 69 -11 97 -11 q 25 29 42 -11 q 69 83 53 40 l 407 931 q 376 982 394 964 q 429 1000 406 1000 q 492 933 469 1000 l 783 69 q 825 13 797 26 z "},"Ä":{"ha":849,"x_min":25,"x_max":825,"o":"m 603 1185 q 603 1173 603 1185 q 581 1137 603 1160 q 533 1114 558 1114 q 492 1129 507 1114 q 476 1171 476 1144 q 499 1219 476 1197 q 548 1242 522 1242 q 588 1226 574 1242 q 603 1185 603 1211 m 411 1185 q 411 1173 411 1185 q 389 1137 411 1160 q 341 1114 367 1114 q 300 1129 315 1114 q 285 1171 285 1144 q 308 1219 285 1197 q 356 1242 331 1242 q 397 1226 382 1242 q 411 1185 411 1211 m 246 317 l 611 317 l 440 840 l 246 317 m 825 13 q 776 -11 808 -11 q 727 5 744 -11 q 697 61 710 21 l 635 246 l 218 246 l 153 79 q 115 10 133 32 q 69 -11 97 -11 q 25 29 42 -11 q 69 83 53 40 l 407 931 q 376 982 394 964 q 429 1000 406 1000 q 492 933 469 1000 l 783 69 q 825 13 797 26 z "},"Å":{"ha":849,"x_min":25,"x_max":825,"o":"m 481 1242 q 473 1252 481 1242 q 439 1263 464 1263 q 400 1245 414 1263 q 386 1211 386 1228 q 388 1185 386 1194 q 406 1124 389 1144 q 446 1104 422 1104 q 501 1163 501 1104 q 500 1185 501 1174 q 481 1242 499 1222 m 543 1094 q 523 1077 543 1094 q 444 1061 503 1061 q 345 1094 386 1061 q 304 1184 304 1126 q 344 1273 304 1242 q 443 1304 385 1304 q 542 1272 501 1304 q 583 1183 583 1240 q 543 1094 583 1126 m 246 317 l 611 317 l 440 840 l 246 317 m 825 13 q 776 -11 808 -11 q 727 5 744 -11 q 697 61 710 21 l 635 246 l 218 246 l 153 79 q 115 10 133 32 q 69 -11 97 -11 q 25 29 42 -11 q 69 83 53 40 l 407 931 q 376 982 394 964 q 429 1000 406 1000 q 492 933 469 1000 l 783 69 q 825 13 797 26 z "},"Æ":{"ha":1288,"x_min":29,"x_max":1204,"o":"m 574 310 l 574 897 l 282 310 l 574 310 m 767 71 l 1063 71 q 1163 129 1135 71 q 1192 110 1181 125 q 1204 81 1204 96 q 1057 0 1204 0 l 769 0 q 621 39 668 0 q 574 171 574 78 l 574 238 l 246 238 l 154 54 q 124 6 138 19 q 90 -7 111 -7 q 29 33 54 -7 q 88 88 67 40 l 513 932 q 600 989 540 989 l 1081 989 q 1204 928 1204 989 q 1163 879 1204 889 q 1063 917 1135 917 l 663 917 l 663 543 l 983 543 q 1078 534 1050 543 q 1107 495 1107 525 q 1075 450 1107 465 q 975 471 1047 471 l 663 471 l 663 167 q 686 92 663 114 q 767 71 710 71 z "},"Ç":{"ha":918,"x_min":92,"x_max":817,"o":"m 92 467 q 227 853 92 707 q 556 1000 363 1000 q 742 953 668 1000 q 817 843 817 907 q 800 799 817 815 q 759 782 783 782 q 724 786 735 782 q 725 799 725 793 q 676 881 725 844 q 531 918 628 918 q 294 808 396 918 q 192 496 192 697 q 281 183 192 294 q 528 71 369 71 q 680 103 610 71 q 794 179 750 135 q 817 146 817 176 q 726 47 817 103 q 508 -11 635 -10 l 478 -97 q 500 -96 485 -96 q 603 -124 560 -96 q 646 -205 646 -153 q 592 -297 646 -257 q 453 -337 539 -337 q 312 -304 368 -337 q 256 -232 256 -271 q 269 -201 256 -215 q 438 -269 340 -269 q 554 -200 554 -269 q 467 -147 554 -147 l 440 -147 q 406 -121 406 -147 q 413 -94 406 -110 l 443 -7 q 191 145 290 17 q 92 467 92 274 z "},"È":{"ha":861,"x_min":117,"x_max":778,"o":"m 388 1096 l 518 1289 q 593 1346 556 1346 q 664 1274 664 1346 q 664 1264 664 1269 q 632 1267 653 1267 q 588 1243 611 1267 l 450 1101 q 410 1078 425 1078 q 388 1096 394 1078 m 340 71 l 636 71 q 738 129 710 71 q 766 110 754 125 q 778 81 778 96 q 631 0 778 0 l 343 0 q 196 39 243 0 q 149 167 149 78 l 149 897 q 117 942 149 929 q 224 989 146 989 l 656 989 q 778 928 778 989 q 738 879 778 889 q 636 917 707 917 l 238 917 l 238 543 l 558 543 q 653 534 625 543 q 682 495 682 525 q 650 450 682 465 q 549 471 619 471 l 238 471 l 238 164 q 261 92 238 114 q 340 71 285 71 z "},"É":{"ha":861,"x_min":117,"x_max":778,"o":"m 504 1099 q 481 1078 499 1078 q 439 1096 464 1078 l 285 1218 q 238 1235 261 1235 l 207 1228 q 203 1258 203 1242 q 215 1292 203 1274 q 268 1317 231 1317 q 349 1274 306 1317 l 504 1099 m 340 71 l 636 71 q 738 129 710 71 q 766 110 754 125 q 778 81 778 96 q 631 0 778 0 l 343 0 q 196 39 243 0 q 149 167 149 78 l 149 897 q 117 942 149 929 q 224 989 146 989 l 656 989 q 778 928 778 989 q 738 879 778 889 q 636 917 707 917 l 238 917 l 238 543 l 558 543 q 653 534 625 543 q 682 495 682 525 q 650 450 682 465 q 549 471 619 471 l 238 471 l 238 164 q 261 92 238 114 q 340 71 285 71 z "},"Ê":{"ha":861,"x_min":117,"x_max":778,"o":"m 322 1101 q 278 1079 300 1079 q 253 1096 256 1079 l 343 1238 q 381 1283 363 1269 q 426 1297 400 1297 q 508 1238 471 1297 l 599 1096 q 574 1079 596 1079 q 529 1101 551 1079 l 426 1213 l 322 1101 m 340 71 l 636 71 q 738 129 710 71 q 766 110 754 125 q 778 81 778 96 q 631 0 778 0 l 343 0 q 196 39 243 0 q 149 167 149 78 l 149 897 q 117 942 149 929 q 224 989 146 989 l 656 989 q 778 928 778 989 q 738 879 778 889 q 636 917 707 917 l 238 917 l 238 543 l 558 543 q 653 534 625 543 q 682 495 682 525 q 650 450 682 465 q 549 471 619 471 l 238 471 l 238 164 q 261 92 238 114 q 340 71 285 71 z "},"Ë":{"ha":861,"x_min":117,"x_max":778,"o":"m 586 1185 q 586 1173 586 1185 q 564 1137 586 1160 q 516 1114 542 1114 q 475 1129 490 1114 q 460 1171 460 1144 q 483 1219 460 1197 q 531 1242 506 1242 q 572 1226 557 1242 q 586 1185 586 1211 m 394 1185 q 394 1173 394 1185 q 372 1137 394 1160 q 324 1114 350 1114 q 283 1129 299 1114 q 268 1171 268 1144 q 291 1219 268 1197 q 340 1242 314 1242 q 380 1226 365 1242 q 394 1185 394 1211 m 340 71 l 636 71 q 738 129 710 71 q 766 110 754 125 q 778 81 778 96 q 631 0 778 0 l 343 0 q 196 39 243 0 q 149 167 149 78 l 149 897 q 117 942 149 929 q 224 989 146 989 l 656 989 q 778 928 778 989 q 738 879 778 889 q 636 917 707 917 l 238 917 l 238 543 l 558 543 q 653 534 625 543 q 682 495 682 525 q 650 450 682 465 q 549 471 619 471 l 238 471 l 238 164 q 261 92 238 114 q 340 71 285 71 z "},"Ì":{"ha":351,"x_min":96,"x_max":414,"o":"m 268 1289 q 343 1346 306 1346 q 414 1274 414 1346 q 414 1264 414 1269 q 382 1267 403 1267 q 338 1243 361 1267 l 200 1101 q 161 1078 175 1078 q 138 1096 144 1078 l 268 1289 m 217 921 l 217 71 q 249 29 217 40 q 189 -11 226 -11 q 128 68 128 -11 l 128 917 q 96 960 128 949 q 154 1000 117 1000 q 217 921 217 1000 z "},"Í":{"ha":351,"x_min":-47,"x_max":254,"o":"m 254 1099 q 231 1078 249 1078 q 189 1096 214 1078 l 35 1218 q -12 1235 11 1235 l -43 1228 q -47 1258 -47 1242 q -35 1292 -47 1274 q 18 1317 -19 1317 q 99 1274 56 1317 l 254 1099 m 217 921 l 217 71 q 249 29 217 40 q 189 -11 226 -11 q 128 68 128 -11 l 128 917 q 96 960 128 949 q 154 1000 117 1000 q 217 921 217 1000 z "},"Î":{"ha":351,"x_min":1,"x_max":347,"o":"m 217 921 l 217 71 q 249 29 217 40 q 189 -11 226 -11 q 128 68 128 -11 l 128 917 q 96 960 128 949 q 154 1000 117 1000 q 217 921 217 1000 m 347 1096 q 322 1079 344 1079 q 278 1101 300 1079 l 175 1213 l 71 1101 q 26 1079 49 1079 q 1 1096 4 1079 l 92 1238 q 130 1283 111 1269 q 175 1297 149 1297 q 257 1238 219 1297 l 347 1096 z "},"Ï":{"ha":351,"x_min":17,"x_max":335,"o":"m 280 1242 q 293 1242 280 1242 q 320 1226 306 1242 q 335 1185 335 1211 q 313 1137 335 1160 q 265 1114 290 1114 q 224 1129 239 1114 q 208 1171 208 1144 q 231 1219 208 1197 q 280 1242 254 1242 m 88 1242 q 101 1242 88 1242 q 128 1226 114 1242 q 143 1185 143 1211 q 121 1137 143 1160 q 73 1114 99 1114 q 32 1129 47 1114 q 17 1171 17 1144 q 40 1219 17 1197 q 88 1242 63 1242 m 217 921 l 217 71 q 249 29 217 40 q 189 -11 226 -11 q 128 68 128 -11 l 128 917 q 96 960 128 949 q 154 1000 117 1000 q 217 921 217 1000 z "},"Ð":{"ha":1013,"x_min":38,"x_max":922,"o":"m 230 96 q 234 88 230 96 q 277 69 238 81 q 401 58 317 58 q 558 84 485 58 q 691 160 631 110 q 788 296 751 210 q 824 492 824 382 q 788 688 824 603 q 692 824 751 774 q 403 925 568 925 q 226 904 301 925 l 225 538 l 522 538 q 526 515 526 521 q 429 457 526 457 l 224 457 l 222 146 q 230 96 222 111 m 118 957 q 403 1000 242 1000 q 692 925 564 1000 q 892 686 836 842 q 922 493 922 599 q 892 301 922 388 q 810 158 861 215 q 692 63 760 101 q 403 -11 563 -11 q 178 33 231 -11 q 141 81 150 57 q 132 142 132 106 l 133 457 l 43 457 q 38 476 38 465 q 133 538 38 538 l 135 899 q 118 957 135 939 z "},"Ñ":{"ha":1035,"x_min":118,"x_max":917,"o":"m 547 1219 q 575 1200 547 1219 q 631 1182 603 1182 q 677 1201 658 1182 q 700 1256 696 1221 q 728 1203 728 1242 q 694 1133 728 1164 q 617 1101 661 1101 q 518 1139 574 1101 q 434 1176 463 1176 q 385 1156 406 1176 q 361 1103 364 1136 q 332 1153 332 1114 q 365 1224 332 1193 q 445 1256 399 1256 q 547 1219 492 1256 m 150 68 l 150 917 q 118 960 150 949 q 176 1000 140 1000 q 238 980 213 1000 q 293 914 263 960 l 794 131 l 794 917 q 763 960 794 949 q 822 1000 783 1000 q 883 921 883 1000 l 883 71 q 891 44 883 53 q 917 31 899 36 q 856 -11 894 -11 q 742 78 803 -11 l 238 849 l 238 71 q 269 29 238 40 q 211 -11 250 -11 q 150 68 150 -11 z "},"Ò":{"ha":1057,"x_min":103,"x_max":954,"o":"m 622 1289 q 697 1346 660 1346 q 768 1274 768 1346 q 768 1264 768 1269 q 736 1267 757 1267 q 692 1243 715 1267 l 554 1101 q 515 1078 529 1078 q 492 1096 499 1078 l 622 1289 m 192 465 q 313 163 210 264 q 559 61 415 61 q 794 189 703 61 q 869 456 869 294 q 867 521 869 486 q 748 826 851 724 q 499 929 644 929 q 264 800 354 929 q 189 536 189 694 q 192 465 189 501 m 530 1000 q 624 1000 530 1000 q 836 865 718 1000 q 954 498 954 731 q 835 127 954 265 q 529 -11 717 -11 q 222 125 342 -11 q 103 494 103 261 q 222 863 103 726 q 530 1000 342 1000 z "},"Ó":{"ha":1057,"x_min":103,"x_max":954,"o":"m 192 465 q 313 163 210 264 q 559 61 415 61 q 794 189 703 61 q 869 456 869 294 q 867 521 869 486 q 748 826 851 724 q 499 929 644 929 q 264 800 354 929 q 189 536 189 694 q 192 465 189 501 m 530 1000 q 624 1000 530 1000 q 836 865 718 1000 q 954 498 954 731 q 835 127 954 265 q 529 -11 717 -11 q 222 125 342 -11 q 103 494 103 261 q 222 863 103 726 q 530 1000 342 1000 m 608 1099 q 585 1078 603 1078 q 543 1096 568 1078 l 389 1218 q 342 1235 365 1235 l 311 1228 q 307 1258 307 1242 q 319 1292 307 1274 q 372 1317 335 1317 q 453 1274 410 1317 l 608 1099 z "},"Ô":{"ha":1057,"x_min":103,"x_max":954,"o":"m 426 1101 q 382 1079 404 1079 q 357 1096 360 1079 l 447 1238 q 485 1283 467 1269 q 531 1297 504 1297 q 613 1238 575 1297 l 703 1096 q 678 1079 700 1079 q 633 1101 656 1079 l 531 1213 l 426 1101 m 192 465 q 313 163 210 264 q 559 61 415 61 q 794 189 703 61 q 869 456 869 294 q 867 521 869 486 q 748 826 851 724 q 499 929 644 929 q 264 800 354 929 q 189 536 189 694 q 192 465 189 501 m 103 494 q 103 610 103 494 q 222 863 103 726 q 530 1000 342 1000 q 836 865 718 1000 q 954 498 954 731 q 835 127 954 265 q 529 -11 717 -11 q 222 125 342 -11 q 103 494 103 261 z "},"Õ":{"ha":1057,"x_min":103,"x_max":954,"o":"m 560 1219 q 588 1200 560 1219 q 643 1182 615 1182 q 690 1201 671 1182 q 713 1256 708 1221 q 740 1203 740 1242 q 707 1133 740 1164 q 630 1101 674 1101 q 531 1139 586 1101 q 447 1176 475 1176 q 397 1156 418 1176 q 374 1103 376 1136 q 344 1153 344 1114 q 378 1224 344 1193 q 458 1256 411 1256 q 560 1219 504 1256 m 192 465 q 313 163 210 264 q 559 61 415 61 q 794 189 703 61 q 869 456 869 294 q 867 521 869 486 q 748 826 851 724 q 499 929 644 929 q 264 800 354 929 q 189 536 189 694 q 192 465 189 501 m 530 1000 q 624 1000 530 1000 q 836 865 718 1000 q 954 498 954 731 q 835 127 954 265 q 529 -11 717 -11 q 222 125 342 -11 q 103 494 103 261 q 222 863 103 726 q 530 1000 342 1000 z "},"Ö":{"ha":1057,"x_min":103,"x_max":954,"o":"m 192 465 q 313 163 210 264 q 559 61 415 61 q 794 189 703 61 q 869 456 869 294 q 867 521 869 486 q 748 826 851 724 q 499 929 644 929 q 264 800 354 929 q 189 536 189 694 q 192 465 189 501 m 530 1000 q 624 1000 530 1000 q 836 865 718 1000 q 954 498 954 731 q 835 127 954 265 q 529 -11 717 -11 q 222 125 342 -11 q 103 494 103 261 q 222 863 103 726 q 530 1000 342 1000 m 634 1242 q 647 1242 634 1242 q 674 1226 660 1242 q 689 1185 689 1211 q 667 1137 689 1160 q 619 1114 644 1114 q 578 1129 593 1114 q 563 1171 563 1144 q 585 1219 563 1197 q 634 1242 608 1242 m 442 1242 q 455 1242 442 1242 q 483 1226 468 1242 q 497 1185 497 1211 q 475 1137 497 1160 q 427 1114 453 1114 q 386 1129 401 1114 q 371 1171 371 1144 q 394 1219 371 1197 q 442 1242 417 1242 z "},"×":{"ha":847,"x_min":117,"x_max":731,"o":"m 731 301 q 683 267 715 267 q 628 285 651 267 q 565 346 604 303 l 417 504 l 239 299 q 174 254 200 254 q 139 271 149 254 l 376 546 l 117 826 q 181 863 140 863 q 242 835 214 863 q 265 810 247 829 q 290 783 282 792 l 439 619 l 611 815 q 676 863 653 863 q 713 846 700 863 l 479 578 l 731 301 z "},"Ø":{"ha":1051,"x_min":86,"x_max":971,"o":"m 311 164 q 556 61 408 61 q 794 189 703 61 q 869 456 869 294 q 792 771 869 650 l 311 164 m 747 826 q 502 929 650 929 q 264 800 354 929 q 189 536 189 694 q 267 221 189 344 l 747 826 m 851 846 q 954 488 954 710 q 835 127 954 265 q 541 -11 717 -11 q 254 93 365 -11 l 207 33 q 131 -11 168 -11 q 86 26 94 -11 q 167 94 129 49 l 207 144 q 103 504 103 282 q 222 863 103 726 q 531 1000 342 1000 q 804 897 693 1000 l 850 956 q 925 1000 888 1000 q 971 964 963 1000 q 889 894 929 944 l 851 846 z "},"Ù":{"ha":958,"x_min":111,"x_max":847,"o":"m 600 1289 q 675 1346 638 1346 q 746 1274 746 1346 q 746 1264 746 1269 q 714 1267 735 1267 q 669 1243 693 1267 l 532 1101 q 493 1078 507 1078 q 469 1096 476 1078 l 600 1289 m 143 356 l 143 917 q 111 960 143 949 q 169 1000 133 1000 q 231 921 231 1000 l 231 346 q 292 140 231 210 q 494 71 354 71 q 697 139 633 71 q 760 346 760 207 l 760 917 q 728 960 760 949 q 786 1000 747 1000 q 847 921 847 1000 l 847 356 q 762 88 847 185 q 497 -10 676 -10 q 231 88 318 -10 q 143 356 143 186 z "},"Ú":{"ha":958,"x_min":111,"x_max":847,"o":"m 143 356 l 143 917 q 111 960 143 949 q 169 1000 133 1000 q 231 921 231 1000 l 231 346 q 292 140 231 210 q 494 71 354 71 q 697 139 633 71 q 760 346 760 207 l 760 917 q 728 960 760 949 q 786 1000 747 1000 q 847 921 847 1000 l 847 356 q 762 88 847 185 q 497 -10 676 -10 q 231 88 318 -10 q 143 356 143 186 m 586 1099 q 563 1078 581 1078 q 521 1096 546 1078 l 367 1218 q 319 1235 343 1235 l 289 1228 q 285 1258 285 1242 q 297 1292 285 1274 q 350 1317 313 1317 q 431 1274 388 1317 l 586 1099 z "},"Û":{"ha":958,"x_min":111,"x_max":847,"o":"m 404 1101 q 360 1079 382 1079 q 335 1096 338 1079 l 425 1238 q 463 1283 444 1269 q 508 1297 482 1297 q 590 1238 553 1297 l 681 1096 q 656 1079 678 1079 q 611 1101 633 1079 l 508 1213 l 404 1101 m 760 346 l 760 917 q 728 960 760 949 q 786 1000 747 1000 q 847 921 847 1000 l 847 356 q 762 88 847 185 q 497 -10 676 -10 q 231 88 318 -10 q 143 356 143 186 l 143 917 q 111 960 143 949 q 169 1000 133 1000 q 231 921 231 1000 l 231 346 q 292 140 231 210 q 494 71 354 71 q 697 139 633 71 q 760 346 760 207 z "},"Ü":{"ha":958,"x_min":111,"x_max":847,"o":"m 143 356 l 143 917 q 111 960 143 949 q 169 1000 133 1000 q 231 921 231 1000 l 231 346 q 292 140 231 210 q 494 71 354 71 q 697 139 633 71 q 760 346 760 207 l 760 917 q 728 960 760 949 q 786 1000 747 1000 q 847 921 847 1000 l 847 356 q 762 88 847 185 q 497 -10 676 -10 q 231 88 318 -10 q 143 356 143 186 m 612 1242 q 625 1242 612 1242 q 652 1226 638 1242 q 667 1185 667 1211 q 644 1137 667 1160 q 597 1114 622 1114 q 556 1129 571 1114 q 540 1171 540 1144 q 563 1219 540 1197 q 612 1242 586 1242 m 420 1242 q 433 1242 420 1242 q 460 1226 446 1242 q 475 1185 475 1211 q 453 1137 475 1160 q 405 1114 431 1114 q 364 1129 379 1114 q 349 1171 349 1144 q 372 1219 349 1197 q 420 1242 394 1242 z "},"Ý":{"ha":806,"x_min":25,"x_max":765,"o":"m 510 1099 q 487 1078 504 1078 q 444 1096 469 1078 l 290 1218 q 243 1235 267 1235 l 213 1228 q 208 1258 208 1242 q 221 1292 208 1274 q 274 1317 236 1317 q 354 1274 311 1317 l 510 1099 m 419 -11 q 358 75 358 -11 l 360 440 l 107 892 q 25 943 74 942 q 52 985 32 969 q 96 1000 72 1000 q 179 944 149 1000 l 410 522 l 653 913 q 671 958 671 940 q 660 988 671 976 q 719 1000 681 1000 q 765 953 765 1000 q 750 903 765 936 l 449 444 l 447 71 q 472 11 447 32 q 419 -11 450 -11 z "},"Þ":{"ha":853,"x_min":96,"x_max":782,"o":"m 217 329 q 437 292 328 292 q 615 355 546 292 q 683 522 683 418 q 615 690 683 626 q 425 753 546 753 q 217 715 340 753 l 217 329 m 217 921 l 217 783 q 440 829 343 829 q 682 745 582 829 q 782 522 782 661 q 682 299 782 383 q 440 215 582 215 q 217 261 331 215 l 217 71 q 249 29 217 40 q 189 -11 226 -11 q 128 68 128 -11 l 128 917 q 96 960 128 949 q 154 1000 117 1000 q 217 921 217 1000 z "},"ß":{"ha":749,"x_min":97,"x_max":671,"o":"m 447 532 q 615 396 560 464 q 671 225 671 328 q 604 56 671 122 q 442 -11 538 -11 q 349 10 381 -11 q 317 60 317 31 q 322 78 317 68 q 408 54 358 54 q 531 103 483 54 q 578 225 578 153 q 541 351 578 297 q 418 465 504 406 q 392 483 407 472 q 369 499 378 493 q 350 512 361 504 q 333 524 339 519 q 322 533 328 529 q 311 549 311 542 q 335 576 311 556 q 386 620 358 596 q 438 690 414 644 q 461 799 461 736 q 419 908 461 863 q 322 954 378 954 q 186 754 186 954 l 186 71 q 218 29 186 40 q 160 -11 196 -11 q 97 68 97 -11 l 97 754 q 160 938 97 874 q 324 1003 224 1003 q 490 942 424 1003 q 557 792 557 882 q 396 561 557 644 l 447 532 z "},"à":{"ha":717,"x_min":81,"x_max":647,"o":"m 308 806 l 439 999 q 514 1056 476 1056 q 585 983 585 1056 q 585 974 585 979 q 553 976 574 976 q 508 953 532 976 l 371 811 q 331 788 346 788 q 308 806 315 788 m 175 174 q 294 67 175 67 q 493 172 414 67 l 493 346 q 253 290 332 338 q 175 174 175 243 m 582 494 l 582 111 q 647 36 582 39 q 585 -11 629 -11 q 493 107 493 -11 q 274 -11 413 -11 q 135 36 190 -11 q 81 165 81 83 q 182 331 81 268 q 493 400 283 393 l 493 471 q 460 613 493 568 q 351 658 426 658 q 240 629 276 658 q 204 565 204 600 q 222 511 204 529 q 172 496 199 496 q 127 513 146 496 q 108 560 108 529 q 178 667 108 622 q 353 711 247 711 q 520 652 458 711 q 582 494 582 593 z "},"á":{"ha":717,"x_min":81,"x_max":647,"o":"m 425 808 q 402 789 419 789 q 360 806 385 789 l 206 928 q 158 944 182 944 l 128 938 q 124 967 124 951 q 136 1001 124 983 q 189 1026 151 1026 q 269 983 226 1026 l 425 808 m 175 174 q 294 67 175 67 q 493 172 414 67 l 493 346 q 253 290 332 338 q 175 174 175 243 m 582 494 l 582 111 q 647 36 582 39 q 585 -11 629 -11 q 493 107 493 -11 q 274 -11 413 -11 q 135 36 190 -11 q 81 165 81 83 q 182 331 81 268 q 493 400 283 393 l 493 471 q 460 613 493 568 q 351 658 426 658 q 240 629 276 658 q 204 565 204 600 q 222 511 204 529 q 172 496 199 496 q 127 513 146 496 q 108 560 108 529 q 178 667 108 622 q 353 711 247 711 q 520 652 458 711 q 582 494 582 593 z "},"â":{"ha":717,"x_min":81,"x_max":647,"o":"m 243 811 q 199 789 221 789 q 174 806 176 789 l 264 947 q 302 993 283 979 q 347 1007 321 1007 q 429 947 392 1007 l 519 806 q 494 789 517 789 q 450 811 472 789 l 347 922 l 243 811 m 175 174 q 294 67 175 67 q 493 172 414 67 l 493 346 q 253 290 332 338 q 175 174 175 243 m 582 494 l 582 111 q 647 36 582 39 q 585 -11 629 -11 q 493 107 493 -11 q 274 -11 413 -11 q 135 36 190 -11 q 81 165 81 83 q 182 331 81 268 q 493 400 283 393 l 493 471 q 460 613 493 568 q 351 658 426 658 q 240 629 276 658 q 204 565 204 600 q 222 511 204 529 q 172 496 199 496 q 127 513 146 496 q 108 560 108 529 q 178 667 108 622 q 353 711 247 711 q 520 652 458 711 q 582 494 582 593 z "},"ã":{"ha":717,"x_min":81,"x_max":647,"o":"m 190 813 q 161 863 161 824 q 194 934 161 903 q 274 965 228 965 q 376 928 321 965 q 460 892 432 892 q 506 911 488 892 q 529 965 525 931 q 557 913 557 951 q 524 842 557 874 q 447 811 490 811 q 347 849 403 811 q 263 886 292 886 q 214 866 235 886 q 190 813 193 846 m 175 174 q 294 67 175 67 q 493 172 414 67 l 493 346 q 253 290 332 338 q 175 174 175 243 m 582 494 l 582 111 q 647 36 582 39 q 585 -11 629 -11 q 493 107 493 -11 q 274 -11 413 -11 q 135 36 190 -11 q 81 165 81 83 q 182 331 81 268 q 493 400 283 393 l 493 471 q 460 613 493 568 q 351 658 426 658 q 240 629 276 658 q 204 565 204 600 q 222 511 204 529 q 172 496 199 496 q 127 513 146 496 q 108 560 108 529 q 178 667 108 622 q 353 711 247 711 q 520 652 458 711 q 582 494 582 593 z "},"ä":{"ha":717,"x_min":81,"x_max":647,"o":"m 506 895 q 506 882 506 895 q 483 847 506 869 q 435 824 461 824 q 394 839 410 824 q 379 881 379 854 q 402 929 379 907 q 451 951 425 951 q 491 936 476 951 q 506 895 506 921 m 314 895 q 314 882 314 895 q 292 847 314 869 q 244 824 269 824 q 203 839 218 824 q 188 881 188 854 q 210 929 188 907 q 259 951 233 951 q 299 936 285 951 q 314 895 314 921 m 175 174 q 294 67 175 67 q 493 172 414 67 l 493 346 q 253 290 332 338 q 175 174 175 243 m 582 494 l 582 111 q 647 36 582 39 q 585 -11 629 -11 q 493 107 493 -11 q 274 -11 413 -11 q 135 36 190 -11 q 81 165 81 83 q 182 331 81 268 q 493 400 283 393 l 493 471 q 460 613 493 568 q 351 658 426 658 q 240 629 276 658 q 204 565 204 600 q 222 511 204 529 q 172 496 199 496 q 127 513 146 496 q 108 560 108 529 q 178 667 108 622 q 353 711 247 711 q 520 652 458 711 q 582 494 582 593 z "},"å":{"ha":717,"x_min":81,"x_max":647,"o":"m 384 952 q 375 962 384 952 q 342 972 367 972 q 303 955 317 972 q 289 921 289 938 q 290 894 289 904 q 308 834 292 854 q 349 814 325 814 q 404 872 404 814 q 403 894 404 883 q 384 952 401 932 m 446 803 q 426 787 446 803 q 347 771 406 771 q 248 803 289 771 q 207 894 207 836 q 247 983 207 951 q 346 1014 288 1014 q 445 982 404 1014 q 486 893 486 950 q 446 803 486 836 m 175 174 q 294 67 175 67 q 493 172 414 67 l 493 346 q 253 290 332 338 q 175 174 175 243 m 582 494 l 582 111 q 647 36 582 39 q 585 -11 629 -11 q 493 107 493 -11 q 274 -11 413 -11 q 135 36 190 -11 q 81 165 81 83 q 182 331 81 268 q 493 400 283 393 l 493 471 q 460 613 493 568 q 351 658 426 658 q 240 629 276 658 q 204 565 204 600 q 222 511 204 529 q 172 496 199 496 q 127 513 146 496 q 108 560 108 529 q 178 667 108 622 q 353 711 247 711 q 520 652 458 711 q 582 494 582 593 z "},"æ":{"ha":1086,"x_min":81,"x_max":1035,"o":"m 493 325 l 493 346 q 253 290 332 338 q 175 174 175 243 q 298 67 175 67 q 513 199 421 67 q 493 325 493 257 m 881 419 q 940 488 940 424 q 901 597 940 553 q 791 640 863 640 q 662 576 719 640 q 593 400 604 513 l 881 419 m 590 347 q 651 135 589 204 q 824 65 714 65 q 1011 135 935 65 q 1028 103 1028 125 q 965 26 1028 63 q 813 -11 901 -11 q 651 29 725 -11 q 536 144 578 69 q 283 -11 428 -11 q 137 35 193 -11 q 81 165 81 82 q 182 331 81 268 q 493 400 283 393 l 493 471 q 460 613 493 568 q 351 658 426 658 q 240 629 276 658 q 204 565 204 600 q 222 511 204 529 q 172 496 199 496 q 127 513 146 496 q 108 560 108 529 q 178 667 108 622 q 340 711 247 711 q 492 676 433 711 q 571 576 550 640 q 814 711 671 711 q 974 642 913 711 q 1035 485 1035 574 q 1000 392 1035 424 q 886 360 965 361 l 590 351 l 590 347 z "},"ç":{"ha":669,"x_min":69,"x_max":601,"o":"m 69 318 q 173 603 69 494 q 421 711 276 711 q 553 674 506 711 q 601 588 601 638 q 585 542 601 558 q 547 525 568 525 q 514 529 526 525 q 518 558 518 539 q 403 644 518 644 q 236 567 310 644 q 163 349 163 489 q 228 140 163 210 q 386 71 293 71 q 578 140 504 71 q 592 106 592 126 q 528 31 592 69 q 385 -11 465 -8 l 354 -97 q 376 -96 361 -96 q 479 -124 436 -96 q 522 -205 522 -153 q 469 -297 522 -257 q 330 -337 415 -337 q 188 -304 244 -337 q 132 -232 132 -271 q 146 -201 132 -215 q 314 -269 217 -269 q 431 -200 431 -269 q 343 -147 431 -147 l 317 -147 q 283 -121 283 -147 q 289 -94 283 -110 l 321 -6 q 142 98 215 14 q 69 318 69 182 z "},"è":{"ha":663,"x_min":69,"x_max":619,"o":"m 458 419 q 517 488 517 424 q 478 597 517 553 q 378 640 439 640 q 238 576 296 640 q 168 399 179 511 l 458 419 m 165 347 q 227 135 164 204 q 402 65 290 65 q 588 135 514 65 q 604 103 604 125 q 541 26 604 63 q 390 -11 478 -11 q 160 78 251 -11 q 69 331 69 168 q 168 602 69 493 q 390 711 267 711 q 550 642 489 711 q 611 485 611 574 q 576 392 611 424 q 463 360 540 361 l 165 350 l 165 347 m 474 999 q 549 1056 511 1056 q 619 983 619 1056 q 619 974 619 979 q 588 976 608 976 q 543 953 567 976 l 406 811 q 367 788 381 788 q 343 806 350 788 l 474 999 z "},"é":{"ha":663,"x_min":69,"x_max":611,"o":"m 460 808 q 437 788 454 788 q 394 806 419 789 l 240 928 q 193 944 217 944 l 163 938 q 158 967 158 951 q 171 1001 158 983 q 224 1026 186 1026 q 304 983 261 1026 l 460 808 m 458 419 q 517 488 517 424 q 478 597 517 553 q 378 640 439 640 q 238 576 296 640 q 168 399 179 511 l 458 419 m 165 347 q 227 135 164 204 q 402 65 290 65 q 588 135 514 65 q 604 103 604 125 q 541 26 604 63 q 390 -11 478 -11 q 160 78 251 -11 q 69 331 69 168 q 168 602 69 493 q 390 711 267 711 q 550 642 489 711 q 611 485 611 574 q 576 392 611 424 q 463 360 540 361 l 165 350 l 165 347 z "},"ê":{"ha":663,"x_min":69,"x_max":611,"o":"m 278 811 q 233 789 256 789 q 208 806 211 789 l 299 947 q 337 993 318 979 q 382 1007 356 1007 q 464 947 426 1007 l 554 806 q 529 789 551 789 q 485 811 507 789 l 382 922 l 278 811 m 458 419 q 517 488 517 424 q 478 597 517 553 q 378 640 439 640 q 238 576 296 640 q 168 399 179 511 l 458 419 m 165 347 q 227 135 164 204 q 402 65 290 65 q 588 135 514 65 q 604 103 604 125 q 541 26 604 63 q 390 -11 478 -11 q 160 78 251 -11 q 69 331 69 168 q 168 602 69 493 q 390 711 267 711 q 550 642 489 711 q 611 485 611 574 q 576 392 611 424 q 463 360 540 361 l 165 350 l 165 347 z "},"ë":{"ha":663,"x_min":69,"x_max":611,"o":"m 540 895 q 540 882 540 895 q 518 847 540 869 q 470 824 496 824 q 429 839 444 824 q 414 881 414 854 q 437 929 414 907 q 485 951 460 951 q 526 936 511 951 q 540 895 540 921 m 349 895 q 349 882 349 895 q 326 847 349 869 q 278 824 304 824 q 238 839 253 824 q 222 881 222 854 q 245 929 222 907 q 294 951 268 951 q 334 936 319 951 q 349 895 349 921 m 458 419 q 517 488 517 424 q 478 597 517 553 q 378 640 439 640 q 238 576 296 640 q 168 399 179 511 l 458 419 m 165 347 q 227 135 164 204 q 402 65 290 65 q 588 135 514 65 q 604 103 604 125 q 541 26 604 63 q 390 -11 478 -11 q 160 78 251 -11 q 69 331 69 168 q 168 602 69 493 q 390 711 267 711 q 550 642 489 711 q 611 485 611 574 q 576 392 611 424 q 463 360 540 361 l 165 350 l 165 347 z "},"ì":{"ha":353,"x_min":101,"x_max":415,"o":"m 269 999 q 344 1056 307 1056 q 415 983 415 1056 q 415 974 415 979 q 383 976 404 976 q 339 953 363 976 l 201 811 q 163 788 176 788 q 139 806 146 788 l 269 999 m 221 632 l 221 71 q 253 29 221 40 q 194 -11 231 -11 q 133 68 133 -11 l 133 628 q 101 671 133 660 q 158 711 121 711 q 221 632 221 711 z "},"í":{"ha":353,"x_min":-46,"x_max":256,"o":"m 221 632 l 221 71 q 253 29 221 40 q 194 -11 231 -11 q 133 68 133 -11 l 133 628 q 101 671 133 660 q 158 711 121 711 q 221 632 221 711 m 256 808 q 233 789 250 789 q 190 806 215 789 l 36 928 q -11 944 13 944 l -42 938 q -46 967 -46 951 q -33 1001 -46 983 q 19 1026 -18 1026 q 100 983 57 1026 l 256 808 z "},"î":{"ha":353,"x_min":4,"x_max":350,"o":"m 221 632 l 221 71 q 253 29 221 40 q 194 -11 231 -11 q 133 68 133 -11 l 133 628 q 101 671 133 660 q 158 711 121 711 q 221 632 221 711 m 350 806 q 325 789 347 789 q 281 811 303 789 l 178 922 l 74 811 q 29 789 51 789 q 4 806 7 789 l 94 947 q 133 993 114 979 q 178 1007 151 1007 q 260 947 222 1007 l 350 806 z "},"ï":{"ha":353,"x_min":18,"x_max":336,"o":"m 221 632 l 221 71 q 253 29 221 40 q 194 -11 231 -11 q 133 68 133 -11 l 133 628 q 101 671 133 660 q 158 711 121 711 q 221 632 221 711 m 281 951 q 294 951 281 951 q 322 936 307 951 q 336 895 336 921 q 314 847 336 869 q 266 824 292 824 q 225 839 240 824 q 210 881 210 854 q 233 929 210 907 q 281 951 256 951 m 90 951 q 102 951 90 951 q 130 936 115 951 q 144 895 144 921 q 122 847 144 869 q 74 824 100 824 q 33 839 49 824 q 18 881 18 854 q 41 929 18 907 q 90 951 64 951 z "},"ð":{"ha":785,"x_min":69,"x_max":714,"o":"m 244 131 q 414 58 313 58 q 569 125 515 58 q 622 304 622 192 q 542 569 622 485 q 374 640 475 640 q 218 574 272 640 q 164 394 164 508 q 244 131 164 217 m 663 605 q 688 538 663 605 q 714 356 714 471 q 619 82 714 175 q 394 -11 525 -11 q 166 84 263 -11 q 69 351 69 179 q 166 617 69 522 q 394 711 263 711 q 563 653 490 711 q 461 835 522 747 l 268 783 q 258 808 258 792 q 335 869 261 849 l 418 892 q 281 1026 357 964 q 317 1047 292 1047 q 492 911 383 1047 l 671 958 q 681 935 681 949 q 592 869 675 892 l 533 854 q 663 605 611 739 z "},"ñ":{"ha":810,"x_min":101,"x_max":715,"o":"m 247 813 q 218 863 218 824 q 251 934 218 903 q 331 965 285 965 q 433 928 378 965 q 517 892 489 892 q 563 911 544 892 q 586 965 582 931 q 614 913 614 951 q 581 842 614 874 q 503 811 547 811 q 404 849 460 811 q 320 886 349 886 q 271 866 292 886 q 247 813 250 846 m 682 475 l 682 71 q 715 29 682 39 q 656 -11 693 -11 q 594 68 594 -11 l 594 474 q 457 631 594 631 q 315 570 382 631 q 221 413 247 510 l 221 71 q 253 29 221 40 q 194 -11 231 -11 q 133 68 133 -11 l 133 628 q 101 671 133 660 q 158 711 121 711 q 221 632 221 711 l 221 536 q 324 661 257 611 q 481 711 390 711 q 626 652 571 711 q 682 475 682 593 z "},"ò":{"ha":785,"x_min":69,"x_max":717,"o":"m 483 999 q 558 1056 521 1056 q 629 983 629 1056 q 629 974 629 979 q 597 976 618 976 q 553 953 576 976 l 415 811 q 376 788 390 788 q 353 806 360 788 l 483 999 m 556 566 q 522 603 556 566 q 384 640 488 640 q 221 572 281 640 q 161 374 161 504 q 231 134 161 210 q 405 58 301 58 q 567 128 508 58 q 625 326 625 197 q 556 566 625 492 m 166 617 q 214 664 166 617 q 394 711 263 711 q 622 615 526 711 q 717 349 717 519 q 622 84 717 179 q 394 -11 526 -11 q 166 84 263 -11 q 69 351 69 179 q 166 617 69 522 z "},"ó":{"ha":785,"x_min":69,"x_max":717,"o":"m 556 566 q 522 603 556 566 q 384 640 488 640 q 221 572 281 640 q 161 374 161 504 q 231 134 161 210 q 405 58 301 58 q 567 128 508 58 q 625 326 625 197 q 556 566 625 492 m 166 617 q 214 664 166 617 q 394 711 263 711 q 622 615 526 711 q 717 349 717 519 q 622 84 717 179 q 394 -11 526 -11 q 166 84 263 -11 q 69 351 69 179 q 166 617 69 522 m 469 808 q 447 789 464 789 q 404 806 429 789 l 250 928 q 203 944 226 944 l 172 938 q 168 967 168 951 q 181 1001 168 983 q 233 1026 196 1026 q 314 983 271 1026 l 469 808 z "},"ô":{"ha":785,"x_min":69,"x_max":717,"o":"m 288 811 q 243 789 265 789 q 218 806 221 789 l 308 947 q 347 993 328 979 q 392 1007 365 1007 q 474 947 436 1007 l 564 806 q 539 789 561 789 q 494 811 517 789 l 392 922 l 288 811 m 231 134 q 266 96 231 134 q 405 58 301 58 q 567 128 508 58 q 625 326 625 197 q 556 566 625 492 q 384 640 488 640 q 221 572 281 640 q 161 374 161 504 q 231 134 161 210 m 166 617 q 214 664 166 617 q 394 711 263 711 q 622 615 526 711 q 717 349 717 519 q 622 84 717 179 q 394 -11 526 -11 q 166 84 263 -11 q 69 351 69 179 q 166 617 69 522 z "},"õ":{"ha":785,"x_min":69,"x_max":717,"o":"m 421 928 q 449 910 421 928 q 504 892 476 892 q 551 911 532 892 q 574 965 569 931 q 601 913 601 951 q 568 842 601 874 q 491 811 535 811 q 392 849 447 811 q 308 886 336 886 q 258 866 279 886 q 235 813 238 846 q 206 863 206 824 q 239 934 206 903 q 319 965 272 965 q 421 928 365 965 m 556 566 q 522 603 556 566 q 384 640 488 640 q 221 572 281 640 q 161 374 161 504 q 231 134 161 210 q 405 58 301 58 q 567 128 508 58 q 625 326 625 197 q 556 566 625 492 m 166 617 q 214 664 166 617 q 394 711 263 711 q 622 615 526 711 q 717 349 717 519 q 622 84 717 179 q 394 -11 526 -11 q 166 84 263 -11 q 69 351 69 179 q 166 617 69 522 z "},"ö":{"ha":785,"x_min":69,"x_max":717,"o":"m 556 566 q 522 603 556 566 q 384 640 488 640 q 221 572 281 640 q 161 374 161 504 q 231 134 161 210 q 405 58 301 58 q 567 128 508 58 q 625 326 625 197 q 556 566 625 492 m 166 617 q 214 664 166 617 q 394 711 263 711 q 622 615 526 711 q 717 349 717 519 q 622 84 717 179 q 394 -11 526 -11 q 166 84 263 -11 q 69 351 69 179 q 166 617 69 522 m 495 951 q 508 951 495 951 q 535 936 521 951 q 550 895 550 921 q 528 847 550 869 q 480 824 506 824 q 439 839 454 824 q 424 881 424 854 q 447 929 424 907 q 495 951 469 951 m 303 951 q 316 951 303 951 q 344 936 329 951 q 358 895 358 921 q 336 847 358 869 q 288 824 314 824 q 247 839 263 824 q 232 881 232 854 q 255 929 232 907 q 303 951 278 951 z "},"÷":{"ha":774,"x_min":47,"x_max":728,"o":"m 126 594 l 724 594 q 728 578 728 590 q 649 522 728 522 l 53 522 q 47 542 47 531 q 126 594 47 594 m 400 415 q 416 415 400 415 q 450 397 432 415 q 468 346 468 378 q 441 286 468 314 q 381 258 414 258 q 330 277 349 258 q 311 327 311 296 q 340 387 311 358 q 400 415 368 415 m 400 864 q 416 864 400 864 q 450 845 432 864 q 468 794 468 826 q 440 735 468 763 q 381 707 413 707 q 330 726 349 707 q 311 777 311 746 q 340 836 311 808 q 400 864 368 864 z "},"ø":{"ha":771,"x_min":67,"x_max":717,"o":"m 250 114 q 410 58 311 58 q 567 128 508 58 q 625 326 625 197 q 579 535 625 454 l 250 114 m 535 588 q 377 640 474 640 q 221 572 281 640 q 161 374 161 504 q 206 169 161 249 l 535 588 m 632 603 q 717 342 717 504 q 622 84 717 179 q 405 -11 526 -11 q 201 53 283 -11 l 186 33 q 110 -11 149 -11 q 67 26 72 -11 q 147 96 121 57 l 151 100 q 69 360 69 197 q 166 617 69 522 q 394 711 263 711 q 583 649 500 711 l 596 665 q 671 711 633 711 q 717 674 708 711 q 635 606 678 654 l 632 603 z "},"ù":{"ha":810,"x_min":101,"x_max":715,"o":"m 367 806 l 497 999 q 572 1056 535 1056 q 643 983 643 1056 q 643 974 643 979 q 611 976 632 976 q 567 953 590 976 l 429 811 q 389 788 404 788 q 367 806 374 788 m 682 632 l 682 71 q 715 29 682 39 q 656 -11 693 -11 q 594 68 594 -11 l 594 125 q 361 -11 515 -11 q 133 224 133 -11 l 133 628 q 101 671 133 660 q 158 711 121 711 q 221 632 221 711 l 221 228 q 256 110 221 151 q 369 69 290 69 q 506 113 447 69 q 594 235 564 157 l 594 628 q 563 671 594 660 q 622 711 586 711 q 682 632 682 711 z "},"ú":{"ha":810,"x_min":101,"x_max":715,"o":"m 483 808 q 460 789 478 789 q 418 806 443 789 l 264 928 q 217 944 240 944 l 186 938 q 182 967 182 951 q 194 1001 182 983 q 247 1026 210 1026 q 328 983 285 1026 l 483 808 m 682 632 l 682 71 q 715 29 682 39 q 656 -11 693 -11 q 594 68 594 -11 l 594 125 q 361 -11 515 -11 q 133 224 133 -11 l 133 628 q 101 671 133 660 q 158 711 121 711 q 221 632 221 711 l 221 228 q 256 110 221 151 q 369 69 290 69 q 506 113 447 69 q 594 235 564 157 l 594 628 q 563 671 594 660 q 622 711 586 711 q 682 632 682 711 z "},"û":{"ha":810,"x_min":101,"x_max":715,"o":"m 301 811 q 257 789 279 789 q 232 806 235 789 l 322 947 q 360 993 342 979 q 406 1007 379 1007 q 488 947 450 1007 l 578 806 q 553 789 575 789 q 508 811 531 789 l 406 922 l 301 811 m 682 632 l 682 71 q 715 29 682 39 q 656 -11 693 -11 q 594 68 594 -11 l 594 125 q 361 -11 515 -11 q 133 224 133 -11 l 133 628 q 101 671 133 660 q 158 711 121 711 q 221 632 221 711 l 221 228 q 256 110 221 151 q 369 69 290 69 q 506 113 447 69 q 594 235 564 157 l 594 628 q 563 671 594 660 q 622 711 586 711 q 682 632 682 711 z "},"ü":{"ha":810,"x_min":101,"x_max":715,"o":"m 564 895 q 564 882 564 895 q 542 847 564 869 q 494 824 519 824 q 453 839 468 824 q 438 881 438 854 q 460 929 438 907 q 509 951 483 951 q 549 936 535 951 q 564 895 564 921 m 372 895 q 372 882 372 895 q 350 847 372 869 q 302 824 328 824 q 261 839 276 824 q 246 881 246 854 q 269 929 246 907 q 317 951 292 951 q 358 936 343 951 q 372 895 372 921 m 682 632 l 682 71 q 715 29 682 39 q 656 -11 693 -11 q 594 68 594 -11 l 594 125 q 361 -11 515 -11 q 133 224 133 -11 l 133 628 q 101 671 133 660 q 158 711 121 711 q 221 632 221 711 l 221 228 q 256 110 221 151 q 369 69 290 69 q 506 113 447 69 q 594 235 564 157 l 594 628 q 563 671 594 660 q 622 711 586 711 q 682 632 682 711 z "},"ý":{"ha":713,"x_min":53,"x_max":697,"o":"m 469 808 q 447 789 464 789 q 404 806 429 789 l 250 928 q 203 944 226 944 l 172 938 q 168 967 168 951 q 181 1001 168 983 q 233 1026 196 1026 q 314 983 271 1026 l 469 808 m 590 600 q 599 647 599 622 q 579 692 599 671 q 638 711 606 711 q 688 681 669 711 q 697 644 697 665 q 688 594 697 622 l 392 -167 q 215 -337 324 -337 q 156 -319 176 -337 q 136 -269 136 -300 q 157 -222 136 -239 q 215 -249 178 -249 q 272 -229 253 -249 q 311 -156 292 -210 l 364 -11 q 360 -11 361 -11 q 299 38 315 -11 l 92 628 q 53 681 79 669 q 110 711 68 711 q 179 639 156 711 l 385 44 l 590 600 z "},"þ":{"ha":803,"x_min":101,"x_max":728,"o":"m 415 74 q 572 148 508 74 q 635 351 635 222 q 572 554 635 479 q 415 629 508 629 q 221 510 286 629 l 221 181 q 304 97 258 121 q 415 74 350 74 m 221 969 l 221 611 q 419 711 294 711 q 636 617 544 711 q 728 351 728 522 q 635 85 728 179 q 419 -10 543 -10 q 221 79 294 -10 l 221 -254 q 253 -297 221 -286 q 194 -337 231 -337 q 133 -257 133 -337 l 133 964 q 101 1008 133 994 q 158 1047 118 1047 q 221 969 221 1047 z "},"ÿ":{"ha":713,"x_min":53,"x_max":697,"o":"m 551 895 q 551 882 551 895 q 529 847 551 869 q 481 824 507 824 q 440 839 456 824 q 425 881 425 854 q 448 929 425 907 q 497 951 471 951 q 537 936 522 951 q 551 895 551 921 m 360 895 q 360 882 360 895 q 338 847 360 869 q 290 824 315 824 q 249 839 264 824 q 233 881 233 854 q 256 929 233 907 q 305 951 279 951 q 345 936 331 951 q 360 895 360 921 m 590 600 q 599 647 599 622 q 579 692 599 671 q 638 711 606 711 q 688 681 669 711 q 697 644 697 665 q 688 594 697 622 l 392 -167 q 215 -337 324 -337 q 156 -319 176 -337 q 136 -269 136 -300 q 157 -222 136 -239 q 215 -249 178 -249 q 272 -229 253 -249 q 311 -156 292 -210 l 364 -11 q 360 -11 361 -11 q 299 38 315 -11 l 92 628 q 53 681 79 669 q 110 711 68 711 q 179 639 156 711 l 385 44 l 590 600 z "},"ı":{"ha":353,"x_min":101,"x_max":253,"o":"m 221 632 l 221 71 q 253 29 221 40 q 194 -11 231 -11 q 133 68 133 -11 l 133 628 q 101 671 133 660 q 158 711 121 711 q 221 632 221 711 z "},"Ł":{"ha":808,"x_min":28,"x_max":740,"o":"m 394 690 q 415 653 415 681 q 347 581 415 613 l 243 529 l 243 165 q 267 94 243 115 q 346 72 290 72 l 596 72 q 699 131 667 72 q 728 111 717 126 q 740 79 740 96 q 593 0 740 0 l 350 0 q 202 40 250 0 q 154 168 154 79 l 154 485 l 44 431 q 28 469 28 447 q 93 539 28 506 l 154 569 l 154 917 q 122 960 154 949 q 182 1000 142 1000 q 243 921 243 1000 l 243 614 l 394 690 z "},"ł":{"ha":439,"x_min":26,"x_max":414,"o":"m 393 693 q 414 654 414 679 q 346 582 414 615 l 260 540 l 260 71 q 292 29 260 40 q 233 -11 269 -11 q 172 68 172 -11 l 172 497 l 43 433 q 31 448 36 436 q 26 471 26 460 q 92 542 26 507 l 172 582 l 172 964 q 140 1008 172 994 q 197 1047 157 1047 q 260 969 260 1047 l 260 626 l 393 693 z "},"Œ":{"ha":1463,"x_min":103,"x_max":1379,"o":"m 539 918 q 267 797 361 918 q 188 536 188 699 q 190 468 188 504 q 310 165 207 265 q 560 65 414 65 q 750 92 667 65 l 750 893 q 539 918 643 918 m 942 71 l 1238 71 q 1339 129 1311 71 q 1367 110 1356 125 q 1379 81 1379 96 q 1232 0 1379 0 l 588 0 q 103 496 103 0 q 234 860 103 732 q 614 989 365 989 l 1257 989 q 1379 928 1379 989 q 1339 879 1379 889 q 1238 917 1308 917 l 839 917 l 839 543 l 1160 543 q 1255 534 1226 543 q 1283 495 1283 525 q 1251 450 1283 465 q 1150 471 1221 471 l 839 471 l 839 164 q 862 92 839 114 q 942 71 885 71 z "},"œ":{"ha":1213,"x_min":69,"x_max":1163,"o":"m 1007 419 q 1067 488 1067 424 q 1028 597 1067 553 q 928 640 989 640 q 788 576 844 640 q 719 399 731 511 l 1007 419 m 244 131 q 414 58 313 58 q 569 125 515 58 q 622 304 622 192 q 542 569 622 485 q 374 640 475 640 q 218 574 272 640 q 164 394 164 508 q 244 131 164 217 m 717 347 q 778 135 715 204 q 951 65 840 65 q 1138 135 1061 65 q 1156 103 1156 124 q 1092 26 1156 63 q 940 -11 1028 -11 q 779 28 851 -11 q 664 139 707 67 q 548 27 619 65 q 394 -11 476 -11 q 166 84 263 -11 q 69 351 69 179 q 166 617 69 522 q 394 711 263 711 q 557 667 482 711 q 674 540 632 622 q 793 665 721 619 q 940 711 865 711 q 1101 642 1040 711 q 1163 485 1163 574 q 1127 392 1163 424 q 1014 360 1092 361 l 717 350 l 717 347 z "},"Š":{"ha":872,"x_min":90,"x_max":778,"o":"m 519 1138 q 437 1079 483 1079 q 354 1138 390 1079 l 264 1281 q 288 1297 267 1297 q 333 1274 310 1297 l 438 1163 l 540 1274 q 585 1297 564 1297 q 610 1281 607 1297 l 519 1138 m 428 933 q 378 933 428 933 q 269 890 328 933 q 210 773 210 846 q 268 648 210 700 q 410 560 326 596 q 578 489 494 525 q 719 399 661 453 q 778 274 778 344 q 673 71 778 153 q 423 -11 568 -11 q 184 57 278 -11 q 90 229 90 125 q 112 296 90 269 q 170 322 133 322 q 222 293 207 322 q 190 219 190 264 q 251 108 190 153 q 419 64 313 64 q 606 122 525 64 q 688 258 688 179 q 645 347 688 307 q 540 414 603 388 q 403 474 478 440 q 267 540 329 507 q 162 628 204 572 q 119 756 119 685 q 215 935 119 864 q 441 1007 311 1007 q 656 950 571 1007 q 742 814 742 893 q 724 758 742 778 q 675 738 706 738 q 653 740 667 738 q 638 743 640 743 q 642 782 642 765 q 585 885 642 836 q 428 933 529 933 z "},"š":{"ha":689,"x_min":83,"x_max":603,"o":"m 428 847 q 345 789 392 789 q 263 847 299 789 l 172 990 q 197 1007 175 1007 q 242 983 218 1007 l 346 872 l 449 983 q 494 1007 472 1007 q 518 990 515 1007 l 428 847 m 350 646 q 315 646 350 646 q 238 615 279 646 q 197 542 197 583 q 239 469 197 501 q 340 411 281 438 q 460 355 400 385 q 561 281 519 325 q 603 182 603 236 q 529 47 603 106 q 340 -11 456 -11 q 154 33 225 -11 q 83 150 83 78 q 105 214 83 192 q 153 236 126 236 q 196 219 179 236 q 178 161 178 190 q 218 83 178 113 q 337 54 258 54 q 463 88 415 54 q 510 172 510 122 q 469 255 510 221 q 369 314 428 289 q 251 365 310 339 q 151 431 192 390 q 110 524 110 471 q 178 658 110 606 q 347 711 246 711 q 522 674 447 711 q 596 576 596 638 q 574 531 596 547 q 526 514 553 514 q 482 525 500 514 q 490 567 490 539 q 456 620 490 594 q 350 646 421 646 z "},"Ÿ":{"ha":806,"x_min":25,"x_max":765,"o":"m 590 1185 q 590 1173 590 1185 q 568 1137 590 1160 q 520 1114 546 1114 q 479 1129 494 1114 q 464 1171 464 1144 q 487 1219 464 1197 q 535 1242 510 1242 q 576 1226 561 1242 q 590 1185 590 1211 m 399 1185 q 399 1173 399 1185 q 376 1137 399 1160 q 328 1114 354 1114 q 288 1129 303 1114 q 272 1171 272 1144 q 295 1219 272 1197 q 344 1242 318 1242 q 384 1226 369 1242 q 399 1185 399 1211 m 419 -11 q 358 75 358 -11 l 360 440 l 107 892 q 25 943 74 942 q 52 985 32 969 q 96 1000 72 1000 q 179 944 149 1000 l 410 522 l 653 913 q 671 958 671 940 q 660 988 671 976 q 719 1000 681 1000 q 765 953 765 1000 q 750 903 765 936 l 449 444 l 447 71 q 472 11 447 32 q 419 -11 450 -11 z "},"Ž":{"ha":822,"x_min":78,"x_max":746,"o":"m 493 1138 q 410 1079 457 1079 q 328 1138 364 1079 l 238 1281 q 262 1297 240 1297 q 307 1274 283 1297 l 411 1163 l 514 1274 q 559 1297 538 1297 q 583 1281 581 1297 l 493 1138 m 746 65 q 582 0 746 0 l 144 0 q 95 17 113 0 q 78 53 78 33 q 114 128 78 74 l 657 926 q 262 908 426 908 q 97 972 97 908 q 118 1008 97 994 q 254 989 165 989 l 681 989 q 729 972 713 989 q 746 934 746 956 q 710 858 746 913 l 169 63 l 589 78 q 724 110 681 81 q 746 65 746 90 z "},"ž":{"ha":707,"x_min":94,"x_max":632,"o":"m 435 847 q 352 789 399 789 q 269 847 306 789 l 179 990 q 203 1007 182 1007 q 249 983 225 1007 l 353 872 l 456 983 q 501 1007 479 1007 q 525 990 522 1007 l 435 847 m 632 60 q 460 0 632 0 l 167 0 q 116 18 135 0 q 97 65 97 36 q 135 138 97 94 l 550 639 q 267 617 375 617 q 94 682 94 617 q 117 721 94 704 q 258 699 165 699 l 561 699 q 612 681 593 699 q 631 634 631 664 q 592 560 631 604 l 183 64 l 469 74 q 608 111 561 75 q 632 60 632 92 z "},"ƒ":{"ha":721,"x_min":-87,"x_max":667,"o":"m 279 782 q 369 944 306 888 q 511 1000 433 1000 q 628 971 589 1000 q 667 908 667 942 q 647 858 667 874 q 525 928 603 928 q 367 775 407 928 l 333 639 l 564 639 q 568 624 568 633 q 314 561 568 563 l 131 -194 q 81 -299 117 -260 q -12 -337 44 -337 q -87 -281 -69 -337 q 2 -254 -28 -281 q 47 -167 32 -228 l 225 561 q 119 615 119 565 q 136 649 119 633 q 231 639 163 639 l 244 639 l 279 782 z "},"ˆ":{"ha":379,"x_min":17,"x_max":363,"o":"m 363 806 q 338 789 360 789 q 293 811 315 789 l 190 922 l 86 811 q 42 789 64 789 q 17 806 19 789 l 107 947 q 145 993 126 979 q 190 1007 164 1007 q 272 947 235 1007 l 363 806 z "},"ˇ":{"ha":379,"x_min":17,"x_max":363,"o":"m 293 983 q 338 1007 317 1007 q 363 990 360 1007 l 272 847 q 190 789 236 789 q 107 847 143 789 l 17 990 q 41 1007 19 1007 q 86 983 63 1007 l 190 872 l 293 983 z "},"˘":{"ha":379,"x_min":17,"x_max":363,"o":"m 286 946 q 313 950 296 950 q 347 936 331 950 q 363 896 363 922 q 316 819 363 851 q 190 788 269 788 q 63 819 110 788 q 17 896 17 851 q 33 936 17 922 q 65 950 49 950 q 93 946 81 950 q 190 836 93 836 q 263 866 239 836 q 286 946 286 896 z "},"˙":{"ha":175,"x_min":17,"x_max":158,"o":"m 96 975 q 110 975 96 975 q 142 958 125 975 q 158 913 158 942 q 133 858 158 883 q 78 833 107 833 q 33 850 49 833 q 17 895 17 867 q 42 949 17 924 q 96 975 67 975 z "},"˚":{"ha":313,"x_min":17,"x_max":296,"o":"m 194 952 q 185 962 194 952 q 151 972 176 972 q 113 955 126 972 q 99 921 99 938 q 100 894 99 904 q 118 834 101 854 q 158 814 135 814 q 214 872 214 814 q 213 894 214 883 q 194 952 211 932 m 17 894 q 17 923 17 894 q 57 983 17 951 q 156 1014 97 1014 q 255 982 214 1014 q 296 893 296 950 q 256 803 296 836 q 157 771 215 771 q 58 803 99 771 q 17 894 17 836 z "},"˛":{"ha":322,"x_min":17,"x_max":301,"o":"m 243 -64 q 110 -184 110 -97 q 214 -271 110 -271 q 294 -249 250 -271 q 301 -269 301 -258 q 269 -316 301 -294 q 176 -337 238 -337 q 65 -301 114 -337 q 17 -198 17 -264 q 78 -81 17 -132 q 243 -14 140 -31 l 243 -64 z "},"˜":{"ha":465,"x_min":35,"x_max":431,"o":"m 250 928 q 278 910 250 928 q 333 892 306 892 q 380 911 361 892 q 403 965 399 931 q 431 913 431 951 q 397 842 431 874 q 320 811 364 811 q 221 849 276 811 q 137 886 165 886 q 88 866 108 886 q 64 813 67 846 q 35 863 35 824 q 68 934 35 903 q 148 965 101 965 q 250 928 194 965 z "},"˝":{"ha":429,"x_min":17,"x_max":414,"o":"m 64 814 q 38 793 50 793 q 17 804 25 793 l 61 950 q 156 1049 92 1049 q 207 990 204 1049 q 149 947 178 989 l 64 814 m 226 811 q 201 793 210 793 q 189 794 192 793 q 185 797 186 796 q 182 802 185 799 q 178 808 179 806 l 247 947 q 360 1049 299 1049 q 401 1033 389 1049 q 414 1004 414 1017 q 410 982 414 992 q 336 940 374 982 l 226 811 z "},"ँ":{"ha":0,"x_min":-468,"x_max":38,"o":"m -158 1310 q -158 1296 -158 1310 q -174 1265 -158 1282 q -219 1249 -190 1249 q -272 1273 -247 1249 q -297 1326 -297 1297 q -281 1371 -297 1354 q -237 1388 -265 1388 q -183 1363 -208 1388 q -158 1310 -158 1338 m -224 1129 q -96 1158 -156 1129 q -7 1244 -36 1188 q 38 1186 38 1235 q -30 1102 38 1138 q -197 1067 -97 1067 q -383 1121 -297 1067 q -468 1217 -468 1175 q -450 1242 -468 1235 q -224 1129 -367 1129 z "},"ं":{"ha":0,"x_min":-262,"x_max":-124,"o":"m -124 1118 q -124 1104 -124 1118 q -140 1074 -124 1090 q -185 1057 -156 1057 q -238 1081 -214 1057 q -262 1134 -262 1106 q -247 1179 -262 1163 q -202 1196 -231 1196 q -149 1171 -174 1196 q -124 1118 -124 1146 z "},"ः":{"ha":353,"x_min":108,"x_max":247,"o":"m 247 643 q 247 629 247 643 q 231 599 247 615 q 187 582 215 582 q 133 606 158 582 q 108 659 108 631 q 124 704 108 688 q 169 721 140 721 q 222 696 197 721 q 247 643 247 671 m 247 207 q 247 193 247 207 q 231 163 247 179 q 187 146 215 146 q 133 170 158 146 q 108 223 108 194 q 124 268 108 251 q 169 285 140 285 q 222 260 197 285 q 247 207 247 235 z "},"अ":{"ha":958,"x_min":7,"x_max":996,"o":"m 810 715 l 804 111 q 818 -1 804 19 q 794 -7 807 -7 q 731 108 731 -7 q 742 418 731 294 q 637 404 700 404 q 513 435 574 404 q 536 338 536 385 q 481 203 536 253 q 347 153 425 153 q 204 185 269 153 q 98 261 139 217 q 32 347 57 306 q 7 412 7 389 q 29 440 7 435 q 144 289 72 351 q 295 226 217 226 q 418 265 374 226 q 463 381 463 304 q 400 503 463 457 q 295 472 343 472 q 216 492 247 472 q 185 544 185 511 q 207 595 185 578 q 274 613 229 613 q 368 582 318 613 q 442 711 442 638 q 402 798 442 768 q 292 828 363 828 q 167 781 222 828 q 138 826 138 796 q 172 878 138 857 q 260 900 206 900 q 433 835 360 900 q 506 681 506 769 q 438 531 506 592 q 606 468 525 468 q 735 499 686 468 q 736 687 736 568 q 722 826 736 806 l 667 826 q 592 879 592 826 q 594 897 592 892 l 921 897 q 996 844 996 897 q 993 826 996 832 l 778 826 q 810 715 810 806 z "},"आ":{"ha":1332,"x_min":7,"x_max":1369,"o":"m 810 715 l 804 111 q 818 -1 804 19 q 794 -7 807 -7 q 731 108 731 -7 q 742 418 731 294 q 637 404 700 404 q 513 435 574 404 q 536 338 536 385 q 481 203 536 253 q 347 153 425 153 q 204 185 269 153 q 98 261 139 217 q 32 347 57 306 q 7 412 7 389 q 29 440 7 435 q 144 289 72 351 q 295 226 217 226 q 418 265 374 226 q 463 381 463 304 q 400 503 463 457 q 295 472 343 472 q 216 492 247 472 q 185 544 185 511 q 207 595 185 578 q 274 613 229 613 q 368 582 318 613 q 442 711 442 638 q 402 798 442 768 q 292 828 363 828 q 167 781 222 828 q 138 826 138 796 q 172 878 138 857 q 260 900 206 900 q 433 835 360 900 q 506 681 506 769 q 438 531 506 592 q 606 468 525 468 q 735 499 686 468 q 736 687 736 568 q 722 826 736 806 l 667 826 q 592 879 592 826 q 594 897 592 892 l 1294 897 q 1369 844 1369 897 q 1367 826 1369 832 l 1151 826 q 1183 715 1183 806 l 1178 111 q 1192 -1 1178 19 q 1168 -7 1181 -7 q 1104 108 1104 -7 l 1110 713 q 1096 826 1110 806 l 778 826 q 810 715 810 806 z "},"इ":{"ha":678,"x_min":-54,"x_max":715,"o":"m 286 683 l 375 682 q 450 735 450 682 q 396 826 450 783 l 21 826 q -54 879 -54 826 q -51 897 -54 892 l 640 897 q 715 844 715 897 q 713 826 715 832 l 458 826 q 522 710 522 775 q 486 638 522 667 q 379 608 450 608 l 288 610 q 210 587 244 610 q 175 523 175 564 q 204 454 175 482 q 288 426 233 426 l 374 429 q 531 374 460 429 q 603 234 603 318 q 533 98 603 150 q 364 46 463 46 q 251 60 307 46 q 328 -46 283 -6 q 419 -86 372 -86 q 493 -57 465 -86 q 526 -101 526 -72 q 504 -149 526 -131 q 440 -167 482 -167 q 310 -108 376 -167 q 199 78 243 -50 q 71 217 71 128 q 86 257 71 240 q 131 274 101 274 q 187 237 161 274 q 224 143 213 200 q 338 117 261 117 q 474 153 414 117 q 533 257 533 190 q 502 331 533 303 q 415 358 471 358 q 324 356 415 358 q 176 417 249 356 q 103 547 103 478 q 151 649 103 615 q 286 683 200 683 z "},"ई":{"ha":678,"x_min":-54,"x_max":715,"o":"m 286 683 l 375 682 q 450 735 450 682 q 396 826 450 783 l 21 826 q -54 879 -54 826 q -51 897 -54 892 l 303 897 q 238 979 265 926 q 210 1097 210 1032 q 251 1205 210 1163 q 351 1247 292 1247 q 451 1201 411 1247 q 492 1109 492 1154 q 461 1064 492 1064 q 363 1176 443 1176 q 301 1147 328 1176 q 275 1065 275 1118 q 301 967 275 1011 q 363 897 326 922 l 640 897 q 715 844 715 897 q 713 826 715 832 l 458 826 q 522 710 522 775 q 486 638 522 667 q 379 608 450 608 l 288 610 q 210 587 244 610 q 175 523 175 564 q 204 454 175 482 q 288 426 233 426 l 374 429 q 531 374 460 429 q 603 234 603 318 q 533 98 603 150 q 364 46 463 46 q 251 60 307 46 q 328 -46 283 -6 q 419 -86 372 -86 q 493 -57 465 -86 q 526 -101 526 -72 q 504 -149 526 -131 q 440 -167 482 -167 q 310 -108 376 -167 q 199 78 243 -50 q 71 217 71 128 q 86 257 71 240 q 131 274 101 274 q 187 237 161 274 q 224 143 213 200 q 338 117 261 117 q 474 153 414 117 q 533 257 533 190 q 502 331 533 303 q 415 358 471 358 l 324 356 q 176 417 249 356 q 103 547 103 478 q 151 649 103 615 q 286 683 200 683 z "},"उ":{"ha":676,"x_min":-54,"x_max":714,"o":"m 639 897 q 714 844 714 897 q 711 826 714 832 l 449 826 q 536 638 536 739 q 472 478 536 538 q 572 263 572 378 q 517 128 572 178 q 381 78 461 78 q 232 115 301 78 q 119 204 163 153 q 50 304 76 256 q 24 376 24 353 q 46 404 24 400 q 169 227 92 303 q 343 151 247 151 q 455 191 411 151 q 499 297 499 231 q 433 450 499 388 q 335 421 386 421 q 252 440 283 421 q 221 493 221 460 q 243 544 221 526 q 308 561 265 561 q 404 531 350 561 q 471 658 471 583 q 386 826 471 754 l 21 826 q -54 879 -54 826 q -51 897 -54 892 l 639 897 z "},"ऊ":{"ha":1025,"x_min":-54,"x_max":1063,"o":"m 988 897 q 1063 844 1063 897 q 1060 826 1063 832 l 450 826 q 538 638 538 739 q 474 478 538 538 q 557 331 536 413 q 765 531 626 531 q 921 459 851 531 q 990 302 990 388 q 938 161 990 217 q 808 106 885 106 q 751 122 776 106 q 726 165 726 138 q 728 179 726 174 q 767 175 749 175 q 879 217 833 175 q 925 320 925 260 q 890 422 925 381 q 805 463 856 463 q 722 445 754 463 q 665 394 689 428 q 624 331 640 361 q 588 255 608 300 q 556 188 568 210 q 374 78 497 78 q 232 115 301 78 q 119 204 163 153 q 50 304 76 256 q 24 376 24 353 q 46 404 24 400 q 169 227 92 303 q 343 151 247 151 q 456 191 411 151 q 500 297 500 231 q 435 450 500 388 q 335 421 386 421 q 253 440 285 421 q 222 493 222 460 q 244 544 222 526 q 310 561 267 561 q 406 531 353 561 q 472 667 472 581 q 388 826 472 754 l 21 826 q -54 879 -54 826 q -51 897 -54 892 l 988 897 z "},"ऋ":{"ha":964,"x_min":-54,"x_max":1001,"o":"m 504 365 l 503 111 q 517 -1 503 19 q 493 -7 506 -7 q 429 108 429 -7 q 442 367 429 256 q 99 207 217 207 q 29 272 29 207 q 393 429 164 272 q 328 477 372 444 q 264 525 285 510 q 162 567 200 567 q 96 547 124 567 q 60 490 68 528 q 18 545 18 501 q 49 613 18 589 q 129 638 79 638 q 227 610 179 638 q 336 533 275 583 q 432 460 397 482 q 435 713 435 621 q 421 826 435 806 l 21 826 q -54 879 -54 826 q -51 897 -54 892 l 926 897 q 1001 844 1001 897 q 999 826 1001 832 l 476 826 q 508 715 508 806 q 506 424 508 624 q 604 406 556 406 q 751 443 699 406 q 724 483 738 457 q 703 556 703 522 q 722 611 703 589 q 775 633 742 633 q 839 598 808 633 q 869 510 869 563 q 828 411 869 457 q 853 375 844 389 q 871 347 861 361 q 885 324 881 332 q 895 301 889 315 q 904 276 901 288 q 911 215 911 249 q 887 151 911 181 q 826 122 863 122 q 770 142 790 122 q 749 194 750 161 q 783 189 760 189 q 824 206 806 189 q 843 262 843 222 q 794 381 843 301 q 653 335 731 335 q 504 365 576 335 z "},"ऌ":{"ha":975,"x_min":-54,"x_max":1013,"o":"m 682 715 l 681 594 q 810 500 757 571 q 863 349 863 429 q 838 257 863 304 q 783 175 814 210 q 706 10 706 83 q 736 -62 706 -36 q 813 -89 767 -89 q 894 -55 860 -89 q 936 31 928 -21 q 986 -28 986 22 q 946 -117 986 -79 q 838 -154 906 -154 q 703 -94 769 -154 q 638 49 638 -35 q 676 153 638 97 q 752 267 714 208 q 790 386 790 326 q 751 490 790 446 q 650 533 713 533 q 506 440 563 533 q 528 352 528 393 q 512 283 528 311 q 462 254 496 254 q 408 280 428 254 q 388 355 388 306 q 425 464 388 404 q 291 535 367 535 q 177 484 215 535 q 139 360 139 433 q 296 35 139 185 q 267 18 290 18 q 195 72 244 18 q 104 217 146 126 q 63 401 63 307 q 120 551 63 496 q 272 606 178 606 q 456 514 367 606 q 607 603 525 596 q 608 722 608 639 q 594 826 608 806 l 21 826 q -54 879 -54 826 q -51 897 -54 892 l 938 897 q 1013 844 1013 897 q 1010 826 1013 832 l 650 826 q 682 715 682 806 z "},"ऍ":{"ha":774,"x_min":-54,"x_max":811,"o":"m 632 1186 q 632 1162 632 1186 q 565 1102 632 1138 q 397 1067 497 1067 q 212 1121 297 1067 q 126 1217 126 1175 q 144 1242 126 1235 q 371 1129 228 1129 q 499 1158 439 1129 q 588 1244 558 1188 q 632 1186 632 1235 m 135 465 l 138 713 q 124 826 138 806 l 21 826 q -54 879 -54 826 q -51 897 -54 892 l 736 897 q 811 844 811 897 q 808 826 811 832 l 596 826 q 669 557 669 676 q 629 443 669 482 q 540 404 589 404 q 461 426 492 404 q 431 485 431 449 q 501 471 463 471 q 570 503 540 471 q 600 600 600 536 q 549 826 600 717 l 179 826 q 211 715 211 806 l 208 453 q 260 344 208 394 q 385 257 311 294 q 532 183 458 219 q 657 99 606 147 q 708 -6 708 50 q 689 -62 708 -37 q 637 -87 669 -87 q 589 -69 604 -87 q 574 -37 574 -51 q 615 -24 596 -37 q 633 17 633 -10 q 582 96 633 57 q 458 169 531 135 q 311 244 385 204 q 186 341 238 283 q 135 465 135 399 z "},"ऎ":{"ha":774,"x_min":-54,"x_max":811,"o":"m 135 465 l 138 713 q 124 826 138 806 l 21 826 q -54 879 -54 826 q -51 897 -54 892 l 474 897 q 558 917 517 897 q 599 974 599 938 q 577 1028 599 1010 q 516 1046 556 1046 q 408 1016 476 1046 q 297 986 340 986 q 177 1038 231 986 q 124 1161 124 1090 q 158 1242 124 1210 q 243 1275 193 1275 q 290 1260 269 1275 q 310 1227 310 1244 q 308 1204 310 1210 q 224 1184 264 1204 q 183 1128 183 1164 q 205 1074 183 1092 q 267 1056 226 1056 q 373 1085 307 1056 q 495 1115 439 1115 q 605 1063 551 1115 q 658 940 658 1011 q 650 897 658 917 l 736 897 q 811 844 811 897 q 808 826 811 832 l 596 826 q 669 557 669 676 q 629 443 669 482 q 540 404 589 404 q 461 426 492 404 q 431 485 431 449 q 501 471 463 471 q 570 503 540 471 q 600 600 600 536 q 549 826 600 717 l 179 826 q 211 715 211 806 l 208 453 q 260 344 208 394 q 385 257 311 294 q 532 183 458 219 q 657 99 606 147 q 708 -6 708 50 q 689 -62 708 -37 q 637 -87 669 -87 q 589 -69 604 -87 q 574 -37 574 -51 q 615 -24 596 -37 q 633 17 633 -10 q 582 96 633 57 q 458 169 531 135 q 311 244 385 204 q 186 341 238 283 q 135 465 135 399 z "},"ए":{"ha":774,"x_min":-54,"x_max":811,"o":"m 135 465 l 138 713 q 124 826 138 806 l 21 826 q -54 879 -54 826 q -51 897 -54 892 l 736 897 q 811 844 811 897 q 808 826 811 832 l 596 826 q 669 557 669 676 q 629 443 669 482 q 540 404 589 404 q 461 426 492 404 q 431 485 431 449 q 501 471 463 471 q 570 503 540 471 q 600 600 600 536 q 549 826 600 717 l 179 826 q 211 715 211 806 l 208 453 q 260 344 208 394 q 385 257 311 294 q 532 183 458 219 q 657 99 606 147 q 708 -6 708 50 q 689 -62 708 -37 q 637 -87 669 -87 q 589 -69 604 -87 q 574 -37 574 -51 q 615 -24 596 -37 q 633 17 633 -10 q 582 96 633 57 q 458 169 531 135 q 311 244 385 204 q 186 341 238 283 q 135 465 135 399 z "},"ऐ":{"ha":774,"x_min":-54,"x_max":811,"o":"m 135 465 l 138 713 q 124 826 138 806 l 21 826 q -54 879 -54 826 q -51 897 -54 892 l 549 897 q 444 1076 507 992 q 317 1160 381 1160 q 247 1110 267 1160 q 212 1133 225 1115 q 199 1176 199 1150 q 223 1224 199 1203 q 294 1244 247 1244 q 399 1197 340 1244 q 496 1088 457 1150 q 560 972 535 1025 q 588 897 585 918 l 736 897 q 811 844 811 897 q 808 826 811 832 l 596 826 q 669 557 669 676 q 629 443 669 482 q 540 404 589 404 q 461 426 492 404 q 431 485 431 449 q 501 471 463 471 q 570 503 540 471 q 600 600 600 536 q 549 826 600 717 l 179 826 q 211 715 211 806 l 208 453 q 260 344 208 394 q 385 257 311 294 q 532 183 458 219 q 657 99 606 147 q 708 -6 708 50 q 689 -62 708 -37 q 637 -87 669 -87 q 589 -69 604 -87 q 574 -37 574 -51 q 615 -24 596 -37 q 633 17 633 -10 q 582 96 633 57 q 458 169 531 135 q 311 244 385 204 q 186 341 238 283 q 135 465 135 399 z "},"ऑ":{"ha":1332,"x_min":7,"x_max":1369,"o":"m 1196 1186 q 1196 1162 1196 1186 q 1128 1102 1196 1138 q 961 1067 1061 1067 q 776 1121 861 1067 q 690 1217 690 1175 q 708 1242 690 1235 q 935 1129 792 1129 q 1063 1158 1003 1129 q 1151 1244 1122 1188 q 1196 1186 1196 1235 m 810 715 l 804 111 q 818 -1 804 19 q 794 -7 807 -7 q 731 108 731 -7 q 742 418 731 294 q 637 404 700 404 q 513 435 574 404 q 536 338 536 385 q 481 203 536 253 q 347 153 425 153 q 204 185 269 153 q 98 261 139 217 q 32 347 57 306 q 7 412 7 389 q 29 440 7 435 q 144 289 72 351 q 295 226 217 226 q 418 265 374 226 q 463 381 463 304 q 400 503 463 457 q 295 472 343 472 q 216 492 247 472 q 185 544 185 511 q 207 595 185 578 q 274 613 229 613 q 368 582 318 613 q 442 711 442 638 q 402 798 442 768 q 292 828 363 828 q 167 781 222 828 q 138 826 138 796 q 172 878 138 857 q 260 900 206 900 q 433 835 360 900 q 506 681 506 769 q 438 531 506 592 q 606 468 525 468 q 735 499 686 468 q 736 687 736 568 q 722 826 736 806 l 667 826 q 592 879 592 826 q 594 897 592 892 l 1294 897 q 1369 844 1369 897 q 1367 826 1369 832 l 1151 826 q 1183 715 1183 806 l 1178 111 q 1192 -1 1178 19 q 1168 -7 1181 -7 q 1104 108 1104 -7 l 1110 713 q 1096 826 1110 806 l 778 826 q 810 715 810 806 z "},"ऒ":{"ha":1332,"x_min":7,"x_max":1369,"o":"m 810 715 l 804 111 q 818 -1 804 19 q 794 -7 807 -7 q 731 108 731 -7 q 742 418 731 294 q 637 404 700 404 q 513 435 574 404 q 536 338 536 385 q 481 203 536 253 q 347 153 425 153 q 204 185 269 153 q 98 261 139 217 q 32 347 57 306 q 7 412 7 389 q 29 440 7 435 q 144 289 72 351 q 295 226 217 226 q 418 265 374 226 q 463 381 463 304 q 400 503 463 457 q 295 472 343 472 q 216 492 247 472 q 185 544 185 511 q 207 595 185 578 q 274 613 229 613 q 368 582 318 613 q 442 711 442 638 q 402 798 442 768 q 292 828 363 828 q 167 781 222 828 q 138 826 138 796 q 172 878 138 857 q 260 900 206 900 q 433 835 360 900 q 506 681 506 769 q 438 531 506 592 q 606 468 525 468 q 735 499 686 468 q 736 687 736 568 q 722 826 736 806 l 667 826 q 592 879 592 826 q 594 897 592 892 l 1017 897 q 1101 917 1061 897 q 1142 974 1142 938 q 1120 1028 1142 1010 q 1059 1046 1099 1046 q 951 1016 1019 1046 q 840 986 883 986 q 720 1038 774 986 q 667 1161 667 1090 q 701 1242 667 1210 q 786 1275 736 1275 q 833 1260 813 1275 q 853 1227 853 1244 q 851 1204 853 1210 q 767 1184 808 1204 q 726 1128 726 1164 q 748 1074 726 1092 q 810 1056 769 1056 q 916 1085 850 1056 q 1038 1115 982 1115 q 1148 1063 1094 1115 q 1201 940 1201 1011 q 1193 897 1201 917 l 1294 897 q 1369 844 1369 897 q 1367 826 1369 832 l 1151 826 q 1183 715 1183 806 l 1178 111 q 1192 -1 1178 19 q 1168 -7 1181 -7 q 1104 108 1104 -7 l 1110 713 q 1096 826 1110 806 l 778 826 q 810 715 810 806 z "},"ओ":{"ha":1332,"x_min":7,"x_max":1369,"o":"m 810 715 l 804 111 q 818 -1 804 19 q 794 -7 807 -7 q 731 108 731 -7 q 742 418 731 294 q 637 404 700 404 q 513 435 574 404 q 536 338 536 385 q 481 203 536 253 q 347 153 425 153 q 204 185 269 153 q 98 261 139 217 q 32 347 57 306 q 7 412 7 389 q 29 440 7 435 q 144 289 72 351 q 295 226 217 226 q 418 265 374 226 q 463 381 463 304 q 400 503 463 457 q 295 472 343 472 q 216 492 247 472 q 185 544 185 511 q 207 595 185 578 q 274 613 229 613 q 368 582 318 613 q 442 711 442 638 q 402 798 442 768 q 292 828 363 828 q 167 781 222 828 q 138 826 138 796 q 172 878 138 857 q 260 900 206 900 q 433 835 360 900 q 506 681 506 769 q 438 531 506 592 q 606 468 525 468 q 735 499 686 468 q 736 687 736 568 q 722 826 736 806 l 667 826 q 592 879 592 826 q 594 897 592 892 l 1114 897 q 1009 1076 1072 992 q 882 1160 946 1160 q 813 1110 832 1160 q 777 1133 790 1115 q 764 1176 764 1150 q 788 1224 764 1203 q 859 1244 813 1244 q 964 1197 906 1244 q 1061 1088 1022 1150 q 1125 972 1100 1025 q 1153 897 1150 918 l 1294 897 q 1369 844 1369 897 q 1367 826 1369 832 l 1151 826 q 1183 715 1183 806 l 1178 111 q 1192 -1 1178 19 q 1168 -7 1181 -7 q 1104 108 1104 -7 l 1110 713 q 1096 826 1110 806 l 778 826 q 810 715 810 806 z "},"औ":{"ha":1332,"x_min":7,"x_max":1369,"o":"m 810 715 l 804 111 q 818 -1 804 19 q 794 -7 807 -7 q 731 108 731 -7 q 742 418 731 294 q 637 404 700 404 q 513 435 574 404 q 536 338 536 385 q 481 203 536 253 q 347 153 425 153 q 204 185 269 153 q 98 261 139 217 q 32 347 57 306 q 7 412 7 389 q 29 440 7 435 q 144 289 72 351 q 295 226 217 226 q 418 265 374 226 q 463 381 463 304 q 400 503 463 457 q 295 472 343 472 q 216 492 247 472 q 185 544 185 511 q 207 595 185 578 q 274 613 229 613 q 368 582 318 613 q 442 711 442 638 q 402 798 442 768 q 292 828 363 828 q 167 781 222 828 q 138 826 138 796 q 172 878 138 857 q 260 900 206 900 q 433 835 360 900 q 506 681 506 769 q 438 531 506 592 q 606 468 525 468 q 735 499 686 468 q 736 687 736 568 q 722 826 736 806 l 667 826 q 592 879 592 826 q 594 897 592 892 l 1103 897 q 864 1060 965 1060 q 785 986 797 1060 q 742 1006 761 986 q 724 1058 724 1025 q 752 1112 724 1090 q 821 1133 781 1133 q 983 1071 900 1133 q 1126 926 1065 1008 q 1099 1057 1117 994 q 1044 1174 1082 1119 q 963 1228 1006 1228 q 906 1194 919 1228 q 872 1243 872 1211 q 895 1294 872 1275 q 949 1314 918 1314 q 1045 1271 1001 1314 q 1114 1164 1089 1228 q 1163 921 1163 1032 q 1161 897 1163 904 l 1294 897 q 1369 844 1369 897 q 1367 826 1369 832 l 1151 826 q 1183 715 1183 806 l 1178 111 q 1192 -1 1178 19 q 1168 -7 1181 -7 q 1104 108 1104 -7 l 1110 713 q 1096 826 1110 806 l 778 826 q 810 715 810 806 z "},"क":{"ha":1015,"x_min":-49,"x_max":1057,"o":"m 982 897 q 1057 844 1057 897 q 1054 826 1057 832 l 511 826 q 543 708 543 806 q 538 554 543 610 q 697 643 597 643 q 871 565 796 643 q 946 386 946 486 q 890 256 946 310 q 746 201 835 201 q 684 219 710 201 q 658 261 658 236 q 663 281 658 271 q 715 274 694 274 q 837 319 793 274 q 881 429 881 365 q 835 534 881 493 q 729 575 789 575 q 619 539 669 575 q 540 432 569 503 q 538 124 538 229 q 551 -1 538 19 q 528 -7 540 -7 q 464 103 464 -7 q 474 307 464 214 q 304 213 419 213 q 136 291 211 213 q 61 469 61 369 q 117 600 61 546 q 261 654 172 654 q 323 637 297 654 q 349 594 349 619 q 344 575 349 586 q 292 582 313 582 q 170 536 214 582 q 126 426 126 490 q 172 322 126 363 q 278 281 218 281 q 388 317 338 281 q 467 422 438 353 q 469 707 469 608 q 456 826 469 806 l 26 826 q -49 879 -49 826 q -46 897 -49 892 l 982 897 z "},"ख":{"ha":1071,"x_min":-54,"x_max":1108,"o":"m 392 592 q 333 439 392 501 q 185 376 275 376 q 308 219 218 279 q 514 160 397 160 q 754 242 660 160 q 849 447 849 325 q 810 566 849 514 q 708 618 772 618 q 610 576 643 618 q 578 481 578 535 q 608 383 578 428 q 686 314 638 339 q 661 296 683 296 q 557 358 611 296 q 503 499 503 421 q 553 628 503 576 q 683 681 604 681 q 849 593 783 681 l 849 713 q 835 826 849 806 l 313 826 q 392 592 392 717 m 922 715 l 917 111 q 931 -1 917 19 q 907 -7 919 -7 q 843 108 843 -7 q 853 244 843 183 q 539 90 749 90 q 287 169 397 90 q 128 388 176 249 q 61 432 88 401 q 35 496 35 463 q 50 546 35 529 q 90 563 65 563 q 172 451 154 563 q 285 505 246 457 q 325 633 325 553 q 258 826 325 743 l 21 826 q -54 879 -54 826 q -51 897 -54 892 l 1033 897 q 1108 844 1108 897 q 1106 826 1108 832 l 890 826 q 922 715 922 806 z "},"ग":{"ha":771,"x_min":-54,"x_max":808,"o":"m 543 108 l 549 713 q 535 826 549 806 l 190 826 q 283 657 249 756 q 318 467 318 558 q 197 304 318 304 q 116 337 154 304 q 78 405 78 369 q 94 457 78 440 q 137 474 111 474 q 188 455 163 474 q 221 404 213 436 q 246 524 246 449 q 210 687 246 599 q 125 826 175 775 l 21 826 q -54 879 -54 826 q -51 897 -54 892 l 733 897 q 808 844 808 897 q 806 826 808 832 l 590 826 q 622 715 622 806 l 617 111 q 631 -1 617 19 q 607 -7 619 -7 q 543 108 543 -7 z "},"घ":{"ha":843,"x_min":-54,"x_max":881,"o":"m 213 826 q 160 699 160 776 q 203 575 160 622 q 303 608 256 608 q 378 591 350 608 q 407 542 407 574 q 382 496 407 511 q 320 481 357 481 q 239 499 283 481 q 188 392 188 463 q 240 280 188 322 q 369 238 293 238 q 513 277 446 238 q 617 385 579 317 q 621 713 621 697 q 607 826 621 806 l 213 826 m 694 715 l 689 111 q 703 -1 689 19 q 679 -7 692 -7 q 615 108 615 -7 q 624 268 615 204 q 404 169 546 169 q 206 249 293 169 q 119 411 119 329 q 168 546 119 493 q 94 710 94 615 q 131 832 94 774 q 21 826 78 826 q -54 879 -54 826 q -51 897 -54 892 l 806 897 q 881 844 881 897 q 878 826 881 832 l 663 826 q 694 715 694 806 z "},"ङ":{"ha":715,"x_min":-54,"x_max":753,"o":"m 561 544 q 561 558 561 544 q 577 589 561 572 q 622 606 593 606 q 675 581 650 606 q 700 528 700 556 q 684 483 700 500 q 640 467 668 467 q 586 492 611 467 q 561 544 561 517 m 261 690 l 371 689 q 442 746 442 689 q 396 826 442 790 l 21 826 q -54 879 -54 826 q -51 897 -54 892 l 678 897 q 753 844 753 897 q 750 826 753 832 l 458 826 q 513 717 513 775 q 481 650 513 681 q 369 619 449 619 l 286 621 q 195 598 235 621 q 156 528 156 575 q 187 456 156 481 q 272 432 218 432 l 383 438 q 537 374 475 438 q 599 238 599 310 q 537 119 599 167 q 381 71 475 71 q 131 143 243 71 q 18 267 18 215 q 38 293 18 286 q 346 143 150 143 q 475 176 419 143 q 531 271 531 208 q 503 339 531 313 q 429 365 476 365 q 314 358 429 365 q 163 414 238 358 q 89 543 89 469 q 135 653 89 617 q 261 690 182 690 z "},"च":{"ha":819,"x_min":-83,"x_max":857,"o":"m 671 715 l 665 111 q 679 -1 665 19 l 656 -7 q 592 99 592 -7 q 601 293 592 206 q 524 228 572 251 q 425 204 475 204 q 235 275 319 204 q 151 451 151 346 q 225 582 151 533 q 93 572 144 572 q -4 628 -4 572 q -1 643 -4 638 l 376 643 q 451 589 451 643 q 447 572 451 581 l 390 572 q 261 526 308 572 q 214 415 214 479 q 264 310 214 351 q 381 269 314 269 q 505 307 447 269 q 594 419 563 344 q 597 706 597 608 q 583 826 597 803 l -8 826 q -83 879 -83 826 q -81 897 -83 892 l 782 897 q 857 844 857 897 q 854 826 857 832 l 639 826 q 671 715 671 806 z "},"छ":{"ha":899,"x_min":-51,"x_max":936,"o":"m 165 660 q 200 547 165 592 q 291 574 244 574 q 367 556 338 574 q 397 508 397 539 q 374 461 397 476 q 313 446 350 446 q 229 468 276 446 q 168 349 168 428 q 237 219 168 269 q 399 168 306 168 q 565 201 492 168 q 679 286 638 233 q 764 513 764 393 q 736 623 764 579 q 661 667 708 667 q 588 631 614 667 q 561 540 561 594 q 639 374 561 454 q 617 361 632 361 q 533 427 578 361 q 489 562 489 493 q 523 676 489 631 q 613 726 557 721 q 599 826 613 804 l 264 826 q 165 660 165 769 m 861 897 q 936 844 936 897 q 933 826 936 832 l 654 826 q 686 718 686 806 q 792 628 753 694 q 831 485 831 561 q 722 209 831 318 q 447 100 613 100 q 209 181 318 100 q 100 376 100 261 q 161 519 100 465 q 97 683 97 590 q 157 831 97 776 q 18 826 88 826 q -51 879 -51 826 q -49 897 -51 892 l 861 897 z "},"ज":{"ha":924,"x_min":-54,"x_max":961,"o":"m 696 108 l 700 536 l 418 536 q 517 332 517 438 q 470 215 517 258 q 351 172 424 172 q 210 223 278 172 q 104 343 143 274 q 43 473 65 413 q 21 563 21 533 q 49 593 21 593 q 144 375 85 472 q 229 280 179 315 q 331 244 279 244 q 415 275 383 244 q 446 354 446 306 q 357 536 446 451 l 314 536 q 239 589 239 536 q 242 607 239 601 l 701 607 l 701 713 q 688 826 701 806 l 21 826 q -54 879 -54 826 q -51 897 -54 892 l 886 897 q 961 844 961 897 q 958 826 961 832 l 743 826 q 775 715 775 806 l 769 111 q 783 -1 769 19 q 760 -7 772 -7 q 696 108 696 -7 z "},"झ":{"ha":1021,"x_min":-54,"x_max":1058,"o":"m 797 464 l 799 713 q 785 826 799 806 l 458 826 q 522 710 522 775 q 486 638 522 667 q 379 608 450 608 l 288 610 q 210 587 244 610 q 175 524 175 564 q 204 459 175 485 q 288 433 233 433 q 378 436 288 433 q 475 419 408 436 q 596 401 542 401 q 797 464 718 401 m 286 683 l 375 682 q 451 738 451 682 q 397 826 451 785 l 21 826 q -54 879 -54 826 q -51 897 -54 892 l 983 897 q 1058 844 1058 897 q 1056 826 1058 832 l 840 826 q 872 715 872 806 l 867 111 q 881 -1 867 19 q 857 -7 869 -7 q 793 108 793 -7 q 801 375 793 267 q 650 339 738 339 q 564 347 608 339 q 603 233 603 294 q 533 98 603 150 q 364 46 463 46 q 251 60 307 46 q 328 -46 283 -6 q 419 -86 372 -86 q 493 -57 465 -86 q 526 -101 526 -72 q 504 -149 526 -131 q 440 -167 482 -167 q 310 -108 376 -167 q 199 78 243 -50 q 71 217 71 128 q 86 257 71 240 q 131 274 101 274 q 187 237 161 274 q 224 143 213 200 q 338 117 261 117 q 474 153 414 117 q 533 257 533 190 q 502 335 533 306 q 415 365 471 365 l 324 363 q 176 422 250 363 q 103 548 103 481 q 151 649 103 615 q 286 683 200 683 z "},"ञ":{"ha":936,"x_min":-54,"x_max":974,"o":"m 713 461 l 714 713 q 700 826 714 806 l 21 826 q -54 879 -54 826 q -51 897 -54 892 l 899 897 q 974 844 974 897 q 971 826 974 832 l 756 826 q 788 715 788 806 l 782 111 q 796 -1 782 19 q 772 -7 785 -7 q 708 108 708 -7 q 711 382 708 196 q 649 376 690 376 q 568 392 607 376 q 499 281 556 322 q 366 240 442 240 q 221 285 290 240 q 110 389 151 329 q 43 501 68 449 q 18 576 18 553 q 44 604 18 604 q 344 314 158 314 q 466 358 424 314 q 508 460 508 403 q 476 554 508 517 q 382 592 444 592 q 281 522 319 592 q 251 542 264 528 q 239 584 239 557 q 272 633 239 611 q 349 656 306 656 q 501 596 438 656 q 569 444 564 536 q 637 442 600 442 q 713 461 674 442 z "},"ट":{"ha":603,"x_min":-54,"x_max":640,"o":"m 565 897 q 640 844 640 897 q 638 826 640 832 l 404 826 q 446 730 446 785 q 411 638 446 675 q 326 574 376 600 q 226 519 276 547 q 140 448 175 492 q 106 338 106 404 q 165 223 106 272 q 302 174 224 174 q 442 217 381 174 q 517 336 504 260 q 557 320 540 336 q 574 278 574 304 q 503 163 574 214 q 331 113 433 113 q 132 188 229 113 q 35 369 35 264 q 60 473 35 426 q 125 547 86 519 q 208 602 164 575 q 292 648 253 629 q 356 694 331 667 q 382 753 382 722 q 339 826 382 800 l 21 826 q -54 879 -54 826 q -51 897 -54 892 l 565 897 z "},"ठ":{"ha":663,"x_min":-54,"x_max":700,"o":"m 315 150 q 357 150 315 150 q 467 206 400 150 q 533 347 533 263 q 472 491 533 431 q 301 567 410 551 q 168 479 199 508 q 106 335 106 418 q 167 201 106 251 q 315 150 229 150 m 625 897 q 700 844 700 897 q 697 826 700 832 l 386 826 q 431 718 431 782 q 356 601 431 654 q 538 494 472 572 q 604 318 604 415 q 530 154 604 221 q 342 88 456 88 q 131 169 228 88 q 35 369 35 251 q 69 487 35 435 q 151 570 103 539 q 250 628 200 601 q 367 753 367 693 q 324 826 367 800 l 21 826 q -54 879 -54 826 q -51 897 -54 892 l 625 897 z "},"ड":{"ha":628,"x_min":-54,"x_max":700,"o":"m 261 690 l 371 689 q 442 746 442 689 q 396 826 442 790 l 21 826 q -54 879 -54 826 q -51 897 -54 892 l 625 897 q 700 844 700 897 q 697 826 700 832 l 458 826 q 513 717 513 775 q 481 650 513 681 q 369 619 449 619 l 286 621 q 195 598 235 621 q 156 528 156 575 q 187 456 156 481 q 272 432 218 432 l 383 438 q 537 374 475 438 q 599 238 599 310 q 537 119 599 167 q 381 71 475 71 q 131 143 243 71 q 18 267 18 215 q 38 293 18 286 q 346 143 150 143 q 475 176 419 143 q 531 271 531 208 q 503 339 531 313 q 429 365 476 365 l 314 358 q 163 414 238 358 q 89 543 89 469 q 135 653 89 617 q 261 690 182 690 z "},"ढ":{"ha":653,"x_min":-54,"x_max":690,"o":"m 615 897 q 690 844 690 897 q 688 826 690 832 l 453 826 q 494 729 494 782 q 454 642 494 676 q 357 584 414 607 q 243 535 300 561 q 146 461 186 508 q 106 347 106 414 q 178 198 106 257 q 335 139 250 139 q 480 181 421 139 q 539 296 539 224 q 513 362 539 338 q 451 386 488 386 q 390 360 415 386 q 364 301 364 335 q 375 242 364 267 q 345 236 365 236 q 306 258 325 236 q 286 327 286 279 q 326 408 286 375 q 431 442 367 442 q 552 390 494 442 q 610 261 610 339 q 544 131 610 183 q 367 78 479 78 q 144 164 254 78 q 35 371 35 250 q 76 504 35 449 q 175 590 117 560 q 291 642 233 619 q 390 692 349 665 q 431 758 431 719 q 386 826 431 796 l 21 826 q -54 879 -54 826 q -51 897 -54 892 l 615 897 z "},"ण":{"ha":1003,"x_min":-54,"x_max":1040,"o":"m 174 715 l 171 521 q 204 378 171 433 q 307 322 238 322 q 446 575 446 322 q 414 826 446 744 l 142 826 q 174 715 174 806 m 97 518 l 100 713 q 86 826 100 806 l 21 826 q -54 879 -54 826 q -51 897 -54 892 l 965 897 q 1040 844 1040 897 q 1038 826 1040 832 l 822 826 q 854 715 854 806 l 849 111 q 863 -1 849 19 q 839 -7 851 -7 q 775 108 775 -7 l 781 713 q 767 826 781 806 l 458 826 q 518 526 518 725 q 339 261 518 261 q 172 338 247 261 q 97 518 97 414 z "},"त":{"ha":732,"x_min":-54,"x_max":769,"o":"m 504 108 l 508 526 l 338 526 q 153 369 153 526 q 196 190 153 282 q 310 35 239 99 q 281 18 304 18 q 209 74 258 18 q 118 222 160 129 q 76 402 76 314 q 138 544 76 490 q 294 597 199 597 q 510 582 390 597 l 510 713 q 496 826 510 806 l 21 826 q -54 879 -54 826 q -51 897 -54 892 l 694 897 q 769 844 769 897 q 767 826 769 832 l 551 826 q 583 715 583 806 l 578 111 q 592 -1 578 19 q 568 -7 581 -7 q 504 108 504 -7 z "},"थ":{"ha":853,"x_min":68,"x_max":890,"o":"m 704 715 l 699 111 q 713 -1 699 19 q 689 -7 701 -7 q 625 99 625 -7 q 633 289 625 206 q 406 206 543 206 q 168 284 268 206 q 68 439 68 363 q 181 539 68 489 q 275 583 228 560 q 355 644 322 607 q 388 728 388 682 q 360 803 388 774 q 286 832 332 832 q 209 801 240 832 q 178 718 178 771 q 219 628 178 665 q 203 622 214 622 q 135 663 164 622 q 106 760 106 703 q 149 858 106 818 q 251 897 193 897 q 394 833 332 897 q 457 690 457 768 q 424 599 457 640 q 346 531 392 557 q 253 484 300 506 q 174 442 207 463 q 142 400 142 421 q 207 314 142 356 q 354 272 272 272 q 626 396 525 272 q 631 733 631 696 q 622 793 631 771 q 588 828 613 815 q 549 879 549 847 q 551 897 549 892 l 815 897 q 890 844 890 897 q 888 826 890 832 l 668 826 q 704 715 704 807 z "},"द":{"ha":653,"x_min":-54,"x_max":683,"o":"m 608 897 q 683 844 683 897 q 681 826 683 832 l 490 826 q 521 742 521 789 q 481 663 521 696 q 383 610 440 631 q 267 566 325 589 q 168 499 208 543 q 128 390 128 454 q 194 260 128 307 q 340 214 260 214 q 474 243 419 214 q 440 313 440 281 q 458 366 440 346 q 507 386 475 386 q 563 355 539 386 q 588 280 588 324 q 557 203 588 236 q 622 32 622 103 q 600 -33 622 -10 q 553 -56 578 -56 q 486 -6 494 -56 q 534 15 517 -4 q 551 61 551 33 q 519 174 551 119 q 393 146 469 146 q 158 229 261 146 q 56 415 56 313 q 97 544 56 490 q 198 624 139 597 q 317 672 257 651 q 418 715 376 692 q 460 772 460 739 q 429 826 460 804 l 21 826 q -54 879 -54 826 q -51 897 -54 892 l 608 897 z "},"ध":{"ha":822,"x_min":-75,"x_max":860,"o":"m 674 715 l 668 111 q 682 -1 668 19 q 658 -7 671 -7 q 594 108 594 -7 q 603 268 594 204 q 383 169 525 169 q 184 246 269 169 q 99 403 99 322 q 146 536 99 485 q 74 692 74 604 q 135 832 74 781 q 0 826 50 826 q -75 879 -75 826 q -72 897 -75 892 l 238 897 q 313 844 313 897 q 310 826 313 832 l 281 826 q 177 780 215 826 q 139 672 139 733 q 181 567 139 610 q 278 600 231 600 q 355 583 326 600 q 383 534 383 565 q 358 488 383 503 q 297 472 333 472 q 215 490 261 472 q 167 383 167 447 q 218 278 167 318 q 344 238 269 238 q 488 277 419 238 q 596 385 557 317 q 600 734 600 697 q 591 793 600 771 q 557 828 582 815 q 518 879 518 847 q 521 897 518 892 l 785 897 q 860 844 860 897 q 857 826 860 832 l 638 826 q 674 715 674 807 z "},"न":{"ha":753,"x_min":-54,"x_max":790,"o":"m 525 108 l 529 526 l 242 526 q 154 502 192 526 q 117 428 117 478 q 152 348 117 379 q 232 317 188 317 q 303 341 276 317 q 331 404 331 365 q 326 433 331 419 q 377 413 358 433 q 396 353 396 393 q 361 282 396 314 q 258 250 326 250 q 117 317 190 250 q 44 454 44 385 q 92 560 44 524 q 217 597 139 597 q 531 582 360 597 l 531 713 q 517 826 531 806 l 21 826 q -54 879 -54 826 q -51 897 -54 892 l 715 897 q 790 844 790 897 q 788 826 790 832 l 572 826 q 604 715 604 806 l 599 111 q 613 -1 599 19 q 589 -7 601 -7 q 525 108 525 -7 z "},"ऩ":{"ha":753,"x_min":-54,"x_max":790,"o":"m 168 106 q 168 118 168 106 q 182 144 168 131 q 219 158 196 158 q 265 138 243 158 q 286 93 286 117 q 272 55 286 69 q 233 40 258 40 q 188 60 208 40 q 168 106 168 81 m 525 108 l 529 526 l 242 526 q 154 502 192 526 q 117 428 117 478 q 152 348 117 379 q 232 317 188 317 q 303 341 276 317 q 331 404 331 365 q 326 433 331 419 q 377 413 358 433 q 396 353 396 393 q 361 282 396 314 q 258 250 326 250 q 117 317 190 250 q 44 454 44 385 q 92 560 44 524 q 217 597 139 597 q 531 582 360 597 l 531 713 q 517 826 531 806 l 21 826 q -54 879 -54 826 q -51 897 -54 892 l 715 897 q 790 844 790 897 q 788 826 790 832 l 572 826 q 604 715 604 806 l 599 111 q 613 -1 599 19 q 589 -7 601 -7 q 525 108 525 -7 z "},"प":{"ha":756,"x_min":-54,"x_max":793,"o":"m 185 715 l 183 447 q 219 353 183 392 q 315 315 254 315 q 531 431 443 315 q 533 707 533 608 q 519 826 533 806 l 153 826 q 185 715 185 806 m 110 481 l 111 713 q 97 826 111 806 l 21 826 q -54 879 -54 826 q -51 897 -54 892 l 718 897 q 793 844 793 897 q 790 826 793 832 l 575 826 q 607 715 607 806 l 601 111 q 615 -1 601 19 q 592 -7 604 -7 q 528 113 528 -7 q 535 324 528 233 q 356 244 461 244 q 181 322 251 244 q 110 481 110 400 z "},"फ":{"ha":1058,"x_min":-54,"x_max":1115,"o":"m 185 715 l 183 447 q 219 353 183 392 q 310 315 254 315 q 417 348 367 315 q 497 439 468 381 q 500 710 500 614 q 486 826 500 806 l 153 826 q 185 715 185 806 m 110 481 l 111 713 q 97 826 111 806 l 21 826 q -54 879 -54 826 q -51 897 -54 892 l 1040 897 q 1115 844 1115 897 q 1113 826 1115 832 l 542 826 q 574 706 574 806 q 564 536 574 606 q 756 635 633 635 q 928 553 851 635 q 1004 381 1004 472 q 945 233 1004 289 q 792 176 886 176 q 726 194 757 176 q 696 242 696 211 q 700 264 696 251 q 774 251 742 251 q 895 299 851 251 q 939 414 939 347 q 892 524 939 481 q 780 567 844 567 q 659 530 715 567 q 571 422 603 493 q 568 111 568 324 q 582 -1 568 19 q 558 -7 571 -7 q 507 24 519 -7 q 494 143 494 56 q 501 319 494 231 q 348 244 444 244 q 181 322 251 244 q 110 481 110 400 z "},"ब":{"ha":733,"x_min":-49,"x_max":771,"o":"m 179 575 q 126 448 126 525 q 178 324 126 371 q 297 278 229 278 q 419 314 364 278 l 179 575 m 585 715 l 579 111 q 593 -1 579 19 l 569 -7 q 506 101 506 -7 q 515 297 506 208 q 342 213 453 213 q 147 292 232 213 q 61 489 61 371 q 122 635 61 574 q 279 696 183 696 q 367 675 335 696 q 400 624 400 654 q 396 604 400 613 q 306 624 354 624 q 215 601 257 624 l 454 342 q 508 419 486 374 q 511 704 511 606 q 497 826 511 803 l 26 826 q -49 879 -49 826 q -46 897 -49 892 l 696 897 q 771 844 771 897 q 768 826 771 832 l 553 826 q 585 715 585 806 z "},"भ":{"ha":832,"x_min":0,"x_max":869,"o":"m 608 474 l 610 713 q 596 826 610 806 l 479 826 q 404 879 404 826 q 407 897 404 892 l 794 897 q 869 844 869 897 q 867 826 869 832 l 651 826 q 683 715 683 806 l 678 111 q 692 -1 678 19 q 668 -7 681 -7 q 604 99 604 -7 q 607 415 604 204 l 304 415 q 233 290 292 290 q 151 333 190 290 q 111 415 111 375 q 228 486 111 483 q 232 579 232 532 q 133 836 232 836 q 85 813 103 836 q 68 757 68 789 q 104 651 68 693 q 85 646 96 646 q 25 689 50 646 q 0 783 0 732 q 28 867 0 835 q 103 900 56 900 q 249 786 194 900 q 306 486 303 672 q 608 474 501 483 z "},"म":{"ha":806,"x_min":-54,"x_max":843,"o":"m 582 474 l 583 713 q 569 826 583 806 l 246 826 q 274 758 267 813 q 281 609 281 704 q 279 486 281 514 q 582 474 475 483 m 657 715 l 651 111 q 665 -1 651 19 q 642 -7 654 -7 q 578 99 578 -7 q 581 415 578 204 l 275 415 q 207 290 261 290 q 124 333 164 290 q 85 415 85 375 q 206 486 85 486 q 208 585 208 553 q 190 826 208 807 l 21 826 q -54 879 -54 826 q -51 897 -54 892 l 768 897 q 843 844 843 897 q 840 826 843 832 l 625 826 q 657 715 657 806 z "},"य":{"ha":801,"x_min":-42,"x_max":839,"o":"m 336 681 q 303 592 336 635 q 231 522 269 549 q 125 422 125 453 q 191 333 125 378 q 333 289 257 289 q 575 390 496 289 q 579 674 579 543 q 565 826 579 806 l 283 826 q 336 681 336 756 m 653 715 l 647 111 q 661 -1 647 19 q 638 -7 650 -7 q 574 100 574 -7 q 583 290 574 207 q 376 222 500 222 q 153 305 251 222 q 54 465 54 388 q 161 572 54 507 q 233 635 200 596 q 267 727 267 675 q 224 826 267 779 l 33 826 q -42 879 -42 826 q -39 897 -42 892 l 764 897 q 839 844 839 897 q 836 826 839 832 l 621 826 q 653 715 653 806 z "},"र":{"ha":542,"x_min":-54,"x_max":579,"o":"m 504 897 q 579 844 579 897 q 576 826 579 832 l 357 826 q 461 574 461 713 q 392 413 461 474 q 235 351 324 351 q 213 353 219 351 q 296 139 246 197 q 417 82 344 82 q 464 92 444 82 q 474 51 474 74 q 454 12 474 29 q 395 -6 435 -6 q 314 31 356 -6 q 243 125 272 67 q 163 363 189 236 q 71 415 107 378 q 35 504 35 453 q 53 553 35 532 q 99 574 72 574 q 201 426 175 574 l 211 426 q 342 478 294 428 q 390 599 390 528 q 363 729 390 669 q 290 826 336 789 l 21 826 q -54 879 -54 826 q -51 897 -54 892 l 504 897 z "},"ऱ":{"ha":542,"x_min":-54,"x_max":579,"o":"m 22 17 q 22 29 22 17 q 36 56 22 42 q 74 69 50 69 q 119 49 97 69 q 140 4 140 28 q 126 -34 140 -19 q 88 -49 113 -49 q 43 -28 64 -49 q 22 17 22 -8 m 504 897 q 579 844 579 897 q 576 826 579 832 l 357 826 q 461 574 461 713 q 392 413 461 474 q 235 351 324 351 q 213 353 219 351 q 296 139 246 197 q 417 82 344 82 q 464 92 444 82 q 474 51 474 74 q 454 12 474 29 q 395 -6 435 -6 q 314 31 356 -6 q 243 125 272 67 q 163 363 189 236 q 71 415 107 378 q 35 504 35 453 q 53 553 35 532 q 99 574 72 574 q 201 426 175 574 l 211 426 q 342 478 294 428 q 390 599 390 528 q 363 729 390 669 q 290 826 336 789 l 21 826 q -54 879 -54 826 q -51 897 -54 892 l 504 897 z "},"ल":{"ha":996,"x_min":-54,"x_max":1033,"o":"m 768 108 l 772 492 q 661 528 725 528 q 519 439 569 528 q 542 351 542 392 q 526 283 542 311 q 476 254 510 254 q 422 280 442 254 q 401 355 401 306 q 439 464 401 404 q 305 535 381 535 q 191 484 229 535 q 153 353 153 433 q 205 188 153 272 q 344 35 257 103 q 317 18 339 18 q 256 51 296 18 q 175 134 215 83 q 106 255 135 185 q 76 390 76 325 q 134 551 76 496 q 278 606 192 606 q 379 580 326 606 q 472 510 432 554 q 628 597 540 597 q 772 547 715 597 q 774 703 774 600 q 760 826 774 806 l 21 826 q -54 879 -54 826 q -51 897 -54 892 l 958 897 q 1033 844 1033 897 q 1031 826 1033 832 l 815 826 q 847 715 847 806 l 842 111 q 856 -1 842 19 q 832 -7 844 -7 q 768 108 768 -7 z "},"ळ":{"ha":992,"x_min":-49,"x_max":1033,"o":"m 648 236 q 691 236 648 236 q 794 291 735 236 q 853 419 853 346 q 813 535 853 493 q 708 578 774 578 q 593 511 638 578 q 531 396 564 468 q 483 296 499 324 q 648 236 561 236 m 392 300 q 453 417 421 344 q 501 517 486 489 q 337 576 424 576 q 191 522 250 576 q 132 393 132 467 q 172 277 132 319 q 279 235 211 235 q 392 300 347 235 m 958 897 q 1033 844 1033 897 q 1031 826 1033 832 l 697 826 q 724 770 718 813 q 731 636 731 728 q 867 545 810 615 q 924 388 924 475 q 854 235 924 300 q 683 169 785 169 q 560 197 618 169 q 468 269 503 224 q 309 169 404 169 q 138 247 214 169 q 61 418 61 324 q 131 578 61 513 q 301 643 200 643 q 425 616 368 643 q 517 543 482 589 q 657 642 575 633 q 642 826 657 794 l 26 826 q -49 879 -49 826 q -46 897 -49 892 l 958 897 z "},"ऴ":{"ha":992,"x_min":-49,"x_max":1033,"o":"m 147 31 q 147 43 147 31 q 161 69 147 56 q 199 83 175 83 q 244 63 222 83 q 265 18 265 42 q 251 -20 265 -6 q 213 -35 238 -35 q 168 -15 189 -35 q 147 31 147 6 m 648 236 q 691 236 648 236 q 794 291 735 236 q 853 419 853 346 q 813 535 853 493 q 708 578 774 578 q 593 511 638 578 q 531 396 564 468 q 483 296 499 324 q 648 236 561 236 m 392 300 q 453 417 421 344 q 501 517 486 489 q 337 576 424 576 q 191 522 250 576 q 132 393 132 467 q 172 277 132 319 q 279 235 211 235 q 392 300 347 235 m 958 897 q 1033 844 1033 897 q 1031 826 1033 832 l 697 826 q 724 770 718 813 q 731 636 731 728 q 867 545 810 615 q 924 388 924 475 q 854 235 924 300 q 683 169 785 169 q 560 197 618 169 q 468 269 503 224 q 309 169 404 169 q 138 247 214 169 q 61 418 61 324 q 131 578 61 513 q 301 643 200 643 q 425 616 368 643 q 517 543 482 589 q 657 642 575 633 q 642 826 657 794 l 26 826 q -49 879 -49 826 q -46 897 -49 892 l 958 897 z "},"व":{"ha":736,"x_min":-49,"x_max":774,"o":"m 588 715 l 582 111 q 596 -1 582 19 l 572 -7 q 508 101 508 -7 q 518 297 508 208 q 347 213 456 213 q 156 290 238 213 q 74 471 74 367 q 140 629 74 575 q 272 683 206 683 q 403 615 403 683 q 399 596 403 604 q 317 611 357 611 q 186 560 233 611 q 139 438 139 508 q 188 322 139 367 q 301 278 236 278 q 423 315 367 278 q 511 419 479 351 q 514 704 514 606 q 500 826 514 803 l 26 826 q -49 879 -49 826 q -46 897 -49 892 l 699 897 q 774 844 774 897 q 771 826 774 832 l 556 826 q 588 715 588 806 z "},"श":{"ha":974,"x_min":47,"x_max":1011,"o":"m 246 321 l 235 321 q 463 81 317 81 q 526 92 496 81 q 536 51 536 74 q 517 12 536 29 q 465 -6 497 -6 q 183 329 288 -6 q 86 381 125 344 q 47 463 47 417 q 64 508 47 489 q 113 526 81 526 q 173 487 144 526 q 214 393 201 447 q 400 458 331 396 q 469 635 469 521 q 431 776 469 717 q 331 835 393 835 q 261 804 288 835 q 235 728 235 774 q 269 640 235 682 q 356 576 304 599 q 325 556 347 556 q 215 616 271 556 q 160 744 160 676 q 199 857 160 813 q 301 901 239 901 q 468 807 394 901 q 542 598 542 713 q 456 402 542 483 q 246 321 371 321 m 746 108 l 751 713 q 742 793 751 771 q 708 828 733 815 q 669 879 669 847 q 672 897 669 892 l 936 897 q 1011 844 1011 897 q 1008 826 1011 832 l 789 826 q 825 715 825 807 l 819 111 q 833 -1 819 19 q 810 -7 822 -7 q 746 108 746 -7 z "},"ष":{"ha":776,"x_min":-54,"x_max":814,"o":"m 551 433 q 554 707 554 611 q 540 826 554 803 l 160 826 q 263 737 192 808 q 551 433 333 665 m 185 707 l 183 447 q 219 353 183 392 q 315 315 254 315 q 519 399 428 315 q 178 753 292 650 q 185 707 185 732 m 110 481 l 111 713 q 97 826 111 806 l 21 826 q -54 879 -54 826 q -51 897 -54 892 l 739 897 q 814 844 814 897 q 811 826 814 832 l 596 826 q 628 715 628 806 l 622 111 q 636 -1 622 19 q 613 -7 625 -7 q 561 24 574 -7 q 549 147 549 56 q 557 326 549 238 q 349 244 469 244 q 181 322 251 244 q 110 481 110 400 z "},"स":{"ha":965,"x_min":-54,"x_max":1003,"o":"m 742 474 l 743 713 q 729 826 743 806 l 357 826 q 461 574 461 713 q 433 465 461 513 q 590 443 506 443 q 742 474 675 443 m 817 715 l 811 111 q 825 -1 811 19 q 801 -7 814 -7 q 738 108 738 -7 q 740 389 738 197 q 631 375 696 375 q 403 424 515 375 q 235 351 338 351 q 213 353 219 351 q 296 139 246 197 q 417 82 344 82 q 464 92 444 82 q 474 51 474 74 q 454 12 474 29 q 395 -6 435 -6 q 314 31 356 -6 q 243 125 272 67 q 163 363 189 236 q 71 415 107 378 q 35 504 35 453 q 53 553 35 532 q 99 574 72 574 q 201 426 175 574 l 211 426 q 342 478 294 428 q 390 599 390 528 q 363 729 390 669 q 290 826 336 789 l 21 826 q -54 879 -54 826 q -51 897 -54 892 l 928 897 q 1003 844 1003 897 q 1000 826 1003 832 l 785 826 q 817 715 817 806 z "},"ह":{"ha":676,"x_min":-54,"x_max":714,"o":"m 306 683 l 399 682 q 451 698 432 682 q 469 739 469 714 q 414 826 469 793 l 21 826 q -54 879 -54 826 q -51 897 -54 892 l 639 897 q 714 844 714 897 q 711 826 714 832 l 482 826 q 536 708 536 775 q 504 638 536 665 q 415 611 472 611 l 304 613 q 211 578 244 613 q 178 496 178 543 q 224 399 178 449 q 380 442 288 442 q 540 374 472 442 q 608 231 608 307 q 576 139 608 178 q 494 100 544 100 q 449 115 468 100 q 429 158 429 131 q 513 189 482 160 q 543 265 543 218 q 503 344 543 313 q 393 376 464 376 q 258 322 322 376 q 193 164 193 267 q 281 -3 193 61 q 494 -67 369 -67 q 528 -65 517 -67 l 529 -76 q 471 -111 529 -111 q 226 -24 333 -111 q 119 199 119 64 q 189 369 119 297 q 113 519 113 446 q 159 638 113 593 q 306 683 206 683 z "},"़":{"ha":0,"x_min":-497,"x_max":-379,"o":"m -431 -204 q -443 -204 -431 -204 q -476 -184 -456 -204 q -497 -139 -497 -164 q -483 -100 -497 -114 q -446 -86 -469 -86 q -401 -107 -422 -86 q -379 -151 -379 -128 q -393 -190 -379 -175 q -431 -204 -407 -204 z "},"ऽ":{"ha":790,"x_min":147,"x_max":669,"o":"m 340 576 q 313 596 340 576 q 246 665 285 615 q 207 763 207 714 q 228 839 207 811 q 290 878 250 867 q 454 899 358 899 q 588 888 550 899 q 625 846 625 876 q 621 826 625 835 q 449 828 539 828 q 324 805 358 828 q 290 745 290 782 q 318 674 290 708 q 388 610 346 639 q 480 546 431 582 q 572 474 529 510 q 642 389 614 439 q 669 283 669 339 q 610 153 669 201 q 453 104 551 104 q 251 172 356 104 q 147 289 147 239 q 165 315 147 306 q 291 211 222 247 q 429 175 360 175 q 542 208 499 175 q 585 299 585 242 q 546 408 585 357 q 451 499 507 460 q 340 576 396 538 z "},"ा":{"ha":374,"x_min":-54,"x_max":411,"o":"m 146 108 l 151 713 q 138 826 151 806 l 21 826 q -54 879 -54 826 q -51 897 -54 892 l 336 897 q 411 844 411 897 q 408 826 411 832 l 193 826 q 225 715 225 806 l 219 111 q 233 -1 219 19 q 210 -7 222 -7 q 146 108 146 -7 z "},"ि":{"ha":374,"x_min":-54,"x_max":881,"o":"m 146 108 l 151 713 q 144 826 151 775 l 21 826 q -54 879 -54 826 q -51 897 -54 892 l 129 897 q 119 925 126 906 q 110 954 113 944 q 103 981 107 964 q 96 1053 96 1010 q 165 1199 96 1144 q 347 1253 235 1253 q 591 1203 460 1253 q 801 1098 722 1154 q 881 1014 881 1042 q 868 994 881 1001 q 633 1130 763 1074 q 375 1186 503 1186 q 228 1144 289 1186 q 167 1014 167 1101 q 189 897 167 972 l 336 897 q 411 844 411 897 q 408 826 411 832 l 211 826 q 225 715 225 774 l 219 111 q 233 -1 219 19 q 210 -7 222 -7 q 146 108 146 -7 z "},"ी":{"ha":374,"x_min":-269,"x_max":411,"o":"m 146 108 l 151 713 q 146 826 151 778 l 21 826 q -54 879 -54 826 q -51 897 -54 892 l 135 897 q 45 1110 108 1033 q -100 1188 -18 1188 q -170 1160 -142 1188 q -199 1088 -199 1133 q -156 996 -199 1042 q -174 986 -160 986 q -239 1025 -208 986 q -269 1122 -269 1064 q -228 1217 -269 1179 q -125 1256 -187 1256 q 72 1153 -18 1256 q 201 897 161 1051 l 336 897 q 411 844 411 897 q 408 826 411 832 l 217 826 q 225 715 225 772 l 219 111 q 233 -1 219 19 q 210 -7 222 -7 q 146 108 146 -7 z "},"ु":{"ha":0,"x_min":-562,"x_max":-19,"o":"m -19 -158 q -19 -193 -19 -158 q -76 -273 -19 -228 q -219 -318 -133 -318 q -388 -269 -304 -318 q -517 -163 -472 -219 q -562 -81 -562 -107 q -542 -49 -562 -54 q -410 -194 -487 -137 q -251 -251 -332 -251 q -126 -215 -171 -251 q -81 -138 -81 -179 q -105 -76 -81 -97 q -165 -54 -129 -54 q -258 -117 -232 -54 q -294 -99 -281 -115 q -307 -58 -307 -83 q -278 -11 -307 -33 q -207 11 -250 11 q -78 -38 -136 11 q -19 -158 -19 -87 z "},"ू":{"ha":0,"x_min":-368,"x_max":158,"o":"m -182 -322 q -308 -266 -247 -322 q -368 -144 -368 -210 q -320 -36 -368 -78 q -199 6 -272 6 q 47 -99 -64 6 q 158 -275 158 -204 q 136 -301 158 -297 q 12 -134 90 -203 q -162 -65 -67 -65 q -259 -99 -219 -65 q -299 -172 -299 -132 q -278 -231 -299 -211 q -224 -250 -258 -250 q -139 -204 -168 -250 q -99 -249 -99 -214 q -124 -303 -99 -283 q -182 -322 -150 -322 z "},"ृ":{"ha":0,"x_min":-418,"x_max":-10,"o":"m -197 -310 q -240 -310 -197 -310 q -351 -260 -283 -310 q -418 -131 -418 -210 q -359 1 -418 -51 q -232 53 -300 53 q -164 -7 -164 53 q -299 -57 -250 -17 q -347 -149 -347 -97 q -313 -227 -347 -200 q -226 -254 -279 -254 q -124 -217 -174 -254 q -60 -122 -75 -181 q -25 -141 -40 -125 q -10 -181 -10 -157 q -60 -269 -10 -229 q -197 -310 -111 -310 z "},"ॄ":{"ha":0,"x_min":-378,"x_max":8,"o":"m 8 -433 q -31 -499 8 -474 q -117 -525 -69 -525 q -253 -473 -189 -525 q -318 -352 -318 -421 q -265 -244 -318 -283 q -346 -181 -314 -222 q -378 -84 -378 -140 q -332 13 -378 -28 q -225 53 -286 53 q -164 -7 -164 53 q -310 -114 -310 -22 q -283 -174 -310 -149 q -210 -199 -256 -199 q -132 -165 -165 -199 q -104 -201 -104 -175 q -127 -244 -104 -226 q -178 -271 -150 -261 q -230 -306 -207 -281 q -253 -368 -253 -331 q -228 -431 -253 -406 q -156 -460 -200 -460 q -78 -440 -112 -460 q -32 -386 -44 -419 q -3 -401 -15 -389 q 8 -433 8 -414 z "},"ॅ":{"ha":0,"x_min":-468,"x_max":38,"o":"m -224 1129 q -96 1158 -156 1129 q -7 1244 -36 1188 q 38 1186 38 1235 q -30 1102 38 1138 q -197 1067 -97 1067 q -383 1121 -297 1067 q -468 1217 -468 1175 q -450 1242 -468 1235 q -224 1129 -367 1129 z "},"ॆ":{"ha":0,"x_min":-669,"x_max":-135,"o":"m -610 1128 q -610 1110 -610 1128 q -588 1074 -610 1092 q -526 1056 -567 1056 q -420 1085 -486 1056 q -298 1115 -354 1115 q -188 1063 -242 1115 q -135 940 -135 1011 q -169 859 -135 892 q -254 826 -204 826 q -301 842 -281 826 q -321 874 -321 857 q -319 897 -321 892 q -235 917 -275 897 q -194 974 -194 938 q -216 1028 -194 1010 q -277 1046 -237 1046 q -385 1016 -317 1046 q -496 986 -453 986 q -616 1038 -562 986 q -669 1161 -669 1090 q -635 1242 -669 1210 q -550 1275 -600 1275 q -503 1260 -524 1275 q -483 1227 -483 1244 q -485 1204 -483 1210 q -569 1184 -528 1204 q -610 1128 -610 1164 z "},"े":{"ha":0,"x_min":-569,"x_max":-181,"o":"m -347 1100 q -452 1160 -403 1160 q -521 1110 -501 1160 q -556 1133 -543 1115 q -569 1176 -569 1150 q -545 1224 -569 1203 q -485 1244 -521 1244 q -367 1195 -426 1244 q -269 1083 -308 1146 q -206 965 -231 1019 q -181 894 -181 911 q -207 867 -181 867 q -347 1100 -253 999 z "},"ै":{"ha":0,"x_min":-610,"x_max":-171,"o":"m -385 1314 q -288 1271 -332 1314 q -220 1163 -244 1228 q -183 1035 -196 1099 q -171 921 -171 971 q -206 867 -171 871 q -335 1000 -264 940 q -471 1060 -406 1060 q -549 986 -536 1060 q -591 1006 -572 986 q -610 1058 -610 1025 q -581 1112 -610 1090 q -512 1133 -553 1133 q -351 1071 -433 1133 q -207 926 -268 1008 q -234 1057 -217 994 q -290 1174 -251 1119 q -371 1228 -328 1228 q -428 1194 -414 1228 q -461 1243 -461 1211 q -438 1294 -461 1275 q -385 1314 -415 1314 z "},"ॉ":{"ha":374,"x_min":-94,"x_max":411,"o":"m 367 1244 q 411 1186 411 1235 q 344 1102 411 1138 q 176 1067 276 1067 q -9 1121 76 1067 q -94 1217 -94 1175 q -76 1242 -94 1235 q 150 1129 7 1129 q 278 1158 218 1129 q 367 1244 338 1188 m 146 108 l 151 713 q 138 826 151 806 l 21 826 q -54 879 -54 826 q -51 897 -54 892 l 336 897 q 411 844 411 897 q 408 826 411 832 l 193 826 q 225 715 225 806 l 219 111 q 233 -1 219 19 q 210 -7 222 -7 q 146 108 146 -7 z "},"ॊ":{"ha":374,"x_min":-292,"x_max":411,"o":"m 146 108 l 151 713 q 138 826 151 806 l 21 826 q -54 879 -54 826 q -51 897 -54 892 l 58 897 q 143 917 103 897 q 183 974 183 938 q 162 1028 183 1010 q 101 1046 140 1046 q -7 1016 61 1046 q -118 986 -75 986 q -238 1038 -185 986 q -292 1161 -292 1090 q -257 1242 -292 1210 q -172 1275 -222 1275 q -126 1260 -146 1275 q -106 1227 -106 1244 q -107 1204 -106 1210 q -191 1184 -150 1204 q -232 1128 -232 1164 q -210 1074 -232 1092 q -149 1056 -189 1056 q -42 1085 -108 1056 q 80 1115 24 1115 q 190 1063 136 1115 q 243 940 243 1011 q 235 897 243 917 l 336 897 q 411 844 411 897 q 408 826 411 832 l 193 826 q 225 715 225 806 l 219 111 q 233 -1 219 19 q 210 -7 222 -7 q 146 108 146 -7 z "},"ो":{"ha":374,"x_min":-194,"x_max":411,"o":"m 146 108 l 151 713 q 138 826 151 806 l 21 826 q -54 879 -54 826 q -51 897 -54 892 l 156 897 q 51 1076 114 992 q -76 1160 -12 1160 q -146 1110 -126 1160 q -181 1133 -168 1115 q -194 1176 -194 1150 q -170 1224 -194 1203 q -99 1244 -146 1244 q 6 1197 -53 1244 q 103 1088 64 1150 q 167 972 142 1025 q 194 897 192 918 l 336 897 q 411 844 411 897 q 408 826 411 832 l 193 826 q 225 715 225 806 l 219 111 q 233 -1 219 19 q 210 -7 222 -7 q 146 108 146 -7 z "},"ौ":{"ha":374,"x_min":-235,"x_max":411,"o":"m 146 108 l 151 713 q 138 826 151 806 l 21 826 q -54 879 -54 826 q -51 897 -54 892 l 144 897 q -94 1060 7 1060 q -174 986 -161 1060 q -216 1006 -197 986 q -235 1058 -235 1025 q -206 1112 -235 1090 q -137 1133 -178 1133 q 24 1071 -58 1133 q 168 926 107 1008 q 141 1057 158 994 q 85 1174 124 1119 q 5 1228 47 1228 q -53 1194 -37 1228 q -86 1243 -86 1211 q -63 1294 -86 1275 q -10 1314 -40 1314 q 87 1271 43 1314 q 156 1164 131 1228 q 204 921 204 1032 q 203 897 204 904 l 336 897 q 411 844 411 897 q 408 826 411 832 l 193 826 q 225 715 225 806 l 219 111 q 233 -1 219 19 q 210 -7 222 -7 q 146 108 146 -7 z "},"्":{"ha":0,"x_min":-290,"x_max":67,"o":"m -278 -128 q -290 -92 -290 -112 q -271 -55 -290 -71 q -208 -39 -251 -39 q -94 -85 -164 -39 q 22 -180 -24 -131 q 67 -246 67 -229 q 50 -269 67 -262 q -212 -111 -93 -111 q -278 -128 -249 -111 z "},"ॐ":{"ha":1340,"x_min":154,"x_max":1235,"o":"m 800 1160 q 800 1146 800 1160 q 784 1115 800 1132 q 740 1099 768 1099 q 686 1123 711 1099 q 661 1176 661 1147 q 677 1221 661 1204 q 722 1238 693 1238 q 775 1213 750 1238 q 800 1160 800 1188 m 996 1036 q 996 1012 996 1036 q 928 952 996 988 q 761 917 861 917 q 576 971 661 917 q 490 1067 490 1025 q 508 1092 490 1085 q 735 979 592 979 q 863 1008 803 979 q 951 1094 922 1038 q 996 1036 996 1085 m 990 774 q 1160 674 1086 774 q 1235 456 1235 575 q 1160 243 1235 336 q 983 150 1086 150 q 918 213 918 150 q 1097 296 1031 215 q 1163 506 1163 376 q 1125 640 1163 575 q 1021 704 1088 704 q 944 669 976 704 q 892 585 913 635 q 851 487 872 536 q 791 403 829 438 q 700 368 753 368 q 663 375 681 368 q 683 282 683 324 q 628 147 683 197 q 494 97 572 97 q 351 129 417 97 q 245 206 286 161 q 179 292 204 250 q 154 356 154 333 q 176 385 154 379 q 292 233 219 296 q 442 171 364 171 q 565 210 521 171 q 610 325 610 249 q 547 447 610 401 q 442 417 490 417 q 363 436 394 417 q 332 489 332 456 q 354 540 332 522 q 422 557 376 557 q 517 526 467 557 q 589 647 589 582 q 549 742 589 713 q 440 772 510 772 q 314 725 369 772 q 285 771 285 740 q 319 823 285 801 q 407 844 353 844 q 580 779 507 844 q 653 626 653 714 q 586 476 653 539 q 679 432 643 432 q 745 467 715 432 q 796 553 775 503 q 840 653 817 603 q 901 738 863 703 q 990 774 939 774 z "},"क़":{"ha":1015,"x_min":-49,"x_max":1057,"o":"m 161 97 q 161 109 161 97 q 175 135 161 121 q 213 149 189 149 q 258 128 236 149 q 279 83 279 107 q 265 45 279 60 q 227 31 251 31 q 182 51 203 31 q 161 97 161 72 m 982 897 q 1057 844 1057 897 q 1054 826 1057 832 l 511 826 q 543 708 543 806 q 538 554 543 610 q 697 643 597 643 q 871 565 796 643 q 946 386 946 486 q 890 256 946 310 q 746 201 835 201 q 684 219 710 201 q 658 261 658 236 q 663 281 658 271 q 715 274 694 274 q 837 319 793 274 q 881 429 881 365 q 835 534 881 493 q 729 575 789 575 q 619 539 669 575 q 540 432 569 503 q 538 124 538 229 q 551 -1 538 19 q 528 -7 540 -7 q 464 103 464 -7 q 474 307 464 214 q 304 213 419 213 q 136 291 211 213 q 61 469 61 369 q 117 600 61 546 q 261 654 172 654 q 323 637 297 654 q 349 594 349 619 q 344 575 349 586 q 292 582 313 582 q 170 536 214 582 q 126 426 126 490 q 172 322 126 363 q 278 281 218 281 q 388 317 338 281 q 467 422 438 353 q 469 707 469 608 q 456 826 469 806 l 26 826 q -49 879 -49 826 q -46 897 -49 892 l 982 897 z "},"ख़":{"ha":1071,"x_min":-54,"x_max":1108,"o":"m 82 8 q 82 20 82 8 q 96 46 82 32 q 133 60 110 60 q 178 39 157 60 q 200 -6 200 18 q 186 -44 200 -29 q 147 -58 172 -58 q 102 -37 122 -58 q 82 8 82 -17 m 392 592 q 333 439 392 501 q 185 376 275 376 q 308 219 218 279 q 514 160 397 160 q 754 242 660 160 q 849 447 849 325 q 810 566 849 514 q 708 618 772 618 q 610 576 643 618 q 578 481 578 535 q 608 383 578 428 q 686 314 638 339 q 661 296 683 296 q 557 358 611 296 q 503 499 503 421 q 553 628 503 576 q 683 681 604 681 q 849 593 783 681 l 849 713 q 835 826 849 806 l 313 826 q 392 592 392 717 m 922 715 l 917 111 q 931 -1 917 19 q 907 -7 919 -7 q 843 108 843 -7 q 853 244 843 183 q 539 90 749 90 q 287 169 397 90 q 128 388 176 249 q 61 432 88 401 q 35 496 35 463 q 50 546 35 529 q 90 563 65 563 q 172 451 154 563 q 285 505 246 457 q 325 633 325 553 q 258 826 325 743 l 21 826 q -54 879 -54 826 q -51 897 -54 892 l 1033 897 q 1108 844 1108 897 q 1106 826 1108 832 l 890 826 q 922 715 922 806 z "},"ग़":{"ha":771,"x_min":-54,"x_max":808,"o":"m 129 97 q 129 110 129 97 q 143 136 129 122 q 181 150 157 150 q 226 129 204 150 q 247 85 247 108 q 233 47 247 61 q 194 32 219 32 q 149 52 169 32 q 129 97 129 72 m 543 108 l 549 713 q 535 826 549 806 l 190 826 q 283 657 249 756 q 318 467 318 558 q 197 304 318 304 q 116 337 154 304 q 78 405 78 369 q 94 457 78 440 q 137 474 111 474 q 188 455 163 474 q 221 404 213 436 q 246 524 246 449 q 210 687 246 599 q 125 826 175 775 l 21 826 q -54 879 -54 826 q -51 897 -54 892 l 733 897 q 808 844 808 897 q 806 826 808 832 l 590 826 q 622 715 622 806 l 617 111 q 631 -1 617 19 q 607 -7 619 -7 q 543 108 543 -7 z "},"ज़":{"ha":924,"x_min":-54,"x_max":961,"o":"m 413 5 q 413 17 413 5 q 426 43 413 29 q 464 57 440 57 q 509 36 488 57 q 531 -8 531 15 q 517 -47 531 -32 q 478 -61 503 -61 q 433 -40 453 -61 q 413 5 413 -19 m 696 108 l 700 536 l 418 536 q 517 332 517 438 q 470 215 517 258 q 351 172 424 172 q 210 223 278 172 q 104 343 143 274 q 43 473 65 413 q 21 563 21 533 q 49 593 21 593 q 144 375 85 472 q 229 280 179 315 q 331 244 279 244 q 415 275 383 244 q 446 354 446 306 q 357 536 446 451 l 314 536 q 239 589 239 536 q 242 607 239 601 l 701 607 l 701 713 q 688 826 701 806 l 21 826 q -54 879 -54 826 q -51 897 -54 892 l 886 897 q 961 844 961 897 q 958 826 961 832 l 743 826 q 775 715 775 806 l 769 111 q 783 -1 769 19 q 760 -7 772 -7 q 696 108 696 -7 z "},"ड़":{"ha":628,"x_min":-54,"x_max":700,"o":"m 256 -103 q 256 -91 256 -103 q 269 -65 256 -79 q 307 -51 283 -51 q 352 -72 331 -51 q 374 -117 374 -93 q 360 -155 374 -140 q 322 -169 346 -169 q 276 -149 297 -169 q 256 -103 256 -128 m 261 690 l 371 689 q 442 746 442 689 q 396 826 442 790 l 21 826 q -54 879 -54 826 q -51 897 -54 892 l 625 897 q 700 844 700 897 q 697 826 700 832 l 458 826 q 513 717 513 775 q 481 650 513 681 q 369 619 449 619 l 286 621 q 195 598 235 621 q 156 528 156 575 q 187 456 156 481 q 272 432 218 432 l 383 438 q 537 374 475 438 q 599 238 599 310 q 537 119 599 167 q 381 71 475 71 q 131 143 243 71 q 18 267 18 215 q 38 293 18 286 q 346 143 150 143 q 475 176 419 143 q 531 271 531 208 q 503 339 531 313 q 429 365 476 365 q 314 358 429 365 q 163 414 238 358 q 89 543 89 469 q 135 653 89 617 q 261 690 182 690 z "},"ढ़":{"ha":653,"x_min":-54,"x_max":690,"o":"m 290 -65 q 290 -52 290 -65 q 304 -26 290 -40 q 342 -12 318 -12 q 387 -33 365 -12 q 408 -78 408 -54 q 394 -116 408 -101 q 356 -131 381 -131 q 310 -110 331 -131 q 290 -65 290 -89 m 615 897 q 690 844 690 897 q 688 826 690 832 l 453 826 q 494 729 494 782 q 454 642 494 676 q 357 584 414 607 q 243 535 300 561 q 146 461 186 508 q 106 347 106 414 q 178 198 106 257 q 335 139 250 139 q 480 181 421 139 q 539 296 539 224 q 513 362 539 338 q 451 386 488 386 q 390 360 415 386 q 364 301 364 335 q 375 242 364 267 q 345 236 365 236 q 306 258 325 236 q 286 327 286 279 q 326 408 286 375 q 431 442 367 442 q 552 390 494 442 q 610 261 610 339 q 544 131 610 183 q 367 78 479 78 q 144 164 254 78 q 35 371 35 250 q 76 504 35 449 q 175 590 117 560 q 291 642 233 619 q 390 692 349 665 q 431 758 431 719 q 386 826 431 796 l 21 826 q -54 879 -54 826 q -51 897 -54 892 l 615 897 z "},"फ़":{"ha":1058,"x_min":-54,"x_max":1115,"o":"m 164 105 q 164 117 164 105 q 178 143 164 129 q 215 157 192 157 q 260 136 239 157 q 282 92 282 115 q 268 53 282 68 q 230 39 254 39 q 185 60 206 39 q 164 105 164 81 m 185 715 l 183 447 q 219 353 183 392 q 310 315 254 315 q 417 348 367 315 q 497 439 468 381 q 500 710 500 614 q 486 826 500 806 l 153 826 q 185 715 185 806 m 110 481 l 111 713 q 97 826 111 806 l 21 826 q -54 879 -54 826 q -51 897 -54 892 l 1040 897 q 1115 844 1115 897 q 1113 826 1115 832 l 542 826 q 574 706 574 806 q 564 536 574 606 q 756 635 633 635 q 928 553 851 635 q 1004 381 1004 472 q 945 233 1004 289 q 792 176 886 176 q 726 194 757 176 q 696 242 696 211 q 700 264 696 251 q 774 251 742 251 q 895 299 851 251 q 939 414 939 347 q 892 524 939 481 q 780 567 844 567 q 659 530 715 567 q 571 422 603 493 q 568 111 568 324 q 582 -1 568 19 q 558 -7 571 -7 q 507 24 519 -7 q 494 143 494 56 q 501 319 494 231 q 348 244 444 244 q 181 322 251 244 q 110 481 110 400 z "},"य़":{"ha":801,"x_min":-42,"x_max":839,"o":"m 119 92 q 119 104 119 92 q 133 131 119 117 q 171 144 147 144 q 216 124 194 144 q 238 79 238 103 q 224 41 238 56 q 185 26 210 26 q 140 47 161 26 q 119 92 119 67 m 336 681 q 303 592 336 635 q 231 522 269 549 q 125 422 125 453 q 191 333 125 378 q 333 289 257 289 q 575 390 496 289 q 579 674 579 543 q 565 826 579 806 l 283 826 q 336 681 336 756 m 653 715 l 647 111 q 661 -1 647 19 q 638 -7 650 -7 q 574 100 574 -7 q 583 290 574 207 q 376 222 500 222 q 153 305 251 222 q 54 465 54 388 q 161 572 54 507 q 233 635 200 596 q 267 727 267 675 q 224 826 267 779 l 33 826 q -42 879 -42 826 q -39 897 -42 892 l 764 897 q 839 844 839 897 q 836 826 839 832 l 621 826 q 653 715 653 806 z "},"ॠ":{"ha":1075,"x_min":-54,"x_max":1113,"o":"m 433 488 l 435 713 q 421 826 435 806 l 21 826 q -54 879 -54 826 q -51 897 -54 892 l 1038 897 q 1113 844 1113 897 q 1110 826 1113 832 l 476 826 q 508 719 508 806 q 506 457 508 632 q 604 442 554 442 q 751 479 699 442 q 724 519 738 493 q 703 592 703 558 q 722 647 703 625 q 775 669 742 669 q 839 634 808 669 q 869 548 869 599 q 833 453 869 497 q 900 319 900 372 q 844 225 900 267 q 808 184 825 210 q 790 128 790 158 q 815 76 790 97 q 882 56 839 56 q 966 90 925 56 q 1021 179 1007 124 q 1056 161 1042 176 q 1071 121 1071 146 q 1026 38 1071 75 q 907 0 982 0 q 777 47 832 0 q 722 160 722 93 q 750 231 722 199 q 805 290 778 263 q 832 349 832 318 q 799 419 832 379 q 653 371 733 371 q 506 397 574 371 q 503 117 503 214 q 517 -1 503 19 q 493 -7 506 -7 q 429 108 429 -7 q 442 367 429 256 q 99 207 217 207 q 29 272 29 207 q 410 442 169 272 q 322 495 382 457 q 226 550 261 533 q 157 567 190 567 q 96 547 124 567 q 60 490 68 528 q 18 545 18 501 q 49 613 18 589 q 129 638 79 638 q 228 615 179 638 q 337 549 276 592 q 433 488 397 506 z "},"ॡ":{"ha":975,"x_min":-54,"x_max":1032,"o":"m 682 715 l 681 594 q 805 506 754 572 q 856 368 856 440 q 833 281 856 324 q 783 210 810 238 q 710 82 710 135 q 732 26 710 50 q 789 3 754 3 q 894 76 876 3 q 942 26 942 61 q 915 -31 942 -8 q 856 -67 888 -54 q 797 -106 824 -79 q 769 -169 769 -133 q 794 -229 769 -206 q 859 -253 818 -253 q 935 -224 900 -253 q 982 -149 971 -194 q 1017 -167 1001 -150 q 1032 -215 1032 -183 q 992 -276 1032 -246 q 884 -307 951 -307 q 760 -261 817 -307 q 703 -149 703 -215 q 753 -44 703 -83 q 676 22 707 -22 q 646 110 646 67 q 667 188 646 153 q 715 249 689 224 q 762 315 740 274 q 783 406 783 356 q 747 495 783 457 q 650 533 710 533 q 506 440 563 533 q 528 352 528 393 q 512 283 528 311 q 462 254 496 254 q 408 280 428 254 q 388 355 388 306 q 425 464 388 404 q 291 535 367 535 q 177 484 215 535 q 139 360 139 433 q 296 35 139 185 q 267 18 290 18 q 195 72 244 18 q 104 217 146 126 q 63 401 63 307 q 120 551 63 496 q 272 606 178 606 q 456 514 367 606 q 607 603 525 596 q 608 722 608 639 q 594 826 608 806 l 21 826 q -54 879 -54 826 q -51 897 -54 892 l 938 897 q 1013 844 1013 897 q 1010 826 1013 832 l 650 826 q 682 715 682 806 z "},"।":{"ha":536,"x_min":303,"x_max":394,"o":"m 308 108 l 317 785 q 303 899 317 878 q 326 903 315 903 q 377 872 365 903 q 389 788 389 840 l 381 111 q 394 -3 381 18 q 371 -7 382 -7 q 320 24 332 -7 q 308 108 308 56 z "},"॥":{"ha":851,"x_min":303,"x_max":710,"o":"m 308 108 l 317 785 q 303 899 317 878 q 326 903 315 903 q 377 872 365 903 q 389 788 389 840 l 381 111 q 394 -3 381 18 q 371 -7 382 -7 q 320 24 332 -7 q 308 108 308 56 m 624 108 l 632 785 q 618 899 632 878 q 642 903 631 903 q 692 872 681 903 q 704 788 704 840 l 696 111 q 710 -3 696 18 q 686 -7 697 -7 q 635 24 647 -7 q 624 108 624 56 z "},"०":{"ha":581,"x_min":71,"x_max":513,"o":"m 279 729 q 451 650 389 729 q 513 463 513 571 q 458 280 513 356 q 298 204 403 204 q 132 283 193 204 q 71 469 71 363 q 125 651 71 576 q 279 729 179 726 m 280 256 q 315 257 280 256 q 395 331 350 257 q 440 490 440 406 q 406 626 440 574 q 302 678 372 678 q 187 603 232 678 q 142 443 142 529 q 176 306 142 357 q 280 256 210 256 z "},"१":{"ha":556,"x_min":92,"x_max":489,"o":"m 489 660 q 456 552 489 601 q 377 472 424 503 q 283 416 331 440 q 203 371 236 392 q 171 331 171 350 q 206 277 171 313 q 282 208 240 242 q 358 126 324 174 q 393 39 393 79 q 372 -19 393 -1 q 319 -37 351 -37 q 274 -7 288 -37 q 313 60 313 22 q 278 141 313 99 q 202 215 243 183 q 126 285 161 246 q 92 357 92 324 q 126 419 92 390 q 208 471 160 449 q 306 519 257 493 q 390 590 356 546 q 424 688 424 635 q 391 781 424 742 q 301 819 358 819 q 212 785 244 819 q 179 699 179 751 q 272 564 179 618 q 236 550 258 550 q 147 601 190 550 q 103 720 103 653 q 152 835 103 788 q 278 883 201 883 q 422 817 354 883 q 489 660 489 751 z "},"२":{"ha":624,"x_min":68,"x_max":567,"o":"m 557 32 q 567 -7 567 17 q 547 -48 567 -31 q 485 -65 528 -65 q 396 -31 443 -65 q 315 60 349 3 q 221 292 251 168 q 114 340 160 300 q 68 435 68 379 q 86 483 68 463 q 131 503 104 503 q 250 365 218 503 q 417 447 346 378 q 488 613 488 515 q 433 771 488 711 q 303 831 378 831 q 136 758 204 831 q 101 812 101 771 q 152 877 101 853 q 260 901 203 901 q 465 805 375 901 q 556 585 556 708 q 471 379 556 463 q 268 289 386 296 q 303 189 289 225 q 346 108 318 153 q 510 22 400 22 q 557 32 539 22 z "},"३":{"ha":622,"x_min":65,"x_max":547,"o":"m 547 325 q 479 177 547 236 q 303 118 411 118 q 238 124 267 118 q 308 -8 272 24 q 406 -42 347 -42 q 453 -32 435 -42 q 463 -73 463 -50 q 444 -112 463 -96 q 388 -129 425 -129 q 316 -103 351 -129 q 256 -33 281 -76 q 188 136 210 49 q 65 261 65 179 q 82 304 65 288 q 125 321 99 321 q 226 188 206 321 q 268 183 247 183 q 413 228 353 183 q 474 362 474 272 q 411 503 474 451 q 306 472 354 472 q 227 492 258 472 q 196 544 196 511 q 218 595 196 578 q 283 613 240 613 q 381 582 326 613 q 453 703 453 638 q 413 798 453 768 q 315 828 374 828 q 143 765 214 828 q 114 814 114 781 q 157 874 114 847 q 271 900 200 900 q 444 835 371 900 q 517 681 517 769 q 449 531 517 592 q 547 325 547 436 z "},"४":{"ha":640,"x_min":42,"x_max":599,"o":"m 174 299 q 174 270 174 299 q 215 199 174 242 q 317 157 256 157 q 420 200 379 157 q 461 303 461 243 q 328 513 461 407 q 214 406 254 456 q 174 299 174 357 m 542 292 q 485 153 542 208 q 340 97 429 97 q 175 171 251 97 q 99 317 99 244 q 142 446 99 389 q 263 563 185 503 q 101 690 136 654 q 42 813 42 753 q 66 877 42 854 q 117 900 90 900 q 160 886 143 900 q 178 851 178 872 q 144 833 161 849 q 128 789 128 817 q 156 724 128 761 q 213 663 185 686 q 303 593 242 639 q 464 719 431 686 q 528 844 526 785 q 521 879 528 865 l 539 883 q 582 864 565 883 q 599 814 599 844 q 583 751 599 783 q 552 697 568 718 q 496 640 536 675 q 368 542 456 606 q 542 292 542 406 z "},"५":{"ha":696,"x_min":53,"x_max":708,"o":"m 696 65 q 708 23 708 49 q 690 -20 708 -3 q 640 -37 672 -37 q 540 11 585 -37 q 471 120 494 60 q 431 254 447 181 q 356 246 393 246 q 140 327 226 246 q 53 514 53 408 q 88 653 53 582 q 172 776 122 725 q 278 861 222 828 q 367 894 333 894 q 415 877 401 894 q 428 843 428 860 q 222 710 314 813 q 129 490 129 607 q 174 361 129 413 q 296 310 219 310 q 415 326 372 310 q 403 410 403 371 q 428 476 403 450 q 488 501 453 501 q 548 474 522 501 q 574 397 574 447 q 475 269 574 311 q 536 115 496 172 q 651 57 576 57 q 696 65 675 57 z "},"६":{"ha":665,"x_min":71,"x_max":636,"o":"m 636 -4 q 612 -84 636 -51 q 555 -117 588 -117 q 505 -103 522 -117 q 486 -67 488 -89 q 544 -36 525 -60 q 564 18 564 -12 q 515 154 564 81 q 381 122 458 122 q 183 210 269 122 q 96 388 96 297 q 150 538 96 479 q 71 708 71 610 q 140 854 71 806 q 288 903 208 903 q 426 869 368 903 q 483 794 483 836 q 461 765 483 774 q 310 839 399 839 q 179 792 222 839 q 136 681 136 744 q 186 567 136 617 q 286 601 238 601 q 363 584 335 601 q 392 535 392 567 q 367 489 392 504 q 304 474 342 474 q 222 492 267 474 q 164 368 164 449 q 217 239 164 288 q 341 190 269 190 q 467 219 413 190 q 432 299 432 260 q 453 360 432 339 q 510 382 475 382 q 572 349 544 382 q 599 269 599 317 q 551 179 599 222 q 636 -4 636 81 z "},"७":{"ha":768,"x_min":-8,"x_max":714,"o":"m 242 290 q 437 196 328 196 q 602 279 546 196 q 658 469 658 363 q 609 652 658 576 q 481 728 560 728 q 402 697 435 728 q 369 618 369 667 q 431 500 369 543 q 568 457 492 457 q 601 458 590 457 q 585 424 601 436 q 540 411 568 411 q 367 478 443 411 q 292 636 292 546 q 337 748 292 703 q 453 793 382 793 q 640 690 567 793 q 714 445 714 588 q 645 211 714 303 q 458 119 576 119 q 310 156 378 119 q 195 249 242 192 q 111 379 149 306 q 52 525 74 453 q 17 668 31 597 q -8 857 -8 786 q 31 904 -8 904 q 242 290 76 472 z "},"८":{"ha":568,"x_min":43,"x_max":560,"o":"m 510 310 q 560 240 560 292 q 498 133 560 189 q 333 78 436 78 q 136 151 229 78 q 43 334 43 225 q 143 560 43 443 l 453 917 q 486 874 486 906 q 460 806 486 843 q 362 688 435 769 q 253 563 289 607 q 119 307 119 403 q 165 192 119 233 q 283 150 210 150 q 419 190 357 150 q 510 310 482 229 z "},"९":{"ha":514,"x_min":40,"x_max":474,"o":"m 164 781 q 143 759 164 781 q 122 671 122 738 q 157 539 122 604 q 240 422 192 474 q 339 322 289 371 q 457 107 457 203 q 433 33 457 58 q 369 7 408 7 q 315 51 329 7 q 360 78 343 58 q 376 136 376 99 q 342 228 376 174 q 258 334 307 282 q 158 442 208 386 q 40 686 40 574 q 97 828 40 771 q 246 886 153 886 q 406 814 339 886 q 474 660 474 742 q 425 524 474 578 q 311 469 376 469 q 272 483 288 469 q 253 515 256 497 q 397 692 397 563 q 358 786 397 747 q 263 825 319 825 q 164 781 206 825 z "},"॰":{"ha":560,"x_min":75,"x_max":486,"o":"m 486 439 q 486 398 486 439 q 433 294 486 357 q 282 231 379 231 q 130 288 185 231 q 75 428 75 346 q 129 574 75 511 q 280 638 183 638 q 431 579 376 638 q 486 439 486 521 m 421 435 q 421 467 421 435 q 386 545 421 499 q 285 592 351 592 q 181 545 219 592 q 142 435 142 499 q 177 326 142 372 q 278 279 213 279 q 383 326 344 279 q 421 435 421 372 z "},"ॲ":{"ha":958,"x_min":7,"x_max":996,"o":"m 996 1186 q 996 1162 996 1186 q 928 1102 996 1138 q 761 1067 861 1067 q 576 1121 661 1067 q 490 1217 490 1175 q 508 1242 490 1235 q 735 1129 592 1129 q 863 1158 803 1129 q 951 1244 922 1188 q 996 1186 996 1235 m 810 715 l 804 111 q 818 -1 804 19 q 794 -7 807 -7 q 731 108 731 -7 q 742 418 731 294 q 637 404 700 404 q 513 435 574 404 q 536 338 536 385 q 481 203 536 253 q 347 153 425 153 q 204 185 269 153 q 98 261 139 217 q 32 347 57 306 q 7 412 7 389 q 29 440 7 435 q 144 289 72 351 q 295 226 217 226 q 418 265 374 226 q 463 381 463 304 q 400 503 463 457 q 295 472 343 472 q 216 492 247 472 q 185 544 185 511 q 207 595 185 578 q 274 613 229 613 q 368 582 318 613 q 442 711 442 638 q 402 798 442 768 q 292 828 363 828 q 167 781 222 828 q 138 826 138 796 q 172 878 138 857 q 260 900 206 900 q 433 835 360 900 q 506 681 506 769 q 438 531 506 592 q 606 468 525 468 q 735 499 686 468 q 736 687 736 568 q 722 826 736 806 l 667 826 q 592 879 592 826 q 594 897 592 892 l 921 897 q 996 844 996 897 q 993 826 996 832 l 778 826 q 810 715 810 806 z "},"ॽ":{"ha":776,"x_min":147,"x_max":640,"o":"m 379 281 l 376 110 q 392 1 376 28 q 357 -6 378 -6 q 290 140 290 -6 q 298 340 290 285 q 324 427 306 396 q 377 493 343 458 q 449 563 411 528 q 506 620 486 599 q 544 678 525 642 q 563 760 563 715 q 521 842 563 804 q 411 881 479 881 q 190 786 281 881 q 147 844 147 799 q 213 921 147 890 q 353 951 279 951 q 559 880 478 951 q 640 710 640 808 q 592 589 640 649 q 505 495 554 542 q 429 422 456 449 q 391 367 403 394 q 379 281 379 339 z "},"​":{"ha":0,"x_min":0,"x_max":0,"o":""},"‌":{"ha":0,"x_min":-33,"x_max":53,"o":"m -26 -418 l -28 1017 q 31 1101 -28 1101 q 53 1096 43 1101 q 46 1039 46 1083 l 47 -396 q -11 -481 47 -481 q -33 -475 -24 -481 q -26 -418 -26 -462 z "},"‍":{"ha":0,"x_min":-207,"x_max":185,"o":"m 25 849 l 26 -396 q -32 -481 26 -481 q -54 -475 -44 -481 q -47 -377 -47 -462 q -48 197 -47 -292 q -49 847 -49 686 l -103 797 q -166 764 -136 764 q -207 799 -196 764 l -64 932 l -207 1067 q -163 1100 -193 1100 q -101 1068 -133 1100 l -11 983 l 79 1068 q 141 1100 111 1100 q 185 1067 171 1100 l 42 932 l 185 799 q 144 764 174 764 q 81 797 114 764 l 25 849 z "},"–":{"ha":858,"x_min":83,"x_max":775,"o":"m 163 513 l 771 513 q 775 494 775 500 q 696 439 775 439 l 89 439 q 83 458 83 450 q 163 513 83 513 z "},"—":{"ha":1503,"x_min":83,"x_max":1419,"o":"m 163 513 l 1415 513 q 1419 494 1419 500 q 1340 439 1419 439 l 89 439 q 83 458 83 450 q 163 513 83 513 z "},"‘":{"ha":265,"x_min":44,"x_max":221,"o":"m 125 1056 q 151 970 125 1007 q 219 924 178 933 q 199 874 221 896 q 147 853 178 853 q 71 900 97 853 q 44 1023 44 947 q 81 1165 44 1099 q 165 1231 118 1231 q 197 1206 192 1231 q 125 1056 125 1156 z "},"’":{"ha":265,"x_min":43,"x_max":219,"o":"m 140 1053 q 114 1138 140 1101 q 44 1183 88 1175 q 65 1234 43 1213 q 117 1256 88 1256 q 194 1209 168 1256 q 219 1086 219 1163 q 183 943 219 1010 q 101 876 146 876 q 69 901 72 876 q 140 1053 140 951 z "},"‚":{"ha":1000,"x_min":83,"x_max":260,"o":"m 110 -183 q 181 -35 181 -135 q 154 49 181 11 q 86 93 128 86 q 105 142 83 121 q 157 163 126 163 q 233 117 207 163 q 260 -3 260 71 q 223 -143 260 -78 q 140 -208 186 -208 q 110 -183 114 -208 z "},"“":{"ha":529,"x_min":11,"x_max":519,"o":"m 92 1056 q 118 970 92 1007 q 186 924 144 933 q 166 874 188 896 q 114 853 144 853 q 38 900 64 853 q 11 1023 11 947 q 48 1165 11 1099 q 132 1231 85 1231 q 164 1206 158 1231 q 92 1056 92 1156 m 422 1056 q 449 970 422 1007 q 518 924 475 933 q 497 874 519 896 q 444 853 474 853 q 367 900 393 853 q 342 1023 342 947 q 379 1165 342 1099 q 463 1231 417 1231 q 494 1206 490 1231 q 422 1056 422 1157 z "},"”":{"ha":529,"x_min":43,"x_max":485,"o":"m 140 1029 q 114 1114 140 1076 q 44 1161 88 1151 q 65 1209 43 1188 q 117 1231 88 1231 q 194 1184 168 1231 q 219 1062 219 1138 q 183 919 219 986 q 101 853 146 853 q 69 878 72 853 q 140 1029 140 928 m 404 1029 q 377 1114 404 1076 q 308 1161 350 1151 q 329 1210 307 1189 q 382 1231 351 1231 q 458 1184 432 1231 q 485 1062 485 1138 q 447 919 485 986 q 364 853 410 853 q 332 878 336 853 q 404 1029 404 929 z "},"„":{"ha":1000,"x_min":83,"x_max":260,"o":"m 110 -183 q 181 -35 181 -135 q 154 49 181 11 q 86 93 128 86 q 105 142 83 121 q 157 163 126 163 q 233 117 207 163 q 260 -3 260 71 q 223 -143 260 -78 q 140 -208 186 -208 q 110 -183 114 -208 z "},"†":{"ha":911,"x_min":89,"x_max":796,"o":"m 92 729 l 89 749 q 169 801 89 803 l 411 797 q 406 1022 411 861 q 457 1100 406 1100 q 476 1094 471 1100 q 474 1022 474 1064 l 475 797 q 793 803 567 803 l 796 782 q 717 729 796 729 l 475 733 l 475 713 q 476 563 476 636 l 478 -272 q 421 -354 478 -354 q 397 -353 406 -354 q 405 -291 404 -337 q 406 600 406 -244 q 411 733 406 706 l 92 729 z "},"‡":{"ha":878,"x_min":89,"x_max":796,"o":"m 92 729 l 89 749 q 169 801 89 803 l 411 797 q 406 1022 411 861 q 457 1100 406 1100 q 476 1094 471 1100 q 474 1022 474 1064 l 475 797 q 793 803 567 803 l 796 782 q 717 729 796 729 l 475 733 l 475 717 l 478 353 l 478 269 l 476 132 l 475 42 l 475 14 q 790 17 596 14 q 796 -3 796 6 q 715 -54 796 -56 q 475 -50 633 -53 q 478 -276 475 -126 q 428 -354 478 -354 q 407 -349 415 -354 q 411 -276 411 -333 l 411 -51 q 90 -56 342 -56 q 89 -36 89 -51 q 168 17 89 17 l 411 13 q 407 292 407 97 q 410 660 407 486 l 411 733 l 92 729 z "},"•":{"ha":457,"x_min":96,"x_max":353,"o":"m 242 682 q 268 682 242 682 q 324 651 294 682 q 353 568 353 621 q 308 470 353 515 q 210 425 263 425 q 126 456 157 425 q 96 538 96 486 q 143 636 96 590 q 242 682 190 682 z "},"…":{"ha":1119,"x_min":165,"x_max":954,"o":"m 253 158 q 269 158 253 158 q 303 140 285 158 q 321 90 321 121 q 293 30 321 58 q 233 1 265 1 q 183 20 201 1 q 165 70 165 39 q 194 130 165 101 q 253 158 222 158 m 570 158 q 586 158 570 158 q 619 140 601 158 q 638 90 638 121 q 610 30 638 58 q 550 1 582 1 q 500 20 518 1 q 482 70 482 39 q 510 130 482 101 q 570 158 539 158 m 887 158 q 902 158 887 158 q 936 140 918 158 q 954 90 954 121 q 926 30 954 58 q 867 1 899 1 q 817 20 835 1 q 799 70 799 39 q 827 130 799 101 q 887 158 856 158 z "},"‰":{"ha":1601,"x_min":119,"x_max":1481,"o":"m 1481 273 q 1481 218 1481 273 q 1421 76 1481 164 q 1274 -11 1361 -11 q 1141 62 1188 -11 q 1094 244 1094 135 q 1151 441 1094 353 q 1296 529 1208 529 q 1432 456 1383 529 q 1481 273 1481 382 m 1418 265 q 1418 306 1418 265 q 1385 401 1418 347 q 1293 456 1351 456 q 1196 394 1235 456 q 1157 251 1157 333 q 1193 115 1157 169 q 1287 61 1229 61 q 1381 122 1344 61 q 1418 265 1418 183 m 507 744 q 507 690 507 744 q 447 547 507 635 q 300 460 386 460 q 167 533 214 460 q 119 715 119 606 q 176 913 119 825 q 322 1000 233 1000 q 458 927 410 1000 q 507 744 507 854 m 444 738 q 444 779 444 738 q 411 874 444 819 q 319 928 378 928 q 222 867 260 928 q 183 723 183 806 q 219 587 183 640 q 312 533 254 533 q 407 595 369 533 q 444 738 444 657 m 863 967 q 915 1000 892 1000 q 957 981 939 1000 q 928 947 951 978 l 281 24 q 231 -11 257 -11 q 188 8 204 -11 q 215 42 200 18 l 863 967 m 1022 273 q 1022 218 1022 273 q 963 76 1022 164 q 816 -11 903 -11 q 683 62 729 -11 q 636 244 636 135 q 693 441 636 353 q 838 529 750 529 q 974 456 925 529 q 1022 273 1022 382 m 960 265 q 960 306 960 265 q 926 401 960 347 q 835 456 893 456 q 738 394 776 456 q 699 251 699 333 q 735 115 699 169 q 828 61 771 61 q 923 122 886 61 q 960 265 960 183 z "},"‹":{"ha":556,"x_min":124,"x_max":432,"o":"m 253 561 q 432 243 253 431 q 394 214 419 214 q 304 278 369 214 q 181 427 239 342 q 124 562 124 513 q 181 697 124 611 q 304 847 239 782 q 394 911 369 911 q 432 882 419 911 q 297 708 340 783 q 253 561 253 633 z "},"›":{"ha":556,"x_min":124,"x_max":432,"o":"m 251 847 q 284 814 251 847 q 374 697 317 782 q 432 562 432 611 q 374 427 432 513 q 251 278 317 342 q 161 214 186 214 q 138 224 149 214 q 124 243 126 233 q 301 561 301 429 q 258 709 301 633 q 124 882 214 785 q 138 901 126 892 q 161 911 149 911 q 251 847 186 911 z "},"⁄":{"ha":832,"x_min":31,"x_max":801,"o":"m 706 967 q 759 1000 735 1000 q 801 981 783 1000 q 772 947 796 978 l 126 24 q 74 -11 100 -11 q 31 8 47 -11 q 58 42 43 18 l 706 967 z "},"€":{"ha":928,"x_min":49,"x_max":878,"o":"m 550 351 l 265 351 q 377 144 294 218 q 589 71 460 71 q 741 103 671 71 q 856 179 811 135 q 878 146 878 176 q 784 45 878 101 q 552 -11 690 -11 q 303 88 414 -11 q 160 351 192 186 l 54 351 q 49 374 49 363 q 146 432 49 432 l 151 432 q 150 474 150 443 q 154 540 150 506 l 54 540 q 49 563 49 551 q 146 621 49 621 l 167 621 q 332 898 208 796 q 614 1000 456 1000 q 801 952 726 1000 q 876 840 876 904 q 860 795 876 813 q 819 778 843 778 q 783 783 796 778 q 785 799 785 792 q 738 881 785 844 q 585 918 690 918 q 388 842 481 918 q 264 621 296 767 l 642 621 q 647 600 647 604 q 550 540 647 540 l 253 540 q 251 496 251 524 q 254 432 251 468 l 642 432 q 647 411 647 415 q 550 351 647 351 z "},"₹":{"ha":596,"x_min":0,"x_max":633,"o":"m 633 676 q 558 624 633 624 l 486 624 q 492 567 492 597 q 428 387 492 460 q 260 308 364 314 q 475 63 326 63 q 538 72 504 63 q 511 11 546 38 q 442 -6 489 -6 q 350 24 396 -6 q 272 103 304 53 q 179 318 210 197 q 103 361 133 332 q 72 422 72 390 q 88 472 72 454 q 133 490 104 490 q 249 361 215 490 q 373 429 324 372 q 422 575 422 486 q 418 624 422 599 l 3 624 q 0 642 0 629 q 75 694 0 694 l 396 694 q 306 826 363 772 l 3 826 q 0 844 0 832 q 75 897 0 897 l 631 897 q 633 879 633 892 q 558 826 633 826 l 392 826 q 467 694 442 768 l 631 694 q 633 676 633 689 z "},"™":{"ha":1254,"x_min":44,"x_max":1171,"o":"m 97 996 l 426 996 q 463 961 463 996 q 451 929 463 936 q 411 942 439 942 l 292 942 l 292 471 q 308 444 292 449 q 276 422 303 422 q 225 467 225 422 l 225 942 l 81 942 q 44 972 44 942 q 54 1006 44 986 q 97 996 74 996 m 1171 433 q 1138 421 1156 421 q 1104 433 1119 421 q 1088 468 1089 444 l 1058 888 l 867 453 q 843 436 858 436 q 821 451 828 436 l 651 856 l 625 471 q 583 422 621 422 q 543 433 557 422 q 554 471 554 442 l 590 956 q 582 990 590 976 q 622 1004 600 1004 q 660 972 644 1004 l 847 532 l 1033 956 q 1088 1004 1060 1004 q 1131 989 1115 1004 q 1121 954 1119 981 l 1157 471 q 1171 433 1160 443 z "},"−":{"ha":763,"x_min":32,"x_max":732,"o":"m 111 594 l 729 594 q 732 578 732 589 q 654 522 732 522 l 36 522 q 32 542 32 535 q 111 594 32 594 z "},"◌":{"ha":967,"x_min":140,"x_max":821,"o":"m 147 379 l 272 407 q 294 344 279 378 l 186 281 q 147 379 157 328 m 269 451 l 140 451 q 156 556 140 503 l 279 515 q 269 451 269 486 m 229 222 l 321 307 q 374 264 342 282 l 314 158 q 229 222 257 189 m 253 701 l 338 608 q 296 557 313 588 l 186 621 q 253 701 215 669 m 481 236 l 481 118 q 378 132 425 118 l 415 246 q 481 236 444 236 m 690 451 l 821 451 q 804 347 821 393 l 682 386 q 690 451 690 428 m 411 778 l 438 657 q 375 635 400 649 l 314 742 q 411 778 351 765 m 550 124 l 525 240 q 588 265 569 254 l 647 158 q 550 124 603 133 m 481 661 l 481 783 q 583 768 533 783 l 544 651 q 481 661 511 661 m 708 200 l 624 292 q 664 344 650 315 l 774 281 q 708 200 750 235 m 732 679 l 638 592 q 586 633 618 615 l 649 742 q 732 679 694 717 m 775 619 q 813 521 804 571 l 685 494 q 664 557 681 522 l 775 619 z "},"ﬁ":{"ha":781,"x_min":53,"x_max":681,"o":"m 649 621 l 649 71 q 681 29 649 40 q 622 -11 658 -11 q 561 68 561 -11 l 561 625 l 264 622 l 264 -190 q 234 -300 264 -262 q 152 -337 204 -337 q 69 -281 100 -337 q 151 -254 128 -281 q 175 -167 175 -228 l 175 624 q 53 672 53 629 q 67 706 53 692 q 160 699 108 699 l 175 699 l 175 808 q 247 989 175 931 q 422 1047 319 1047 q 594 1011 525 1047 q 664 922 664 975 q 631 867 664 885 q 591 857 611 857 q 550 864 571 857 q 472 967 526 946 q 411 976 446 976 q 264 813 264 976 l 264 699 l 585 699 q 649 621 649 699 z "},"ﬂ":{"ha":772,"x_min":53,"x_max":681,"o":"m 649 924 l 649 71 q 681 29 649 40 q 622 -11 658 -11 q 561 68 561 -11 l 561 956 q 434 981 508 981 q 312 940 360 981 q 264 814 264 900 l 264 639 l 438 639 q 444 615 444 631 q 401 578 444 594 q 288 561 358 561 l 264 561 l 264 -190 q 234 -300 264 -262 q 152 -337 204 -337 q 69 -281 100 -337 q 151 -254 128 -281 q 175 -167 175 -228 l 175 563 q 53 611 53 568 q 67 646 53 629 q 160 639 94 639 l 175 639 l 175 807 q 246 986 175 925 q 429 1047 317 1047 q 649 924 649 1047 z "}," ":{"ha":375,"x_min":0,"x_max":0,"o":""}}}
